<svg width="86" height="80" viewBox="0 0 86 80" fill="none" xmlns="http://www.w3.org/2000/svg">
<path fill-rule="evenodd" clip-rule="evenodd" d="M55.3827 78.6001H76.8575C76.9648 78.6001 77.0527 78.6879 77.0527 78.7953C77.0527 78.9027 76.9648 78.9905 76.8575 78.9905H55.3827C55.2754 78.9905 55.1875 78.9027 55.1875 78.7953C55.1875 78.6879 55.2754 78.6001 55.3827 78.6001Z" fill="white"/>
<path fill-rule="evenodd" clip-rule="evenodd" d="M8.17177 78.6001H29.6466C29.7539 78.6001 29.8417 78.6879 29.8417 78.7953C29.8417 78.9027 29.7539 78.9905 29.6466 78.9905H8.17177C8.06438 78.9905 7.97656 78.9027 7.97656 78.7953C7.97656 78.6879 8.06438 78.6001 8.17177 78.6001Z" fill="white"/>
<path fill-rule="evenodd" clip-rule="evenodd" d="M25.5742 52.878C28.4448 51.9985 31.4107 51.4212 34.3335 51.0653C40.1612 50.3556 46.5699 50.4238 52.3085 51.2847C54.7029 51.6437 57.1089 52.1602 59.4515 52.878L57.8266 53.6482C50.6775 53.9503 33.4049 54.0306 27.2785 53.6858L25.5742 52.878Z" fill="white"/>
<path fill-rule="evenodd" clip-rule="evenodd" d="M19.9648 55.5575C22.9055 55.0017 25.8692 54.5826 28.8072 54.2763C38.7174 53.243 49.6156 53.3423 59.3745 54.5956C61.2708 54.8392 63.1714 55.1325 65.0635 55.4818L63.7038 62.4315H60.6279L61.219 57.7227C59.6495 57.486 58.0727 57.2873 56.4999 57.1224C48.4049 56.2732 39.3646 56.2059 31.1441 56.9059C28.7072 57.1134 26.2487 57.3974 23.8094 57.774L24.3807 62.4315H21.3007L19.9648 55.5575Z" fill="white"/>
<path fill-rule="evenodd" clip-rule="evenodd" d="M24.9492 58.6007C35.9571 56.9012 49.087 56.8943 60.0818 58.5526L59.5267 62.4318H25.4858L24.9492 58.6007Z" fill="white"/>
<path d="M34.1704 49.7804C29.3011 51.1986 22.3687 51.6773 18.1342 44.177L1.1948 45.7942L3.32109 61.8444L20.8109 61.6257L20.9055 62.4668L3.00392 62.695L0.242188 45.0115C6.25749 44.6208 12.273 44.2315 18.2885 43.8423C20.1475 48.3505 27.9211 52.2304 33.3735 48.8602C34.0622 49.298 34.1105 49.4894 34.1704 49.7804Z" fill="white"/>
<path fill-rule="evenodd" clip-rule="evenodd" d="M19.3787 47.8298L17.9288 60.9492H15.5781L17.9085 45.6733C18.2955 46.6005 18.7626 47.22 19.3787 47.8298ZM30.816 51.0948C30.7777 51.0994 30.7394 51.103 30.7013 51.1073L30.7156 51.2639L30.8125 51.2476L30.816 51.0949V51.0948ZM30.1119 51.1612C30.0413 51.1663 29.9708 51.1714 29.9004 51.1754L29.9187 51.4064L30.1288 51.3673L30.1119 51.1612ZM29.2994 51.1981C29.1901 51.2 29.0812 51.2006 28.9724 51.2002L28.9972 51.5913C29.1057 51.5682 29.214 51.5455 29.3218 51.5235L29.2994 51.1981ZM28.3457 51.1852C28.1907 51.1784 28.0362 51.1698 27.8826 51.1586L27.9135 51.8406C28.0673 51.8025 28.2209 51.7657 28.3745 51.7299L28.3457 51.1852ZM27.2107 51.0943C26.9991 51.0696 26.7891 51.0409 26.5812 51.0083L26.6084 52.1978C26.8176 52.1345 27.029 52.074 27.2415 52.0158L27.2107 51.0943ZM26.6405 53.6785L26.6523 54.2507C26.8775 54.2256 27.0976 54.2016 27.3116 54.1785L27.3108 54.1512L27.3066 54.0195L26.6405 53.6785ZM25.8373 50.8739C25.5563 50.8164 25.2794 50.7519 25.007 50.6812C25.0045 51.3575 25.0013 52.0503 24.9973 52.7598C25.274 52.6479 25.5601 52.5419 25.8529 52.4413C25.848 51.9092 25.8427 51.3869 25.8373 50.8739ZM24.9968 52.8372L24.9862 54.444C25.2848 54.4076 25.5796 54.3726 25.8687 54.3393L25.8603 53.2792L24.9968 52.8372ZM24.1518 50.4342C23.7822 50.3165 23.4223 50.1877 23.0739 50.0489L22.8872 54.7233L24.066 54.5604L24.1518 50.4342ZM22.0424 49.595C21.5535 49.3585 21.0927 49.1038 20.6651 48.8365L20.1273 55.1949L21.7294 54.9025L22.0424 49.595ZM19.9538 57.1975C19.8467 58.4274 19.7347 59.6271 19.6175 60.9492H20.6676L19.9538 57.1975Z" fill="white"/>
<path fill-rule="evenodd" clip-rule="evenodd" d="M1.96875 46.3755L17.4437 45.2012L14.9844 60.9502H3.89034L1.96875 46.3755Z" fill="white"/>
<path d="M50.7617 49.4059C57.1193 51.8411 64.4743 49.245 66.9004 44.177L83.8398 45.7942L81.7134 61.8444L64.2235 61.6256L64.1291 62.4668L82.1996 62.695L84.7924 45.0115L66.7461 43.8423C64.8572 48.423 55.7485 50.9083 51.6611 48.3082C51.248 49.1275 51.164 49.2824 50.7617 49.4059Z" fill="white"/>
<path fill-rule="evenodd" clip-rule="evenodd" d="M65.656 47.8298L67.106 60.9492H69.4566L67.1263 45.6733C66.7392 46.6005 66.2722 47.22 65.656 47.8298ZM54.2188 51.0948C54.257 51.0994 54.2953 51.103 54.3335 51.1073L54.3192 51.2639L54.2222 51.2476L54.2188 51.0949V51.0948ZM54.9228 51.1612C54.9934 51.1663 55.064 51.1714 55.1343 51.1754L55.1161 51.4064L54.9059 51.3673L54.9228 51.1612ZM55.7353 51.1981C55.8446 51.2 55.9535 51.2006 56.0623 51.2002L56.0375 51.5913C55.929 51.5682 55.8207 51.5455 55.7129 51.5235L55.7353 51.1981ZM56.689 51.1852C56.844 51.1784 56.9986 51.1698 57.1521 51.1586L57.1212 51.8406C56.9675 51.8025 56.8138 51.7657 56.6602 51.7299L56.689 51.1852ZM57.8241 51.0943C58.0356 51.0696 58.2456 51.0409 58.4535 51.0083L58.4263 52.1978C58.2171 52.1345 58.0058 52.074 57.7932 52.0158L57.8241 51.0943ZM58.3943 53.6785L58.3825 54.2507C58.1572 54.2256 57.9371 54.2016 57.723 54.1785L57.724 54.1512L57.7281 54.0195L58.3943 53.6785ZM59.1974 50.8739C59.4784 50.8164 59.7553 50.7519 60.0277 50.6812C60.0303 51.3575 60.0335 52.0503 60.0375 52.7598C59.7607 52.6479 59.4746 52.5419 59.1818 52.4413C59.1867 51.9092 59.192 51.3869 59.1974 50.8739ZM60.0379 52.8372L60.0485 54.444C59.7499 54.4076 59.4552 54.3726 59.166 54.3393L59.1744 53.2792L60.0379 52.8372ZM60.8829 50.4342C61.2525 50.3165 61.6124 50.1877 61.9609 50.0489L62.1475 54.7233L60.9687 54.5604L60.8829 50.4342ZM62.9922 49.595C63.4813 49.3585 63.942 49.1038 64.3695 48.8365L64.9074 55.1949L63.3053 54.9025L62.9922 49.595ZM65.0809 57.1975C65.188 58.4274 65.3001 59.6271 65.4173 60.9492H64.3671L65.0809 57.1975Z" fill="white"/>
<path fill-rule="evenodd" clip-rule="evenodd" d="M83.0647 46.3755L67.7773 45.2012C68.8313 52.0325 69.1459 54.0727 70.2068 60.9502H81.1664C81.923 55.1401 82.3076 52.1882 83.0647 46.3755Z" fill="white"/>
<path fill-rule="evenodd" clip-rule="evenodd" d="M33.7344 28.5654H35.1106V30.3622H33.7344V28.5654Z" fill="white"/>
<path fill-rule="evenodd" clip-rule="evenodd" d="M35.4648 28.5654H36.8411V30.3622H35.4648V28.5654Z" fill="white"/>
<path fill-rule="evenodd" clip-rule="evenodd" d="M37.1992 28.5654H38.5754V30.3622H37.1992V28.5654Z" fill="white"/>
<path fill-rule="evenodd" clip-rule="evenodd" d="M38.9297 28.5654H40.306V30.3622H38.9297V28.5654Z" fill="white"/>
<path fill-rule="evenodd" clip-rule="evenodd" d="M40.6602 28.5654H42.0364V30.3622H40.6602V28.5654Z" fill="white"/>
<path fill-rule="evenodd" clip-rule="evenodd" d="M42.3906 28.5654H43.7668V30.3622H42.3906V28.5654Z" fill="white"/>
<path fill-rule="evenodd" clip-rule="evenodd" d="M44.125 28.5654H45.5012V30.3622H44.125V28.5654Z" fill="white"/>
<path fill-rule="evenodd" clip-rule="evenodd" d="M45.8555 28.5654H47.2317V30.3622H45.8555V28.5654Z" fill="white"/>
<path fill-rule="evenodd" clip-rule="evenodd" d="M47.5859 28.5654H48.9622V30.3622H47.5859V28.5654Z" fill="white"/>
<path fill-rule="evenodd" clip-rule="evenodd" d="M49.3164 28.5654C49.8936 28.5784 50.2764 28.6403 50.5817 28.7391V30.5359C50.171 30.4331 49.8269 30.3833 49.3164 30.3622V28.5654Z" fill="white"/>
<path fill-rule="evenodd" clip-rule="evenodd" d="M50.7578 28.8125C51.0765 28.8893 51.26 28.9995 51.3905 29.079V30.9067C51.2394 30.7926 51.1463 30.6797 50.7578 30.6094V28.8125Z" fill="white"/>
<path fill-rule="evenodd" clip-rule="evenodd" d="M33.7344 30.5908H35.1106V32.3876H33.7344V30.5908Z" fill="white"/>
<path fill-rule="evenodd" clip-rule="evenodd" d="M33.7344 32.6172H35.1106V34.414H33.7344V32.6172Z" fill="white"/>
<path fill-rule="evenodd" clip-rule="evenodd" d="M33.7344 34.6431H35.1106V36.4399H33.7344V34.6431Z" fill="white"/>
<path fill-rule="evenodd" clip-rule="evenodd" d="M33.7344 36.6675H35.1106V38.4643H33.7344V36.6675Z" fill="white"/>
<path fill-rule="evenodd" clip-rule="evenodd" d="M33.7344 38.6934H35.1106V40.4902H33.7344V38.6934Z" fill="white"/>
<path fill-rule="evenodd" clip-rule="evenodd" d="M33.7344 40.7178H35.1106V42.5146H33.7344V40.7178Z" fill="white"/>
<path fill-rule="evenodd" clip-rule="evenodd" d="M33.7344 42.7441H35.1106V44.5409H33.7344V42.7441Z" fill="white"/>
<path fill-rule="evenodd" clip-rule="evenodd" d="M33.7344 44.7686H35.1106V46.5654H33.7344V44.7686Z" fill="white"/>
<path fill-rule="evenodd" clip-rule="evenodd" d="M33.7344 46.7944H35.1106V48.5912H33.7344V46.7944Z" fill="white"/>
<path fill-rule="evenodd" clip-rule="evenodd" d="M35.4648 30.5908H36.8411V32.3876H35.4648V30.5908Z" fill="white"/>
<path fill-rule="evenodd" clip-rule="evenodd" d="M35.4648 32.6172H36.8411V34.414H35.4648V32.6172Z" fill="white"/>
<path fill-rule="evenodd" clip-rule="evenodd" d="M35.4648 34.6431H36.8411V36.4399H35.4648V34.6431Z" fill="white"/>
<path fill-rule="evenodd" clip-rule="evenodd" d="M35.4648 36.6675H36.8411V38.4643H35.4648V36.6675Z" fill="white"/>
<path fill-rule="evenodd" clip-rule="evenodd" d="M35.4648 38.6934H36.8411V40.4902H35.4648V38.6934Z" fill="white"/>
<path fill-rule="evenodd" clip-rule="evenodd" d="M35.4648 40.7178H36.8411V42.5146H35.4648V40.7178Z" fill="white"/>
<path fill-rule="evenodd" clip-rule="evenodd" d="M35.4648 42.7441H36.8411V44.5409H35.4648V42.7441Z" fill="white"/>
<path fill-rule="evenodd" clip-rule="evenodd" d="M35.4648 44.7686H36.8411V46.5654H35.4648V44.7686Z" fill="white"/>
<path fill-rule="evenodd" clip-rule="evenodd" d="M35.4648 46.7944H36.8411V48.5912H35.4648V46.7944Z" fill="white"/>
<path fill-rule="evenodd" clip-rule="evenodd" d="M37.1992 30.5908H38.5754V32.3876H37.1992V30.5908Z" fill="white"/>
<path fill-rule="evenodd" clip-rule="evenodd" d="M37.1992 32.6172H38.5754V34.414H37.1992V32.6172Z" fill="white"/>
<path fill-rule="evenodd" clip-rule="evenodd" d="M37.1992 34.6431H38.5754V36.4399H37.1992V34.6431Z" fill="white"/>
<path fill-rule="evenodd" clip-rule="evenodd" d="M37.1992 36.6675H38.5754V38.4643H37.1992V36.6675Z" fill="white"/>
<path fill-rule="evenodd" clip-rule="evenodd" d="M37.1992 38.6934H38.5754V40.4902H37.1992V38.6934Z" fill="white"/>
<path fill-rule="evenodd" clip-rule="evenodd" d="M37.1992 40.7178H38.5754V42.5146H37.1992V40.7178Z" fill="white"/>
<path fill-rule="evenodd" clip-rule="evenodd" d="M37.1992 42.7441H38.5754V44.5409H37.1992V42.7441Z" fill="white"/>
<path fill-rule="evenodd" clip-rule="evenodd" d="M37.1992 44.7686H38.5754V46.5654H37.1992V44.7686Z" fill="white"/>
<path fill-rule="evenodd" clip-rule="evenodd" d="M37.1992 46.7944H38.5754V48.5912H37.1992V46.7944Z" fill="white"/>
<path fill-rule="evenodd" clip-rule="evenodd" d="M38.9297 30.5908H40.306V32.3876H38.9297V30.5908Z" fill="white"/>
<path fill-rule="evenodd" clip-rule="evenodd" d="M38.9297 32.6172H40.306V34.414H38.9297V32.6172Z" fill="white"/>
<path fill-rule="evenodd" clip-rule="evenodd" d="M38.9297 34.6431H40.306V36.4399H38.9297V34.6431Z" fill="white"/>
<path fill-rule="evenodd" clip-rule="evenodd" d="M38.9297 36.6675H40.306V38.4643H38.9297V36.6675Z" fill="white"/>
<path fill-rule="evenodd" clip-rule="evenodd" d="M38.9297 38.6934H40.306V40.4902H38.9297V38.6934Z" fill="white"/>
<path fill-rule="evenodd" clip-rule="evenodd" d="M38.9297 40.7178H40.306V42.5146H38.9297V40.7178Z" fill="white"/>
<path fill-rule="evenodd" clip-rule="evenodd" d="M38.9297 42.7441H40.306V44.5409H38.9297V42.7441Z" fill="white"/>
<path fill-rule="evenodd" clip-rule="evenodd" d="M38.9297 44.7686H40.306V46.5654H38.9297V44.7686Z" fill="white"/>
<path fill-rule="evenodd" clip-rule="evenodd" d="M38.9297 46.7944H40.306V48.5912H38.9297V46.7944Z" fill="white"/>
<path fill-rule="evenodd" clip-rule="evenodd" d="M40.6602 30.5908H42.0364V32.3876H40.6602V30.5908Z" fill="white"/>
<path fill-rule="evenodd" clip-rule="evenodd" d="M40.6602 32.6172H42.0364V34.414H40.6602V32.6172Z" fill="white"/>
<path fill-rule="evenodd" clip-rule="evenodd" d="M40.6602 34.6431H42.0364V36.4399H40.6602V34.6431Z" fill="white"/>
<path fill-rule="evenodd" clip-rule="evenodd" d="M40.6602 36.6675H42.0364V38.4643H40.6602V36.6675Z" fill="white"/>
<path fill-rule="evenodd" clip-rule="evenodd" d="M40.6602 38.6934H42.0364V40.4902H40.6602V38.6934Z" fill="white"/>
<path fill-rule="evenodd" clip-rule="evenodd" d="M40.6602 40.7178H42.0364V42.5146H40.6602V40.7178Z" fill="white"/>
<path fill-rule="evenodd" clip-rule="evenodd" d="M40.6602 42.7441H42.0364V44.5409H40.6602V42.7441Z" fill="white"/>
<path fill-rule="evenodd" clip-rule="evenodd" d="M40.6602 44.7686H42.0364V46.5654H40.6602V44.7686Z" fill="white"/>
<path fill-rule="evenodd" clip-rule="evenodd" d="M40.6602 46.7944H42.0364V48.5912H40.6602V46.7944Z" fill="white"/>
<path fill-rule="evenodd" clip-rule="evenodd" d="M42.3906 30.5908H43.7668V32.3876H42.3906V30.5908Z" fill="white"/>
<path fill-rule="evenodd" clip-rule="evenodd" d="M42.3906 32.6172H43.7668V34.414H42.3906V32.6172Z" fill="white"/>
<path fill-rule="evenodd" clip-rule="evenodd" d="M42.3906 34.6431H43.7668V36.4399H42.3906V34.6431Z" fill="white"/>
<path fill-rule="evenodd" clip-rule="evenodd" d="M42.3906 36.6675H43.7668V38.4643H42.3906V36.6675Z" fill="white"/>
<path fill-rule="evenodd" clip-rule="evenodd" d="M42.3906 38.6934H43.7668V40.4902H42.3906V38.6934Z" fill="white"/>
<path fill-rule="evenodd" clip-rule="evenodd" d="M42.3906 40.7178H43.7668V42.5146H42.3906V40.7178Z" fill="white"/>
<path fill-rule="evenodd" clip-rule="evenodd" d="M42.3906 42.7441H43.7668V44.5409H42.3906V42.7441Z" fill="white"/>
<path fill-rule="evenodd" clip-rule="evenodd" d="M42.3906 44.7686H43.7668V46.5654H42.3906V44.7686Z" fill="white"/>
<path fill-rule="evenodd" clip-rule="evenodd" d="M42.3906 46.7944H43.7668V48.5912H42.3906V46.7944Z" fill="white"/>
<path fill-rule="evenodd" clip-rule="evenodd" d="M44.125 30.5908H45.5012V32.3876H44.125V30.5908Z" fill="white"/>
<path fill-rule="evenodd" clip-rule="evenodd" d="M44.125 32.6172H45.5012V34.414H44.125V32.6172Z" fill="white"/>
<path fill-rule="evenodd" clip-rule="evenodd" d="M44.125 34.6431H45.5012V36.4399H44.125V34.6431Z" fill="white"/>
<path fill-rule="evenodd" clip-rule="evenodd" d="M44.125 36.6675H45.5012V38.4643H44.125V36.6675Z" fill="white"/>
<path fill-rule="evenodd" clip-rule="evenodd" d="M44.125 38.6934H45.5012V40.4902H44.125V38.6934Z" fill="white"/>
<path fill-rule="evenodd" clip-rule="evenodd" d="M44.125 40.7178H45.5012V42.5146H44.125V40.7178Z" fill="white"/>
<path fill-rule="evenodd" clip-rule="evenodd" d="M44.125 42.7441H45.5012V44.5409H44.125V42.7441Z" fill="white"/>
<path fill-rule="evenodd" clip-rule="evenodd" d="M44.125 44.7686H45.5012V46.5654H44.125V44.7686Z" fill="white"/>
<path fill-rule="evenodd" clip-rule="evenodd" d="M44.125 46.7944H45.5012V48.5912H44.125V46.7944Z" fill="white"/>
<path fill-rule="evenodd" clip-rule="evenodd" d="M45.8555 30.5908H47.2317V32.3876H45.8555V30.5908Z" fill="white"/>
<path fill-rule="evenodd" clip-rule="evenodd" d="M45.8555 32.6172H47.2317V34.414H45.8555V32.6172Z" fill="white"/>
<path fill-rule="evenodd" clip-rule="evenodd" d="M45.8555 34.6431H47.2317V36.4399H45.8555V34.6431Z" fill="white"/>
<path fill-rule="evenodd" clip-rule="evenodd" d="M45.8555 36.6675H47.2317V38.4643H45.8555V36.6675Z" fill="white"/>
<path fill-rule="evenodd" clip-rule="evenodd" d="M45.8555 38.6934H47.2317V40.4902H45.8555V38.6934Z" fill="white"/>
<path fill-rule="evenodd" clip-rule="evenodd" d="M45.8555 40.7178H47.2317V42.5146H45.8555V40.7178Z" fill="white"/>
<path fill-rule="evenodd" clip-rule="evenodd" d="M45.8555 42.7441H47.2317V44.5409H45.8555V42.7441Z" fill="white"/>
<path fill-rule="evenodd" clip-rule="evenodd" d="M45.8555 44.7686H47.2317V46.5654H45.8555V44.7686Z" fill="white"/>
<path fill-rule="evenodd" clip-rule="evenodd" d="M45.8555 46.7944H47.2317V48.5912H45.8555V46.7944Z" fill="white"/>
<path fill-rule="evenodd" clip-rule="evenodd" d="M47.5859 30.5908H48.9622V32.3876H47.5859V30.5908Z" fill="white"/>
<path fill-rule="evenodd" clip-rule="evenodd" d="M47.5859 32.6172H48.9622V34.414H47.5859V32.6172Z" fill="white"/>
<path fill-rule="evenodd" clip-rule="evenodd" d="M47.5859 34.6431H48.9622V36.4399H47.5859V34.6431Z" fill="white"/>
<path fill-rule="evenodd" clip-rule="evenodd" d="M47.5859 36.6675H48.9622V38.4643H47.5859V36.6675Z" fill="white"/>
<path fill-rule="evenodd" clip-rule="evenodd" d="M47.5859 38.6934H48.9622V40.4902H47.5859V38.6934Z" fill="white"/>
<path fill-rule="evenodd" clip-rule="evenodd" d="M47.5859 40.7178H48.9622V42.5146H47.5859V40.7178Z" fill="white"/>
<path fill-rule="evenodd" clip-rule="evenodd" d="M47.5859 42.7441H48.9622V44.5409H47.5859V42.7441Z" fill="white"/>
<path fill-rule="evenodd" clip-rule="evenodd" d="M47.5859 44.7686H48.9622V46.5654H47.5859V44.7686Z" fill="white"/>
<path fill-rule="evenodd" clip-rule="evenodd" d="M47.5859 46.7944H48.9622V48.5912H47.5859V46.7944Z" fill="white"/>
<path fill-rule="evenodd" clip-rule="evenodd" d="M49.3164 30.5908C49.8936 30.6038 50.2764 30.6657 50.5817 30.7645V32.5613C50.171 32.4585 49.8269 32.4087 49.3164 32.3876V30.5908Z" fill="white"/>
<path fill-rule="evenodd" clip-rule="evenodd" d="M49.3164 32.6172C49.8936 32.6302 50.2764 32.6921 50.5817 32.7908V34.5876C50.171 34.4849 49.8269 34.4351 49.3164 34.414V32.6172Z" fill="white"/>
<path fill-rule="evenodd" clip-rule="evenodd" d="M49.3164 34.6431C49.8936 34.656 50.2764 34.718 50.5817 34.8167V36.6135C50.171 36.5107 49.8269 36.461 49.3164 36.4399V34.6431Z" fill="white"/>
<path fill-rule="evenodd" clip-rule="evenodd" d="M49.3164 36.6675C49.8936 36.6804 50.2764 36.7424 50.5817 36.8411V38.6379C50.171 38.5351 49.8269 38.4854 49.3164 38.4643V36.6675Z" fill="white"/>
<path fill-rule="evenodd" clip-rule="evenodd" d="M49.3164 38.6934C49.8936 38.7063 50.2764 38.7683 50.5817 38.867V40.6638C50.171 40.561 49.8269 40.5113 49.3164 40.4902V38.6934Z" fill="white"/>
<path fill-rule="evenodd" clip-rule="evenodd" d="M49.3164 40.7178C49.8936 40.7307 50.2764 40.7927 50.5817 40.8914V42.6882C50.171 42.5854 49.8269 42.5357 49.3164 42.5146V40.7178Z" fill="white"/>
<path fill-rule="evenodd" clip-rule="evenodd" d="M49.3164 42.7441C49.8936 42.7571 50.2764 42.8191 50.5817 42.9178V44.7146C50.171 44.6117 49.8269 44.5621 49.3164 44.5409V42.7441Z" fill="white"/>
<path fill-rule="evenodd" clip-rule="evenodd" d="M49.3164 44.7686C49.8936 44.7815 50.2764 44.8435 50.5817 44.9422V46.739C50.171 46.6362 49.8269 46.5865 49.3164 46.5654V44.7686Z" fill="white"/>
<path fill-rule="evenodd" clip-rule="evenodd" d="M49.3164 46.7944C49.8936 46.8074 50.2764 46.8693 50.5817 46.9681V48.5365C50.2936 48.584 49.8269 48.6124 49.3164 48.5912V46.7944Z" fill="white"/>
<path fill-rule="evenodd" clip-rule="evenodd" d="M50.7578 30.8374C51.0765 30.9142 51.26 31.0244 51.3905 31.1039V32.9316C51.2394 32.8175 51.1463 32.7046 50.7578 32.6342V30.8374Z" fill="white"/>
<path fill-rule="evenodd" clip-rule="evenodd" d="M50.7578 32.8633C51.0765 32.9401 51.26 33.0503 51.3905 33.1298V34.9575C51.2394 34.8433 51.1463 34.7305 50.7578 34.6601V32.8633Z" fill="white"/>
<path fill-rule="evenodd" clip-rule="evenodd" d="M50.7578 34.8892C51.0765 34.9659 51.26 35.0761 51.3905 35.1557V36.9834C51.2394 36.8692 51.1463 36.7564 50.7578 36.686V34.8892Z" fill="white"/>
<path fill-rule="evenodd" clip-rule="evenodd" d="M50.7578 36.9141C51.0765 36.9908 51.26 37.1011 51.3905 37.1806V39.0083C51.2394 38.8941 51.1463 38.7813 50.7578 38.7109V36.9141Z" fill="white"/>
<path fill-rule="evenodd" clip-rule="evenodd" d="M50.7578 38.9395C51.0765 39.0162 51.26 39.1264 51.3905 39.206V41.0336C51.2394 40.9195 51.1463 40.8067 50.7578 40.7363V38.9395Z" fill="white"/>
<path fill-rule="evenodd" clip-rule="evenodd" d="M50.7578 40.9653C51.0765 41.0421 51.26 41.1523 51.3905 41.2319V43.0595C51.2394 42.9454 51.1463 42.8325 50.7578 42.7621V40.9653Z" fill="white"/>
<path fill-rule="evenodd" clip-rule="evenodd" d="M50.7578 42.9912C51.0765 43.068 51.26 43.1782 51.3905 43.2577V45.0854C51.2394 44.9713 51.1463 44.8584 50.7578 44.788V42.9912Z" fill="white"/>
<path fill-rule="evenodd" clip-rule="evenodd" d="M50.7578 45.0156C51.0765 45.0924 51.26 45.2026 51.3905 45.2821V47.1098C51.2394 46.9957 51.1463 46.8828 50.7578 46.8124V45.0156Z" fill="white"/>
<path fill-rule="evenodd" clip-rule="evenodd" d="M50.7578 47.0415C51.0765 47.1183 51.26 47.2285 51.3905 47.308V48.1822C51.2727 48.3361 50.9955 48.4451 50.7578 48.4958V47.0415Z" fill="white"/>
<path fill-rule="evenodd" clip-rule="evenodd" d="M33.3711 27.3994H49.1308C50.2629 27.3994 51.2839 27.5965 51.6612 28.1001V29.119C51.247 28.6681 50.0349 28.4183 49.153 28.4183H33.3711V27.3994Z" fill="white"/>
<path fill-rule="evenodd" clip-rule="evenodd" d="M33.3711 49.85H49.1308C50.2629 49.85 51.2839 49.6529 51.6612 49.1492V48.2632C51.247 48.7141 50.0347 48.8311 49.153 48.8311H33.3711V49.85Z" fill="white"/>
<path fill-rule="evenodd" clip-rule="evenodd" d="M1.57033 40.4736C2.43763 40.4736 3.14072 41.1767 3.14072 42.044C3.14072 42.9112 2.43763 43.6143 1.57033 43.6143C0.703095 43.6143 0 42.9112 0 42.044C0 41.1767 0.703095 40.4736 1.57033 40.4736Z" fill="white"/>
<path fill-rule="evenodd" clip-rule="evenodd" d="M39.4464 17.4414C39.9627 17.4414 40.3811 17.8599 40.3811 18.3761C40.3811 18.8923 39.9627 19.3108 39.4464 19.3108C38.9303 19.3108 38.5117 18.8923 38.5117 18.3761C38.5117 17.8599 38.9303 17.4414 39.4464 17.4414Z" fill="white"/>
<path fill-rule="evenodd" clip-rule="evenodd" d="M59.9014 39.2769C60.6861 39.2769 61.3223 39.9131 61.3223 40.6977C61.3223 41.4825 60.6861 42.1187 59.9014 42.1187C59.1167 42.1187 58.4805 41.4825 58.4805 40.6977C58.4805 39.9131 59.1167 39.2769 59.9014 39.2769Z" fill="white"/>
<path fill-rule="evenodd" clip-rule="evenodd" d="M61.799 28.1924C62.32 28.1924 62.7424 28.6148 62.7424 29.1358C62.7424 29.6569 62.32 30.0793 61.799 30.0793C61.2779 30.0793 60.8555 29.6569 60.8555 29.1358C60.8555 28.6148 61.2779 28.1924 61.799 28.1924Z" fill="white"/>
<path fill-rule="evenodd" clip-rule="evenodd" d="M85.1283 38.7065C85.6091 38.7065 85.9989 39.0963 85.9989 39.5771C85.9989 40.0579 85.6091 40.4476 85.1283 40.4476C84.6476 40.4476 84.2578 40.0579 84.2578 39.5771C84.2578 39.0963 84.6476 38.7065 85.1283 38.7065Z" fill="white"/>
<path fill-rule="evenodd" clip-rule="evenodd" d="M1.74812 32.127C2.26916 32.127 2.69161 32.5493 2.69161 33.0704C2.69161 33.5914 2.26916 34.0139 1.74812 34.0139C1.22707 34.0139 0.804688 33.5914 0.804688 33.0704C0.804688 32.5493 1.22707 32.127 1.74812 32.127Z" fill="white"/>
<path fill-rule="evenodd" clip-rule="evenodd" d="M24.9418 36.9752C24.8772 36.823 24.8372 36.6672 24.8137 36.5118C21.5005 36.2472 18.1957 35.9836 14.9073 35.7207C14.475 36.4143 14.0425 37.1074 13.6101 37.796C13.7564 37.9735 13.8529 38.2025 13.8509 38.4457C13.8488 38.7174 13.7317 38.9665 13.5497 39.1409C13.3677 39.3155 13.1205 39.4196 12.8497 39.4138C12.5705 39.408 12.3253 39.2933 12.1463 39.1112C12.0079 38.9665 11.9029 38.7779 11.8717 38.5626C10.381 38.1995 8.88224 37.8328 7.3917 37.4628C7.22551 37.6898 7.04346 37.8396 6.63321 37.8313C6.22289 37.8229 5.71867 37.3259 5.72265 36.892C5.72663 36.4581 5.93397 36.226 6.23888 36.0824C5.44566 33.1323 4.64473 30.1885 3.84445 27.2393C3.36937 27.2 2.98024 26.7508 2.98441 26.3116C2.98858 25.8723 3.24548 25.5896 3.59898 25.4655C3.59898 25.4655 3.59898 25.4655 3.59911 25.4614C3.60726 25.4615 3.60726 25.4615 3.60726 25.4615C3.79637 25.3916 4.00127 25.3944 4.18101 25.4534C6.17295 22.7473 8.16162 20.0259 10.1446 17.3095C12.1307 14.5888 14.1358 11.8568 16.1214 9.12561C16.0809 9.06457 16.0325 8.99133 16.0003 8.91397C15.8078 8.45442 16.0246 7.91964 16.4842 7.71872C16.8616 7.56196 17.2778 7.66923 17.5292 7.95065C21.9863 5.70207 26.4656 3.43859 30.9588 1.16819C30.8633 0.742657 31.0785 0.296846 31.5045 0.116851C31.9795 -0.083556 32.5257 0.129302 32.7272 0.596106C32.7432 0.632953 32.7594 0.673909 32.7673 0.714927C38.2583 0.676284 43.7982 0.637512 49.3628 0.59431C49.4534 0.371372 49.634 0.1813 49.8714 0.0779506C50.3624 -0.128683 50.9171 0.0905324 51.1195 0.557914C51.1763 0.690149 51.2003 0.82245 51.1997 0.954813C55.9898 2.90221 60.7981 4.85948 65.6251 6.82254C65.7152 6.73954 65.6376 6.73921 65.9444 6.61115C66.2512 6.48302 67.0073 6.63163 67.2108 7.09952C67.3167 7.31264 67.3163 7.54207 67.2586 7.74202C69.1034 9.5367 70.9651 11.3352 72.8118 13.1364C74.6667 14.9458 76.5313 16.7543 78.3963 18.5706C78.8876 18.3908 79.4565 18.6649 79.6486 19.0866C79.8407 19.5083 79.7219 19.8725 79.4269 20.1338C80.1383 22.0059 80.8474 23.8847 81.5457 25.754C82.247 27.6309 82.9624 29.516 83.6588 31.3947C83.6752 31.3949 83.6835 31.395 83.6835 31.395C84.4459 31.4075 84.9388 32.2626 84.4868 32.8772C84.2664 33.177 83.8555 33.3502 83.4781 33.2636C82.5674 35.3333 81.6643 37.4054 80.7443 39.4753C80.9905 39.6146 81.183 39.8223 81.294 40.079C81.4782 40.505 81.423 40.9628 81.1704 41.3076C80.9139 41.6577 80.4393 41.8728 79.9799 41.8363C79.4954 41.7978 79.0398 41.5073 78.8312 41.0432C78.6874 40.7233 78.7003 40.3773 78.8154 40.0734C78.7334 40.0465 73.7126 38.4599 66.2174 36.0781C66.0775 36.2756 66.0896 36.3613 65.6339 36.5422C65.1782 36.7231 64.19 36.4937 63.9045 35.8428C63.6189 35.1921 64.1212 34.3789 64.5974 34.1896C65.0736 34.0004 65.18 34.0668 65.4422 34.1382C65.8896 32.0828 66.3203 30.0222 66.7509 27.9648C64.0353 25.6011 61.3375 23.2484 58.633 20.8981C58.6002 20.9186 58.5592 20.9388 58.5182 20.955C58.3377 21.0319 58.1412 21.0255 57.9776 20.9615C57.8058 20.8932 57.6588 20.7629 57.5774 20.5877C57.5287 20.4668 57.5127 20.3421 57.5295 20.2219C54.5607 19.0631 51.6093 17.9037 48.6585 16.748C48.4692 16.9941 48.5385 17.067 47.9029 17.3274C47.2672 17.5877 45.8482 17.2836 45.4431 16.3562C45.3134 16.0541 45.274 15.7362 45.3081 15.4314C45.3078 15.5015 45.2993 15.5674 45.2908 15.6333C43.3274 15.4356 41.364 15.2383 39.4089 15.0374C35.3865 17.1253 31.3785 19.2085 27.3851 21.2786C27.2802 23.4786 27.1587 25.6823 27.0542 27.8778C26.9491 30.0812 26.8362 32.2802 26.723 34.4831C27.4035 34.5286 27.9759 34.8045 28.3153 35.5998C28.6547 36.395 28.2786 37.5916 27.3478 37.9666C26.9375 38.132 26.5103 38.1385 26.1164 38.0191C25.6014 37.8629 25.1518 37.4691 24.9418 36.9752ZM13.3329 37.5674C13.7239 36.9429 14.1147 36.3179 14.4972 35.6886C13.9069 35.6447 13.3082 35.5967 12.7178 35.5488C12.6003 35.8667 12.36 36.1416 12.0224 36.2808C11.6766 36.4199 11.2337 36.391 10.9153 36.2025C10.7192 36.0852 10.5566 35.92 10.4435 35.7155C9.48038 36.0611 8.52539 36.4103 7.55391 36.7549C7.56162 36.8116 7.56926 36.8704 7.56887 36.929C7.56836 36.9876 7.55969 37.0378 7.55096 37.0862C7.7721 37.1351 7.98509 37.1799 8.19808 37.2246C8.19802 37.2408 8.19789 37.2529 8.19776 37.265C9.43435 37.565 10.6629 37.8695 11.8916 38.1701C11.9341 37.9967 12.0339 37.8367 12.158 37.7137C12.34 37.5392 12.5871 37.4307 12.8662 37.4364C13.0303 37.4398 13.2023 37.4877 13.3329 37.5674ZM6.6499 35.9896C6.61716 35.9889 6.60073 35.9886 6.56799 35.9879C5.78267 33.0575 4.9897 30.1255 4.19732 27.1961C4.55904 27.0804 4.82633 26.5558 4.82839 26.3379C4.83038 26.1201 4.82896 26.2733 4.82929 26.2411C6.7225 25.3593 8.61526 24.4756 10.516 23.5863C10.5802 23.7409 10.6938 23.8679 10.8159 23.9585C10.1429 25.965 9.46979 27.9782 8.79584 29.9816C8.12227 31.9838 7.43953 33.9965 6.7648 35.9958C6.72385 35.991 6.6827 35.9903 6.6499 35.9896ZM7.43375 36.4333C7.34478 36.2981 7.23077 36.1868 7.09212 36.1113C7.76645 34.1198 8.44548 32.1219 9.11429 30.1325C9.78439 28.1396 10.461 26.1394 11.1257 24.1447C11.1385 27.4123 11.1515 30.6881 11.148 33.9598C11.1232 33.9713 11.0903 33.9829 11.0492 33.9943C10.4893 34.2269 10.1888 34.8163 10.3232 35.3894C9.36021 35.7391 8.39695 36.0884 7.43375 36.4333ZM4.73409 25.9089C4.72607 25.8926 4.70976 25.8762 4.70174 25.8599C7.38817 23.3481 10.0813 20.821 12.7727 18.2906C12.2863 19.6348 11.7918 20.9741 11.2971 22.3128C11.1987 22.3155 11.092 22.3386 10.9934 22.3818C10.6317 22.5272 10.4238 22.8768 10.4371 23.2412C8.52822 24.1349 6.62718 25.0228 4.73409 25.9089ZM12.8629 37.8254C12.6988 37.8219 12.5423 37.8918 12.4348 37.9949C12.3189 38.1019 12.2602 38.2505 12.2589 38.4126C12.2574 38.5787 12.3136 38.7339 12.4276 38.8416C12.4276 38.8456 12.4276 38.8456 12.4276 38.8456C12.5333 38.9534 12.6888 39.0213 12.853 39.0248C13.0171 39.0283 13.1653 38.9666 13.273 38.8635C13.3887 38.7564 13.4557 38.6037 13.457 38.4375C13.4584 38.2754 13.3939 38.1241 13.28 38.0123C13.1742 37.9047 13.0188 37.8285 12.8629 37.8254ZM83.2899 31.4643C82.5935 29.6029 81.8935 27.7407 81.2014 25.8836C80.5103 24.0289 79.8024 22.1783 79.1074 20.3278C79.0256 20.3564 78.9518 20.3765 78.8699 20.3839C78.7127 22.6273 78.5555 24.8703 78.3982 27.1128C78.6768 27.1881 78.9143 27.3846 79.0371 27.6592C79.1599 27.9338 79.1432 28.2273 79.0038 28.4686C80.3474 29.5177 81.6996 30.5639 83.0439 31.6116C83.1095 31.5538 83.1997 31.5007 83.2899 31.4643ZM15.7429 14.4849C16.0264 12.7984 16.3019 11.1117 16.577 9.42841C16.5281 9.41185 16.4791 9.39535 16.4301 9.37083C15.4935 11.9264 14.548 14.4835 13.6101 17.0422C14.1712 16.5203 14.7239 15.9979 15.2765 15.4753C15.2685 15.4549 15.2523 15.4345 15.2443 15.4141C15.1802 15.2432 15.1817 15.0565 15.2403 14.8988C15.2403 14.8988 15.2403 14.8988 15.2404 14.8947C15.3071 14.737 15.4391 14.6001 15.6116 14.5285C15.6608 14.5086 15.7101 14.4968 15.7429 14.4849ZM16.9202 9.46262C16.6452 11.1422 16.3699 12.8254 16.0946 14.512C16.1109 14.5162 16.119 14.5203 16.1273 14.5245C16.1598 14.5369 16.1925 14.5533 16.2251 14.5698C18.0152 12.7556 19.8128 10.9419 21.6096 9.12459C20.3015 9.04082 19.0017 8.95307 17.7019 8.86545C17.6265 9.09666 17.4369 9.29065 17.1988 9.39503C17.1086 9.4311 17.0185 9.45505 16.9202 9.46262ZM15.9855 14.8399C15.9529 14.8356 15.912 14.8312 15.8711 14.8227C15.8302 14.8224 15.781 14.8302 15.7399 14.8461C15.666 14.882 15.6 14.9505 15.5666 15.0272C15.5333 15.1041 15.5326 15.1933 15.5646 15.2789C15.6049 15.3603 15.6698 15.4217 15.7432 15.4549C15.8249 15.4881 15.9231 15.4888 16.0052 15.453C16.0873 15.4172 16.1534 15.3527 16.1868 15.2758C16.2201 15.195 16.2208 15.1057 16.1805 15.0242C16.1403 14.9386 16.0753 14.8772 16.0019 14.8441C16.0019 14.8441 15.9937 14.844 15.9855 14.8399ZM69.0294 14.2958C68.2148 12.3198 67.3925 10.3456 66.5622 8.36879C66.1121 8.48344 65.6301 8.26037 65.4348 7.83035C65.4022 7.75107 65.3779 7.67173 65.3699 7.59675C62.3366 7.44289 59.3196 7.28973 56.3028 7.13265C56.4658 7.3034 56.6124 7.47396 56.7591 7.6363C56.8982 7.61203 57.0453 7.62096 57.176 7.67128C57.3394 7.73426 57.4862 7.86347 57.5592 8.03801C57.6323 8.19188 57.64 8.35377 57.5987 8.50302C61.1832 10.5941 64.7696 12.6889 68.382 14.7917C68.5133 14.5924 68.71 14.4269 68.9639 14.3245C68.9885 14.3164 69.0049 14.3039 69.0294 14.2958ZM66.8977 8.22012C67.7361 10.2223 68.575 12.2262 69.3979 14.2276C69.938 14.1982 70.4898 14.5261 70.6978 14.9978C70.9057 15.4695 70.8108 15.9139 70.532 16.2668C72.9863 17.1623 75.4412 18.06 77.913 18.9559C77.9539 18.885 78.0113 18.8185 78.0687 18.7646C76.2364 16.9737 74.3882 15.1824 72.5577 13.3981C70.7356 11.6221 68.8983 9.84033 67.0698 8.06664C67.0206 8.12473 66.9633 8.17461 66.8977 8.22012ZM19.5659 23.0151C18.5817 21.015 17.598 19.0171 16.6067 17.0254C15.0607 18.8651 13.506 20.7058 11.9505 22.5395C12.0481 22.6256 12.0567 22.571 12.1852 22.8705C12.3138 23.17 12.1686 23.8667 11.7 24.0592C11.6259 24.0905 11.552 24.1139 11.4701 24.1209C11.483 27.3769 11.4963 30.6412 11.5013 33.9013C11.6817 33.9007 11.8619 33.9364 12.0336 34.0124C14.4781 31.0233 16.9292 28.0224 19.3785 25.0176C19.2401 24.8978 19.1266 24.7458 19.046 24.5658C18.9655 24.3696 18.9343 24.1659 18.9524 23.9669C16.7253 23.743 14.4986 23.5198 12.28 23.297C12.2974 23.1838 12.3066 23.0704 12.3157 22.9571C14.5505 23.1837 16.7854 23.4069 19.0368 23.6306C19.137 23.3756 19.319 23.1543 19.5659 23.0151ZM16.4375 16.6868C16.2924 16.3973 16.1556 16.1078 16.0023 15.8142C15.8712 15.8374 15.7322 15.824 15.618 15.7744C15.5853 15.762 15.5445 15.7453 15.5119 15.7248C14.7943 16.4082 14.0682 17.087 13.342 17.7613C12.7806 19.2957 12.2191 20.8251 11.6572 22.3535C13.2458 20.4678 14.8419 18.5789 16.4375 16.6868ZM16.3146 15.6627C16.4436 15.9074 16.5645 16.152 16.6854 16.3967C18.5938 14.1334 20.5093 11.8696 22.4158 9.6052C22.3678 9.4623 22.3606 9.31569 22.3943 9.17742C22.2799 9.17273 22.1736 9.16407 22.0592 9.15534C20.1965 11.0417 18.3247 12.9283 16.4687 14.8154C16.4849 14.8399 16.4928 14.8643 16.5008 14.8888C16.5731 15.0599 16.5634 15.2425 16.5049 15.4044C16.4632 15.5015 16.4052 15.5904 16.3146 15.6627ZM16.8464 16.7353C17.8701 18.7802 18.878 20.8314 19.8945 22.8848C20.0997 22.8345 20.3127 22.8371 20.509 22.8884C20.9015 20.7688 21.3029 18.6443 21.7026 16.5269C22.1033 14.405 22.5027 12.2817 22.9026 10.1577C22.7884 10.1041 22.6826 10.0261 22.6015 9.92789C20.6787 12.2003 18.7631 14.4681 16.8464 16.7353ZM56.4233 7.80095C56.2196 7.57198 56.016 7.3389 55.8041 7.10588C55.3381 7.08335 54.8558 7.06088 54.3734 7.03418C54.3402 7.179 54.2906 7.31964 54.2085 7.44776C54.9357 7.58327 55.6549 7.7148 56.374 7.85044C56.3904 7.83394 56.407 7.81745 56.4233 7.80095ZM55.4783 6.74397C53.9472 5.02792 52.4166 3.31444 50.8949 1.60392C50.8703 1.62459 50.8538 1.64109 50.8293 1.65759C51.5026 2.95702 52.1679 4.25338 52.8416 5.55057C53.4225 5.42809 54.1443 5.94388 54.2943 6.28814C54.4443 6.6324 54.3915 6.5537 54.3992 6.68619C54.767 6.70828 55.1186 6.72612 55.4783 6.74397ZM51.1084 1.31878C52.7361 3.13297 54.3562 4.94614 55.9852 6.76239C59.1081 6.92338 62.2475 7.08483 65.3871 7.24255C65.3953 7.20095 65.4117 7.16352 65.4282 7.1261C60.642 5.17081 55.8742 3.23369 51.1167 1.30216C51.1167 1.31037 51.1166 1.31461 51.1084 1.31878ZM56.2094 8.17731C55.4493 8.03724 54.6894 7.89307 53.9212 7.74902C53.8309 7.82323 53.7326 7.88485 53.6179 7.93408C53.3559 8.04064 53.0859 8.06016 52.8327 8.00521C51.3118 10.071 49.7904 12.1292 48.2682 14.1841C48.5292 14.3718 48.7734 14.6939 48.8869 14.9447C49.0004 15.1955 49.0162 15.3216 49.0319 15.516C51.8639 15.4899 54.7124 15.4636 57.5525 15.4331C57.3547 13.2862 57.1569 11.1397 56.9511 8.99787C56.8447 9.00564 56.7384 8.98856 56.6485 8.95082C56.477 8.88355 56.3302 8.75433 56.2573 8.57979C56.2004 8.45102 56.1844 8.30993 56.2094 8.17731ZM51.9763 7.38916C48.2994 6.70147 44.6314 6.01218 40.972 5.32558C40.8977 5.46937 40.7745 5.58832 40.6188 5.65771C40.6107 5.66182 40.6024 5.66586 40.5861 5.66586C40.6876 6.59157 40.7893 7.51318 40.8909 8.43504C42.64 10.3286 44.3899 12.2258 46.1324 14.1265C46.2309 14.0696 46.3211 14.0167 46.4277 13.9762C46.936 13.7654 47.4924 13.7901 47.958 14.0041C49.4637 11.9658 50.9688 9.92436 52.4814 7.87952C52.2692 7.76693 52.09 7.60074 51.9763 7.38916ZM41.0391 4.9844C44.6248 5.65354 48.2193 6.32954 51.8305 7.00375C51.8226 6.92942 51.8147 6.85893 51.8151 6.78447C48.4165 6.0824 45.0348 5.3786 41.6619 4.67743C41.4572 4.76332 41.2442 4.84915 41.0312 4.93497C41.0393 4.95147 41.0393 4.9679 41.0391 4.9844ZM42.1321 13.8163C43.2185 14.2404 44.305 14.6649 45.3833 15.0899C45.4747 14.8102 45.6395 14.5558 45.8532 14.3471C44.2247 12.5709 42.5887 10.7936 40.9533 9.02355C41.102 10.3695 41.2425 11.7156 41.383 13.0578C41.4894 13.0504 41.5957 13.0716 41.6937 13.1094C41.8652 13.1723 42.0038 13.3009 42.0765 13.4743C42.125 13.5858 42.1409 13.7011 42.1321 13.8163ZM48.8562 16.4439C51.7824 17.5909 54.7257 18.7414 57.6697 19.8955C57.7437 19.805 57.8422 19.7314 57.9569 19.6828C57.8381 18.3823 57.7194 17.0821 57.5925 15.782C54.7357 15.8119 51.8791 15.8417 49.0305 15.8671C49.0051 16.0693 48.947 16.2629 48.8562 16.4439ZM44.7934 15.2375C43.8701 14.8716 42.9389 14.5059 42.0078 14.1405C41.9337 14.2388 41.8351 14.3203 41.7121 14.3729C41.5316 14.4456 41.3433 14.44 41.1719 14.377C41.0902 14.3433 41.0086 14.2934 40.9435 14.2312C40.6234 14.4015 40.2952 14.5717 39.9669 14.7418C41.5784 14.9068 43.1899 15.0721 44.7934 15.2375ZM77.3242 37.1823C75.4062 35.5071 73.4888 33.8351 71.5721 32.1706C69.8485 33.1522 68.1244 34.1364 66.3999 35.1101C66.4486 35.3321 66.4317 35.5527 66.3739 35.7559C70.0963 36.9374 73.8443 38.1234 77.5933 39.3139C77.6181 38.9328 77.6431 38.5517 77.6598 38.1661C77.4957 38.0958 77.3645 37.9673 77.2909 37.798C77.209 37.6204 77.2091 37.4318 77.2831 37.2612C77.2914 37.2319 77.3078 37.2072 77.3242 37.1823ZM71.2855 31.915C69.8772 30.6884 68.4693 29.4677 67.07 28.2448C66.656 30.2443 66.2337 32.2429 65.803 34.2364C65.7455 34.2271 65.6882 34.2135 65.6226 34.1997C65.893 34.313 66.114 34.5088 66.2694 34.7701C67.9445 33.8242 69.6111 32.8725 71.2855 31.915ZM58.8794 20.635C61.5185 22.9388 64.1755 25.2491 66.8336 27.5657C67.2143 25.7568 67.6032 23.9471 67.9833 22.141C68.3636 20.3342 68.7435 18.5224 69.1233 16.7098C68.8043 16.6235 68.5263 16.4248 68.3549 16.1396C65.2169 17.5044 62.0779 18.8647 58.9461 20.2205C58.9622 20.3453 58.9455 20.4696 58.9042 20.5813C58.8959 20.602 58.8877 20.6185 58.8794 20.635ZM67.1528 27.8414C68.6421 29.1364 70.1318 30.4293 71.6137 31.7281C73.5092 30.6507 75.4043 29.5754 77.2989 28.4894C77.2744 28.4511 77.3438 28.6073 77.2416 28.3752C77.1394 28.1431 77.2014 27.4774 77.5868 27.2313C75.042 23.7019 72.4992 20.1861 69.9584 16.6754C69.811 16.7326 69.6471 16.7604 69.4916 16.7589C69.1036 18.6094 68.7073 20.459 68.327 22.3036C67.9469 24.1477 67.5416 25.9991 67.1528 27.8414ZM71.9005 31.9796C73.7925 33.627 75.6854 35.2735 77.5788 36.9273C77.6034 36.911 77.6362 36.899 77.669 36.8872C77.8496 36.811 78.0546 36.819 78.227 36.8894C78.2597 36.9026 78.2925 36.9202 78.3253 36.9376C78.5881 36.7034 78.8508 36.4609 79.1052 36.2224C78.7213 33.7937 78.3295 31.3661 77.9379 28.9392C77.7985 28.9079 77.6592 28.8471 77.5527 28.7657C75.6664 29.8391 73.7877 30.9104 71.9005 31.9796ZM79.6201 39.3471C79.4731 38.4542 79.3259 37.5572 79.1787 36.6601C78.9817 36.841 78.7847 37.0177 78.5877 37.1945C78.5958 37.2197 78.6123 37.241 78.6205 37.2663C78.7106 37.4443 78.7022 37.6414 78.6283 37.8037C78.5625 37.9701 78.4311 38.1101 78.2506 38.1821C78.1685 38.2099 78.1028 38.2253 78.029 38.2322C78.0122 38.6345 77.9873 39.0325 77.9543 39.4305C78.307 39.5425 78.6516 39.6504 79.0044 39.7584C79.144 39.5975 79.4109 39.4267 79.5299 39.3789C79.649 39.3311 79.5956 39.355 79.6201 39.3471ZM78.3066 28.9492C78.6904 31.2754 79.066 33.5985 79.4417 35.9264C80.5824 34.8976 81.7148 33.8676 82.8469 32.8406C82.6583 32.5513 82.642 32.1853 82.7978 31.8894C81.4617 30.8375 80.1177 29.7913 78.774 28.7465C78.7085 28.8041 78.6265 28.8532 78.528 28.8896C78.4543 28.9177 78.3886 28.9378 78.3066 28.9492ZM79.5071 36.3601C79.6705 37.3329 79.8341 38.306 79.9813 39.2833C80.1208 39.2777 80.2685 39.2932 80.408 39.3296C81.3197 37.26 82.231 35.1926 83.1338 33.1231C83.1255 33.1145 83.1174 33.1102 83.1092 33.1016C81.9115 34.1905 80.7136 35.274 79.5071 36.3601ZM78.0213 27.0823C78.1868 24.8403 78.3442 22.5978 78.5014 20.3549C78.2148 20.2805 77.9775 20.0892 77.8468 19.8152C77.7733 19.6425 77.7488 19.4577 77.7816 19.286C75.2935 18.3811 72.8058 17.4786 70.3268 16.5742C72.8432 20.056 75.3698 23.5469 77.8983 27.0513C77.8491 27.0841 77.7999 27.1169 77.7507 27.1498C77.841 27.1134 77.931 27.0936 78.0213 27.0823ZM57.9209 15.4278C61.3257 15.4017 64.7388 15.3672 68.16 15.3325C68.168 15.4494 68.1678 15.5621 68.1676 15.6789C64.7544 15.7131 61.3494 15.7471 57.9525 15.7808C58.0715 17.0688 58.1903 18.3526 58.3174 19.6367C58.3829 19.6415 58.4484 19.6588 58.5056 19.6802C58.5056 19.6844 58.5056 19.6844 58.5056 19.6844C58.612 19.727 58.7181 19.7986 58.7915 19.8991C61.9233 18.543 65.0622 17.1822 68.2164 15.817C68.1431 15.5786 68.1436 15.3366 68.2259 15.1118C64.6052 13.0002 60.9943 10.8965 57.4015 8.80498C57.3768 8.83393 57.344 8.8587 57.3113 8.87925C57.5172 11.0589 57.723 13.2431 57.9209 15.4278ZM52.4978 5.67369C51.8323 4.38497 51.167 3.10133 50.51 1.81441C50.1418 1.91731 49.742 1.78873 49.5061 1.5034C47.0831 2.48348 44.6595 3.4651 42.2435 4.44024C45.4449 5.10354 48.6549 5.77338 51.8654 6.4413C51.9565 6.12297 52.1783 5.83828 52.4978 5.67369ZM26.6393 12.8032C25.7046 11.8991 24.7699 10.9918 23.8274 10.0853C23.77 10.1177 23.7288 10.148 23.6632 10.1741C23.5977 10.2002 23.5156 10.2223 23.4419 10.234C23.3292 13.4281 23.2245 16.6302 23.1114 19.8278C24.3443 18.0429 25.5765 16.2597 26.8082 14.466C26.6698 14.3506 26.5563 14.2028 26.492 14.0308C26.3066 13.609 26.3833 13.1443 26.6393 12.8032ZM24.0746 9.83795C25.0089 10.7485 25.9517 11.6518 26.8865 12.5599C26.9688 12.4993 26.9074 12.509 27.1576 12.4066C27.4078 12.3042 27.9847 12.2937 28.3352 12.5044C30.1739 10.2716 32.0281 8.03429 33.865 5.79264C32.7443 5.89143 31.6155 5.99009 30.4866 6.08452C28.3709 7.03771 26.2466 7.98858 24.1301 8.94145C24.1381 8.95377 24.1462 8.96597 24.1461 8.9783C24.2749 9.27236 24.2399 9.59024 24.0746 9.83795ZM20.8845 23.0559C21.5138 22.1598 22.1347 21.2632 22.7473 20.3617C22.8594 17.3032 22.955 14.2445 23.0588 11.1853C22.6928 13.1588 22.3181 15.1395 21.952 17.1074C21.5854 19.0786 21.2107 21.0531 20.8438 23.0228C20.8519 23.0351 20.8683 23.0475 20.8845 23.0559ZM27.0934 14.6601C25.7625 16.6042 24.4227 18.5412 23.0905 20.4755C23.0697 21.0987 23.0488 21.7218 23.028 22.3411C23.0934 22.35 23.1589 22.3711 23.216 22.3922C23.2813 22.4216 23.3467 22.4549 23.4037 22.4963C24.658 21.1902 25.9119 19.8782 27.1655 18.5645C27.2314 17.2953 27.2971 16.0257 27.3546 14.752C27.2648 14.7309 27.175 14.7016 27.0934 14.6601ZM22.7263 21.0133C22.2047 21.7732 21.6831 22.5324 21.1613 23.2913C21.2344 23.3859 21.2993 23.4925 21.3556 23.6154C21.557 24.0862 21.4384 24.6138 21.0999 24.9594C21.1805 25.1316 21.2694 25.3037 21.3501 25.4716C21.665 25.0038 21.9798 24.5356 22.2864 24.0631C22.1478 23.9635 22.0341 23.8235 21.9535 23.6516C21.8487 23.41 21.8507 23.1412 21.9507 22.9144C22.0425 22.6875 22.224 22.4983 22.4705 22.3953C22.5363 22.3677 22.602 22.3481 22.6758 22.3368C22.6954 21.897 22.7149 21.4573 22.7263 21.0133ZM19.6721 25.2086C17.2228 28.2096 14.7719 31.2069 12.3272 34.1962C12.4821 34.3206 12.6038 34.487 12.6843 34.6688C12.7648 34.8506 12.7797 35.0273 12.7781 35.2055C13.4259 35.2584 14.0738 35.3073 14.7215 35.3604C16.8553 32.1802 18.9876 28.997 21.1264 25.8064C21.0213 25.5974 20.9164 25.3844 20.8196 25.1713C20.7785 25.1952 20.7373 25.215 20.6882 25.2307C20.351 25.3725 19.9825 25.3512 19.6721 25.2086ZM25.498 34.8482C24.0991 31.9515 22.701 29.0591 21.2957 26.1712C19.2398 29.249 17.1823 32.324 15.1232 35.3922C18.3459 35.6491 21.5686 35.9025 24.7998 36.1567C24.8279 35.6473 25.0775 35.1626 25.498 34.8482ZM21.5196 25.8365C22.9491 28.7738 24.3713 31.7197 25.8029 34.6661C25.844 34.6464 25.8276 34.6521 25.918 34.6152C26.0085 34.5782 26.2141 34.5146 26.37 34.497C26.4749 32.3231 26.5964 30.1532 26.701 27.9828C26.8057 25.8123 26.9187 23.6414 27.0151 21.4663C25.9547 22.0253 24.8777 22.5795 23.8089 23.1331C23.8403 23.3088 23.8145 23.4878 23.7478 23.646C23.6561 23.8731 23.4744 24.0663 23.228 24.1691C23.0307 24.252 22.8176 24.2614 22.6131 24.21C22.2485 24.755 21.8841 25.2959 21.5196 25.8365ZM27.0343 21.0622C27.0713 20.4094 27.1084 19.7564 27.1375 19.0993C25.9827 20.3156 24.8113 21.5305 23.6477 22.7439C23.6639 22.7644 23.6721 22.7809 23.6882 22.8014C24.8065 22.2238 25.9245 21.6454 27.0343 21.0622ZM27.7063 14.7875C27.6498 15.9186 27.5932 17.0454 27.5366 18.1762C28.806 16.8603 30.0669 15.5345 31.3275 14.2068C30.5178 14.1228 29.6919 14.0388 28.874 13.9549C28.8826 13.8978 28.8911 13.8406 28.8915 13.7834C28.8153 14.1753 28.4158 14.5767 28.1408 14.6889C27.8659 14.801 27.8538 14.7805 27.7063 14.7875ZM27.5085 18.7111C27.471 19.4336 27.4333 20.156 27.4041 20.8745C31.1756 18.9159 34.9618 16.9451 38.7626 14.9706C36.4313 14.7343 34.1002 14.4944 31.7691 14.2552C30.3522 15.7455 28.9264 17.2293 27.5085 18.7111ZM28.9089 13.6119C29.8167 13.7045 30.7245 13.7971 31.6323 13.8898C33.9789 11.4444 36.3161 8.99685 38.6602 6.53913C38.3268 6.18049 38.0018 5.8221 37.6685 5.45968C36.5643 5.55905 35.4601 5.65411 34.364 5.74912C32.4367 8.08108 30.5166 10.4084 28.5955 12.7269C28.6848 12.8256 28.7577 12.9364 28.8143 13.0636C28.8868 13.2398 28.9264 13.4281 28.9089 13.6119ZM32.0739 13.9341C34.4866 14.1818 36.8995 14.4302 39.3289 14.6751C39.8049 14.4281 40.289 14.181 40.7649 13.9337C40.7166 13.7811 40.7255 13.6249 40.7835 13.4855C40.8333 13.3625 40.9238 13.2521 41.0388 13.1747C40.8746 11.6434 40.7106 10.1122 40.5467 8.58146C39.9936 7.98692 39.4488 7.39269 38.896 6.79461C36.6259 9.18307 34.3465 11.5614 32.0739 13.9341ZM36.9293 3.11795C40.8642 2.4008 44.8148 1.67659 48.7811 0.949291C43.4208 0.987421 38.093 1.0253 32.7979 1.06304C32.7895 1.10393 32.7811 1.14488 32.7726 1.18584C33.7419 1.71106 34.695 2.24083 35.6563 2.76291C35.681 2.74654 35.5048 2.81811 35.7383 2.71797C35.9718 2.61777 36.6946 2.70706 36.9293 3.11795ZM49.3031 1.20991C45.2713 1.94497 41.2551 2.67702 37.2547 3.40592C38.716 3.71263 40.1694 4.01574 41.6311 4.31533C44.1863 3.2871 46.749 2.25194 49.3031 1.20991ZM35.3608 3.0044C34.4483 2.5028 33.5359 2.00172 32.6155 1.50102C32.5249 1.62382 32.4713 1.69751 32.2379 1.79553C32.0044 1.89355 31.5916 1.88496 31.3394 1.71279C29.8593 3.16295 28.3786 4.60663 26.8975 6.04812C28.0592 5.94985 29.229 5.84733 30.3907 5.74482C31.9892 5.02927 33.5876 4.31667 35.1694 3.59875C35.1542 3.38133 35.229 3.17245 35.3608 3.0044ZM37.3677 5.13859C37.1157 4.8711 36.8721 4.59951 36.6202 4.32393C36.5709 4.3525 36.6569 4.32412 36.4726 4.4016C36.2882 4.47901 35.8101 4.48197 35.5495 4.29677C35.2531 4.65695 34.965 5.01284 34.6687 5.37283C35.5684 5.29753 36.4681 5.21819 37.3677 5.13859ZM36.875 4.08231C37.1837 4.41964 37.5006 4.76121 37.8176 5.09879C38.431 5.04712 39.0444 4.99538 39.6578 4.94357C39.6663 4.88612 39.6748 4.83265 39.6995 4.77931C39.7658 4.61504 39.8891 4.47972 40.0612 4.40609C40.1021 4.38979 40.1349 4.37746 40.1758 4.36937C39.1307 4.15318 38.0855 3.93724 37.0323 3.71738C37.007 3.84872 36.9574 3.97171 36.875 4.08231ZM38.1102 5.42405C38.3784 5.71247 38.6466 5.99671 38.9068 6.28114C39.1945 5.98618 39.4741 5.69122 39.7536 5.39195C39.7374 5.36313 39.7212 5.3302 39.705 5.29721C39.705 5.29316 39.705 5.28905 39.697 5.28488C39.1734 5.3327 38.6418 5.3804 38.1102 5.42405ZM39.1425 6.54491C39.5898 7.02737 40.0288 7.5142 40.476 7.99314C40.3983 7.23202 40.3203 6.47096 40.2343 5.70174C40.1772 5.69333 40.1281 5.68088 40.0792 5.66008C40.0548 5.65187 40.0302 5.64359 40.0058 5.6312C39.7262 5.93855 39.4385 6.24179 39.1425 6.54491ZM41.0495 4.54834C40.9597 4.53172 40.8699 4.51496 40.7718 4.49416C40.8207 4.52716 40.8614 4.56844 40.8939 4.61376C40.9512 4.59334 41.0004 4.57299 41.0495 4.54834ZM25.1468 6.20142C25.5476 6.17009 25.9486 6.13472 26.3495 6.09935C27.4273 5.05347 28.4969 4.01042 29.5664 2.96203C28.08 4.02987 26.6096 5.09199 25.1226 6.16053C25.1307 6.16861 25.1306 6.17689 25.1306 6.18094C25.1387 6.18909 25.1469 6.19724 25.1468 6.20142ZM31.4458 5.65386C32.3537 5.57484 33.2699 5.49575 34.1779 5.41647C34.5565 4.96257 34.9353 4.50026 35.3057 4.04193C35.2814 4.01311 35.2653 3.97627 35.2491 3.94334C33.9869 4.51439 32.7164 5.08454 31.4458 5.65386ZM29.4395 6.17914C28.466 6.26574 27.4925 6.34816 26.5106 6.43045C25.8357 7.08912 25.1687 7.74735 24.4937 8.405C26.1424 7.66165 27.7911 6.92113 29.4395 6.17914ZM25.9626 6.4775C25.7007 6.50113 25.4389 6.52462 25.1771 6.54818C25.1686 6.6012 25.1601 6.64594 25.1353 6.69492C25.0686 6.85367 24.9368 6.99187 24.7728 7.0646C24.5925 7.13727 24.4126 7.13663 24.2413 7.0707C24.2087 7.05838 24.1842 7.04605 24.1598 7.02968C23.5749 7.62648 22.9737 8.22693 22.3805 8.82706C22.4296 8.83136 22.4787 8.8356 22.5277 8.83585C22.6187 8.69373 22.7012 8.59642 22.9391 8.49564C23.177 8.39492 23.5613 8.41302 23.8136 8.57716C24.5301 7.87509 25.2545 7.17662 25.9626 6.4775ZM24.8954 5.89066C26.8837 4.46817 28.8629 3.0467 30.8498 1.61406C26.8073 3.6555 22.7794 5.68813 18.7659 7.71204C20.4536 7.2921 22.133 6.86708 23.8124 6.44143C23.813 6.35586 23.83 6.27029 23.8632 6.19294C23.9297 6.03419 24.0615 5.89605 24.2337 5.82326C24.4059 5.75034 24.5939 5.75098 24.757 5.81671C24.8059 5.83725 24.8549 5.8619 24.8954 5.89066ZM23.9 6.77189C21.8438 7.29351 19.7874 7.81 17.7307 8.32938C17.7466 8.39434 17.7541 8.4595 17.7537 8.52439C19.1515 8.61632 20.5412 8.7083 21.9309 8.79638C22.59 8.12743 23.249 7.46208 23.908 6.78819C23.908 6.78408 23.9081 6.78004 23.9 6.77189ZM13.0407 17.5678C13.9452 15.1316 14.8408 12.6849 15.7361 10.2438C13.8744 12.7956 12.0013 15.349 10.1478 17.8922C8.29706 20.4314 6.42471 22.9765 4.56571 25.5072C7.39247 22.8714 10.2174 20.2238 13.0407 17.5678ZM22.2774 23.0488C22.2108 23.1905 22.2096 23.3616 22.2821 23.5173C22.3466 23.6729 22.4768 23.7885 22.6158 23.8474C22.7627 23.9063 22.9348 23.9126 23.0909 23.8453C23.2471 23.7822 23.3626 23.6614 23.4211 23.5155C23.4876 23.3654 23.4888 23.1984 23.4162 23.0426C23.3518 22.887 23.2297 22.7712 23.0827 22.7124C22.9356 22.6536 22.7636 22.6515 22.6075 22.7148C22.4514 22.7821 22.3357 22.9029 22.2774 23.0488ZM24.1893 6.32453C24.1561 6.40189 24.1555 6.4915 24.1876 6.57719C24.2278 6.65486 24.2929 6.7163 24.3744 6.74916C24.4559 6.78209 24.5459 6.78242 24.6278 6.74602C24.7181 6.70962 24.7839 6.6446 24.809 6.56724C24.8423 6.48983 24.8511 6.40015 24.8108 6.31439C24.7705 6.23274 24.7055 6.17137 24.624 6.13844C24.5424 6.10558 24.4606 6.10519 24.3705 6.14159C24.2803 6.17798 24.2226 6.24314 24.1894 6.32049C24.1893 6.32453 24.1893 6.32453 24.1893 6.32453ZM41.1184 13.6155C41.0853 13.6975 41.0848 13.788 41.1171 13.8706C41.1576 13.9572 41.2227 14.0195 41.3045 14.0529C41.3861 14.0823 41.4844 14.0831 41.5663 14.0507C41.6565 14.0145 41.7223 13.945 41.7472 13.867C41.7803 13.789 41.789 13.6986 41.7485 13.6118C41.708 13.5251 41.6429 13.4629 41.5612 13.4335C41.4795 13.4 41.3895 13.3993 41.2992 13.4357C41.2092 13.4722 41.1515 13.5375 41.1184 13.6155ZM40.0258 4.90763C39.9928 4.98562 39.9922 5.07607 40.0246 5.15836C40.0649 5.24483 40.1301 5.30671 40.2117 5.33572C40.2933 5.36891 40.3832 5.3691 40.4733 5.33238C40.5634 5.29977 40.6209 5.23006 40.6541 5.15194C40.6872 5.07395 40.6876 4.9835 40.6553 4.90108C40.615 4.81455 40.5498 4.75273 40.4682 4.72378C40.3867 4.69066 40.2967 4.6904 40.2066 4.72718C40.1165 4.7639 40.0589 4.82963 40.0258 4.90763ZM56.5857 8.18315C56.5527 8.26178 56.5524 8.35717 56.5931 8.44036C56.6336 8.52767 56.6988 8.59019 56.7805 8.61959C56.8622 8.65316 56.9521 8.65361 57.0504 8.62081C57.1404 8.58384 57.1979 8.51361 57.2309 8.43497C57.2639 8.35627 57.2641 8.26082 57.2317 8.17763C57.1911 8.09039 57.1258 8.02787 57.0441 7.99847C56.9543 7.9649 56.8562 7.96451 56.7743 8.00149C56.6843 8.03833 56.6186 8.10451 56.5857 8.18315ZM57.9144 20.1929C57.8814 20.2713 57.8812 20.3627 57.9219 20.4503C57.9543 20.5378 58.0278 20.6009 58.1097 20.6309C58.1914 20.665 58.2815 20.666 58.3799 20.6296C58.4619 20.5931 58.5276 20.5274 58.5607 20.449C58.5937 20.3704 58.5939 20.2749 58.5532 20.1914C58.5207 20.1038 58.4472 20.0408 58.3735 20.0108C58.3735 20.0108 58.3735 20.0108 58.3737 20.0068C58.2837 19.9768 58.1853 19.9758 58.1034 20.0122C58.0131 20.0444 57.9474 20.1143 57.9144 20.1929ZM77.6276 37.3979C77.5947 37.4854 77.5946 37.5777 77.6274 37.6622C77.6683 37.7511 77.7421 37.8153 77.8241 37.8506C77.9062 37.8816 78.0128 37.8836 78.0949 37.8517C78.1852 37.8159 78.2509 37.7457 78.2838 37.6666C78.3167 37.5876 78.3167 37.4912 78.2839 37.4024C78.243 37.3135 78.1692 37.2493 78.0872 37.2182C78.0053 37.183 77.9068 37.1812 77.8165 37.217C77.718 37.253 77.6605 37.3189 77.6276 37.3979Z" fill="white"/>
<path d="M6.58962 69.9864C6.75997 70.0312 6.94342 70.0696 7.13997 70.1016C7.33652 70.1272 7.55273 70.14 7.78859 70.14C8.18824 70.14 8.54204 70.0856 8.84997 69.9768C9.1579 69.868 9.41342 69.7208 9.61652 69.5352C9.82618 69.3432 9.98342 69.1256 10.0882 68.8825C10.1931 68.6329 10.2455 68.3673 10.2455 68.0857C10.2455 67.8169 10.1996 67.5609 10.1079 67.3177C10.0162 67.0682 9.87531 66.8538 9.68531 66.6746C9.50187 66.489 9.26928 66.3418 8.98755 66.233C8.70583 66.1242 8.37497 66.0698 7.99497 66.0698H5.69531V72.7894H6.58962V69.9864ZM6.58962 66.4922H7.62152C7.89669 66.4922 8.13911 66.5402 8.34876 66.6362C8.55842 66.7322 8.73204 66.8602 8.86962 67.0202C9.00721 67.1738 9.10876 67.3497 9.17428 67.5481C9.24635 67.7401 9.28238 67.9321 9.28238 68.1241C9.28238 68.3097 9.24962 68.4985 9.18411 68.6905C9.12514 68.8761 9.02687 69.0456 8.88928 69.1992C8.75169 69.3528 8.57807 69.4776 8.36842 69.5736C8.15876 69.6696 7.90652 69.7176 7.61169 69.7176C7.40859 69.7176 7.22186 69.7112 7.05152 69.6984C6.88117 69.6792 6.72721 69.644 6.58962 69.5928V66.4922Z" fill="white"/>
<path d="M12.6167 69.4488H16.7345V72.7894H17.6288V66.0698H16.7345V69.0072H12.6167V66.0698H11.7224V72.7894H12.6167V69.4488Z" fill="white"/>
<path d="M23.8086 70.8119L24.752 72.7894H25.7053L22.5015 66.0698H22.0101L19.1011 72.7894H19.5532L20.418 70.8119H23.8086ZM23.6022 70.38H20.6048L22.0199 67.145H22.0592L23.6022 70.38Z" fill="white"/>
<path d="M27.1836 66.0698V72.7894H28.0779V69.8232H28.5103C28.6937 69.8232 28.8444 69.8392 28.9624 69.8712C29.0868 69.9032 29.1982 69.9576 29.2965 70.0344C29.3948 70.1112 29.4865 70.2104 29.5717 70.332C29.6568 70.4536 29.7584 70.604 29.8763 70.7831L30.6527 71.9063C30.751 72.0535 30.846 72.1879 30.9377 72.3095C31.036 72.431 31.1408 72.5366 31.2522 72.6262C31.3636 72.7094 31.488 72.7766 31.6256 72.8278C31.7698 72.879 31.9401 72.9046 32.1367 72.9046C32.2808 72.9046 32.3987 72.8982 32.4905 72.8854C32.5822 72.8726 32.6739 72.8406 32.7656 72.7894V72.4342C32.7329 72.4406 32.7001 72.447 32.6674 72.4534C32.6346 72.4534 32.6018 72.4534 32.5691 72.4534C32.4315 72.4534 32.3103 72.4342 32.2055 72.3958C32.1006 72.3575 32.0024 72.3031 31.9106 72.2327C31.8189 72.1559 31.7305 72.0663 31.6453 71.9639C31.5601 71.8551 31.4717 71.7335 31.3799 71.5991C31.1048 71.2087 30.8918 70.8983 30.7412 70.668C30.5905 70.4312 30.4693 70.2488 30.3775 70.1208C30.2924 69.9928 30.2203 69.9 30.1613 69.8424C30.1089 69.7848 30.0434 69.7368 29.9648 69.6984L29.8665 69.6504V69.612C30.181 69.5928 30.4496 69.5256 30.6724 69.4104C30.9017 69.2952 31.0884 69.1512 31.2325 68.9785C31.3767 68.8057 31.4815 68.6201 31.547 68.4217C31.6125 68.2169 31.6453 68.0185 31.6453 67.8265C31.6453 67.6537 31.6093 67.4649 31.5372 67.2602C31.4717 67.0554 31.3537 66.8666 31.1834 66.6938C31.0196 66.5146 30.7936 66.3674 30.5053 66.2522C30.217 66.1306 29.8534 66.0698 29.4144 66.0698H27.1836ZM28.0779 66.4922H29.0705C29.3194 66.4922 29.5422 66.5274 29.7387 66.5978C29.9418 66.6682 30.1155 66.7674 30.2596 66.8954C30.4037 67.017 30.5118 67.1642 30.5839 67.3369C30.6625 67.5097 30.7018 67.6985 30.7018 67.9033C30.7018 68.0761 30.6658 68.2521 30.5937 68.4313C30.5282 68.6041 30.4267 68.7641 30.2891 68.9113C30.1515 69.052 29.9811 69.1672 29.778 69.2568C29.5815 69.3464 29.3522 69.3912 29.0901 69.3912H28.0779V66.4922Z" fill="white"/>
<path d="M34.9058 66.0698H34.2375V72.7894H34.67V67.3082H34.7093L37.746 72.9046H37.9229L41.0284 67.3465H41.0677V72.7894H41.962V66.0698H41.2839L38.0998 71.8391H38.0605L34.9058 66.0698Z" fill="white"/>
<path d="M48.1472 70.8119L49.0906 72.7894H50.0439L46.8401 66.0698H46.3487L43.4398 72.7894H43.8918L44.7567 70.8119H48.1472ZM47.9408 70.38H44.9434L46.3586 67.145H46.3979L47.9408 70.38Z" fill="white"/>
<path d="M55.8523 69.9864C56.0227 70.0312 56.2061 70.0696 56.4027 70.1016C56.5992 70.1272 56.8154 70.14 57.0513 70.14C57.4509 70.14 57.8047 70.0856 58.1127 69.9768C58.4206 69.868 58.6761 69.7208 58.8792 69.5352C59.0889 69.3432 59.2461 69.1256 59.3509 68.8825C59.4558 68.6329 59.5082 68.3673 59.5082 68.0857C59.5082 67.8169 59.4623 67.5609 59.3706 67.3177C59.2789 67.0682 59.138 66.8538 58.948 66.6746C58.7646 66.489 58.532 66.3418 58.2503 66.233C57.9685 66.1242 57.6377 66.0698 57.2577 66.0698H54.958V72.7894H55.8523V69.9864ZM55.8523 66.4922H56.8842C57.1594 66.4922 57.4018 66.5402 57.6115 66.6362C57.8211 66.7322 57.9947 66.8602 58.1323 67.0202C58.2699 67.1738 58.3715 67.3497 58.437 67.5481C58.5091 67.7401 58.5451 67.9321 58.5451 68.1241C58.5451 68.3097 58.5123 68.4985 58.4468 68.6905C58.3878 68.8761 58.2896 69.0456 58.152 69.1992C58.0144 69.3528 57.8408 69.4776 57.6311 69.5736C57.4215 69.6696 57.1692 69.7176 56.8744 69.7176C56.6713 69.7176 56.4846 69.7112 56.3142 69.6984C56.1439 69.6792 55.9899 69.644 55.8523 69.5928V66.4922Z" fill="white"/>
<path d="M64.808 70.8119L65.7515 72.7894H66.7048L63.501 66.0698H63.0096L60.1006 72.7894H60.5527L61.4175 70.8119H64.808ZM64.6016 70.38H61.6042L63.0194 67.145H63.0587L64.6016 70.38Z" fill="white"/>
<path d="M68.183 66.0698V72.7894H69.0773V69.8232H69.5098C69.6932 69.8232 69.8439 69.8392 69.9618 69.8712C70.0863 69.9032 70.1977 69.9576 70.296 70.0344C70.3942 70.1112 70.486 70.2104 70.5711 70.332C70.6563 70.4536 70.7579 70.604 70.8758 70.7831L71.6522 71.9063C71.7505 72.0535 71.8454 72.1879 71.9372 72.3095C72.0354 72.431 72.1403 72.5366 72.2517 72.6262C72.363 72.7094 72.4875 72.7766 72.6251 72.8278C72.7692 72.879 72.9396 72.9046 73.1361 72.9046C73.2803 72.9046 73.3982 72.8982 73.4899 72.8854C73.5817 72.8726 73.6734 72.8406 73.7651 72.7894V72.4342C73.7323 72.4406 73.6996 72.447 73.6668 72.4534C73.6341 72.4534 73.6013 72.4534 73.5686 72.4534C73.431 72.4534 73.3098 72.4342 73.2049 72.3958C73.1001 72.3575 73.0018 72.3031 72.9101 72.2327C72.8184 72.1559 72.7299 72.0663 72.6448 71.9639C72.5596 71.8551 72.4711 71.7335 72.3794 71.5991C72.1042 71.2087 71.8913 70.8983 71.7406 70.668C71.5899 70.4312 71.4687 70.2488 71.377 70.1208C71.2918 69.9928 71.2198 69.9 71.1608 69.8424C71.1084 69.7848 71.0429 69.7368 70.9642 69.6984L70.866 69.6504V69.612C71.1805 69.5928 71.4491 69.5256 71.6718 69.4104C71.9011 69.2952 72.0879 69.1512 72.232 68.9785C72.3761 68.8057 72.481 68.6201 72.5465 68.4217C72.612 68.2169 72.6448 68.0185 72.6448 67.8265C72.6448 67.6537 72.6087 67.4649 72.5367 67.2602C72.4711 67.0554 72.3532 66.8666 72.1829 66.6938C72.0191 66.5146 71.793 66.3674 71.5048 66.2522C71.2165 66.1306 70.8529 66.0698 70.4139 66.0698H68.183ZM69.0773 66.4922H70.0699C70.3189 66.4922 70.5417 66.5274 70.7382 66.5978C70.9413 66.6682 71.1149 66.7674 71.2591 66.8954C71.4032 67.017 71.5113 67.1642 71.5834 67.3369C71.662 67.5097 71.7013 67.6985 71.7013 67.9033C71.7013 68.0761 71.6653 68.2521 71.5932 68.4313C71.5277 68.6041 71.4261 68.7641 71.2886 68.9113C71.151 69.052 70.9806 69.1672 70.7775 69.2568C70.581 69.3464 70.3517 69.3912 70.0896 69.3912H69.0773V66.4922Z" fill="white"/>
<path d="M75.237 72.7894H76.1313V70.428L77.2418 69.2664L79.856 72.7894H80.8781L77.8118 68.6713L80.3081 66.0698H79.8167L76.1313 69.852V66.0698H75.237V72.7894Z" fill="white"/>
<path d="M6.58962 69.9864C6.75997 70.0312 6.94342 70.0696 7.13997 70.1016C7.33652 70.1272 7.55273 70.14 7.78859 70.14C8.18824 70.14 8.54204 70.0856 8.84997 69.9768C9.1579 69.868 9.41342 69.7208 9.61652 69.5352C9.82618 69.3432 9.98342 69.1256 10.0882 68.8825C10.1931 68.6329 10.2455 68.3673 10.2455 68.0857C10.2455 67.8169 10.1996 67.5609 10.1079 67.3177C10.0162 67.0682 9.87531 66.8538 9.68531 66.6746C9.50187 66.489 9.26928 66.3418 8.98755 66.233C8.70583 66.1242 8.37497 66.0698 7.99497 66.0698H5.69531V72.7894H6.58962V69.9864ZM6.58962 66.4922H7.62152C7.89669 66.4922 8.13911 66.5402 8.34876 66.6362C8.55842 66.7322 8.73204 66.8602 8.86962 67.0202C9.00721 67.1738 9.10876 67.3497 9.17428 67.5481C9.24635 67.7401 9.28238 67.9321 9.28238 68.1241C9.28238 68.3097 9.24962 68.4985 9.18411 68.6905C9.12514 68.8761 9.02687 69.0456 8.88928 69.1992C8.75169 69.3528 8.57807 69.4776 8.36842 69.5736C8.15876 69.6696 7.90652 69.7176 7.61169 69.7176C7.40859 69.7176 7.22186 69.7112 7.05152 69.6984C6.88117 69.6792 6.72721 69.644 6.58962 69.5928V66.4922Z" stroke="white" stroke-width="0.5"/>
<path d="M12.6167 69.4488H16.7345V72.7894H17.6288V66.0698H16.7345V69.0072H12.6167V66.0698H11.7224V72.7894H12.6167V69.4488Z" stroke="white" stroke-width="0.5"/>
<path d="M23.8086 70.8119L24.752 72.7894H25.7053L22.5015 66.0698H22.0101L19.1011 72.7894H19.5532L20.418 70.8119H23.8086ZM23.6022 70.38H20.6048L22.0199 67.145H22.0592L23.6022 70.38Z" stroke="white" stroke-width="0.5"/>
<path d="M27.1836 66.0698V72.7894H28.0779V69.8232H28.5103C28.6937 69.8232 28.8444 69.8392 28.9624 69.8712C29.0868 69.9032 29.1982 69.9576 29.2965 70.0344C29.3948 70.1112 29.4865 70.2104 29.5717 70.332C29.6568 70.4536 29.7584 70.604 29.8763 70.7831L30.6527 71.9063C30.751 72.0535 30.846 72.1879 30.9377 72.3095C31.036 72.431 31.1408 72.5366 31.2522 72.6262C31.3636 72.7094 31.488 72.7766 31.6256 72.8278C31.7698 72.879 31.9401 72.9046 32.1367 72.9046C32.2808 72.9046 32.3987 72.8982 32.4905 72.8854C32.5822 72.8726 32.6739 72.8406 32.7656 72.7894V72.4342C32.7329 72.4406 32.7001 72.447 32.6674 72.4534C32.6346 72.4534 32.6018 72.4534 32.5691 72.4534C32.4315 72.4534 32.3103 72.4342 32.2055 72.3958C32.1006 72.3575 32.0024 72.3031 31.9106 72.2327C31.8189 72.1559 31.7305 72.0663 31.6453 71.9639C31.5601 71.8551 31.4717 71.7335 31.3799 71.5991C31.1048 71.2087 30.8918 70.8983 30.7412 70.668C30.5905 70.4312 30.4693 70.2488 30.3775 70.1208C30.2924 69.9928 30.2203 69.9 30.1613 69.8424C30.1089 69.7848 30.0434 69.7368 29.9648 69.6984L29.8665 69.6504V69.612C30.181 69.5928 30.4496 69.5256 30.6724 69.4104C30.9017 69.2952 31.0884 69.1512 31.2325 68.9785C31.3767 68.8057 31.4815 68.6201 31.547 68.4217C31.6125 68.2169 31.6453 68.0185 31.6453 67.8265C31.6453 67.6537 31.6093 67.4649 31.5372 67.2602C31.4717 67.0554 31.3537 66.8666 31.1834 66.6938C31.0196 66.5146 30.7936 66.3674 30.5053 66.2522C30.217 66.1306 29.8534 66.0698 29.4144 66.0698H27.1836ZM28.0779 66.4922H29.0705C29.3194 66.4922 29.5422 66.5274 29.7387 66.5978C29.9418 66.6682 30.1155 66.7674 30.2596 66.8954C30.4037 67.017 30.5118 67.1642 30.5839 67.3369C30.6625 67.5097 30.7018 67.6985 30.7018 67.9033C30.7018 68.0761 30.6658 68.2521 30.5937 68.4313C30.5282 68.6041 30.4267 68.7641 30.2891 68.9113C30.1515 69.052 29.9811 69.1672 29.778 69.2568C29.5815 69.3464 29.3522 69.3912 29.0901 69.3912H28.0779V66.4922Z" stroke="white" stroke-width="0.5"/>
<path d="M34.9058 66.0698H34.2375V72.7894H34.67V67.3082H34.7093L37.746 72.9046H37.9229L41.0284 67.3465H41.0677V72.7894H41.962V66.0698H41.2839L38.0998 71.8391H38.0605L34.9058 66.0698Z" stroke="white" stroke-width="0.5"/>
<path d="M48.1472 70.8119L49.0906 72.7894H50.0439L46.8401 66.0698H46.3487L43.4398 72.7894H43.8918L44.7567 70.8119H48.1472ZM47.9408 70.38H44.9434L46.3586 67.145H46.3979L47.9408 70.38Z" stroke="white" stroke-width="0.5"/>
<path d="M55.8523 69.9864C56.0227 70.0312 56.2061 70.0696 56.4027 70.1016C56.5992 70.1272 56.8154 70.14 57.0513 70.14C57.4509 70.14 57.8047 70.0856 58.1127 69.9768C58.4206 69.868 58.6761 69.7208 58.8792 69.5352C59.0889 69.3432 59.2461 69.1256 59.3509 68.8825C59.4558 68.6329 59.5082 68.3673 59.5082 68.0857C59.5082 67.8169 59.4623 67.5609 59.3706 67.3177C59.2789 67.0682 59.138 66.8538 58.948 66.6746C58.7646 66.489 58.532 66.3418 58.2503 66.233C57.9685 66.1242 57.6377 66.0698 57.2577 66.0698H54.958V72.7894H55.8523V69.9864ZM55.8523 66.4922H56.8842C57.1594 66.4922 57.4018 66.5402 57.6115 66.6362C57.8211 66.7322 57.9947 66.8602 58.1323 67.0202C58.2699 67.1738 58.3715 67.3497 58.437 67.5481C58.5091 67.7401 58.5451 67.9321 58.5451 68.1241C58.5451 68.3097 58.5123 68.4985 58.4468 68.6905C58.3878 68.8761 58.2896 69.0456 58.152 69.1992C58.0144 69.3528 57.8408 69.4776 57.6311 69.5736C57.4215 69.6696 57.1692 69.7176 56.8744 69.7176C56.6713 69.7176 56.4846 69.7112 56.3142 69.6984C56.1439 69.6792 55.9899 69.644 55.8523 69.5928V66.4922Z" stroke="white" stroke-width="0.5"/>
<path d="M64.808 70.8119L65.7515 72.7894H66.7048L63.501 66.0698H63.0096L60.1006 72.7894H60.5527L61.4175 70.8119H64.808ZM64.6016 70.38H61.6042L63.0194 67.145H63.0587L64.6016 70.38Z" stroke="white" stroke-width="0.5"/>
<path d="M68.183 66.0698V72.7894H69.0773V69.8232H69.5098C69.6932 69.8232 69.8439 69.8392 69.9618 69.8712C70.0863 69.9032 70.1977 69.9576 70.296 70.0344C70.3942 70.1112 70.486 70.2104 70.5711 70.332C70.6563 70.4536 70.7579 70.604 70.8758 70.7831L71.6522 71.9063C71.7505 72.0535 71.8454 72.1879 71.9372 72.3095C72.0354 72.431 72.1403 72.5366 72.2517 72.6262C72.363 72.7094 72.4875 72.7766 72.6251 72.8278C72.7692 72.879 72.9396 72.9046 73.1361 72.9046C73.2803 72.9046 73.3982 72.8982 73.4899 72.8854C73.5817 72.8726 73.6734 72.8406 73.7651 72.7894V72.4342C73.7323 72.4406 73.6996 72.447 73.6668 72.4534C73.6341 72.4534 73.6013 72.4534 73.5686 72.4534C73.431 72.4534 73.3098 72.4342 73.2049 72.3958C73.1001 72.3575 73.0018 72.3031 72.9101 72.2327C72.8184 72.1559 72.7299 72.0663 72.6448 71.9639C72.5596 71.8551 72.4711 71.7335 72.3794 71.5991C72.1042 71.2087 71.8913 70.8983 71.7406 70.668C71.5899 70.4312 71.4687 70.2488 71.377 70.1208C71.2918 69.9928 71.2198 69.9 71.1608 69.8424C71.1084 69.7848 71.0429 69.7368 70.9642 69.6984L70.866 69.6504V69.612C71.1805 69.5928 71.4491 69.5256 71.6718 69.4104C71.9011 69.2952 72.0879 69.1512 72.232 68.9785C72.3761 68.8057 72.481 68.6201 72.5465 68.4217C72.612 68.2169 72.6448 68.0185 72.6448 67.8265C72.6448 67.6537 72.6087 67.4649 72.5367 67.2602C72.4711 67.0554 72.3532 66.8666 72.1829 66.6938C72.0191 66.5146 71.793 66.3674 71.5048 66.2522C71.2165 66.1306 70.8529 66.0698 70.4139 66.0698H68.183ZM69.0773 66.4922H70.0699C70.3189 66.4922 70.5417 66.5274 70.7382 66.5978C70.9413 66.6682 71.1149 66.7674 71.2591 66.8954C71.4032 67.017 71.5113 67.1642 71.5834 67.3369C71.662 67.5097 71.7013 67.6985 71.7013 67.9033C71.7013 68.0761 71.6653 68.2521 71.5932 68.4313C71.5277 68.6041 71.4261 68.7641 71.2886 68.9113C71.151 69.052 70.9806 69.1672 70.7775 69.2568C70.581 69.3464 70.3517 69.3912 70.0896 69.3912H69.0773V66.4922Z" stroke="white" stroke-width="0.5"/>
<path d="M75.237 72.7894H76.1313V70.428L77.2418 69.2664L79.856 72.7894H80.8781L77.8118 68.6713L80.3081 66.0698H79.8167L76.1313 69.852V66.0698H75.237V72.7894Z" stroke="white" stroke-width="0.5"/>
<path d="M33.2953 79.8259V77.6835H34.341V77.5008H31.8945V77.6835H32.9402V79.8259H33.2953Z" fill="white"/>
<path d="M35.9364 79.1417L36.311 79.8259H36.6895L35.4175 77.5008H35.2224L34.0674 79.8259H34.2469L34.5903 79.1417H35.9364ZM35.8545 78.9922H34.6644L35.2263 77.8728H35.2419L35.8545 78.9922Z" fill="white"/>
<path d="M36.9525 79.238C36.9577 79.3332 36.9864 79.4196 37.0384 79.4971C37.093 79.5746 37.1659 79.641 37.2569 79.6964C37.3505 79.7495 37.4598 79.7916 37.5847 79.8226C37.7095 79.8514 37.8461 79.8658 37.9944 79.8658C38.1452 79.8658 38.2805 79.8503 38.4002 79.8193C38.5224 79.7883 38.6265 79.744 38.7123 79.6864C38.7981 79.6288 38.8645 79.5591 38.9113 79.4771C38.9581 79.3952 38.9815 79.3044 38.9815 79.2048C38.9815 79.0675 38.9412 78.9557 38.8606 78.8693C38.7799 78.7807 38.6785 78.7076 38.5562 78.6501C38.4366 78.5903 38.3052 78.5405 38.1621 78.5006C38.0217 78.4607 37.8903 78.4187 37.768 78.3744C37.6484 78.3301 37.5482 78.2792 37.4676 78.2216C37.387 78.164 37.3466 78.0876 37.3466 77.9924C37.3466 77.9392 37.3596 77.8894 37.3857 77.8429C37.4143 77.7964 37.4546 77.7566 37.5066 77.7233C37.5612 77.6879 37.6276 77.6602 37.7056 77.6403C37.7837 77.6182 37.8734 77.6071 37.9748 77.6071C38.1439 77.6071 38.287 77.6381 38.4041 77.7001C38.5237 77.7599 38.5939 77.8551 38.6148 77.9857H38.8801C38.8645 77.9038 38.8294 77.8307 38.7747 77.7665C38.7201 77.7001 38.6512 77.6447 38.5679 77.6004C38.4847 77.5539 38.3897 77.5196 38.2831 77.4975C38.179 77.4731 38.0698 77.4609 37.9553 77.4609C37.8357 77.4609 37.7212 77.4742 37.612 77.5008C37.5053 77.5274 37.4104 77.5661 37.3271 77.6171C37.2465 77.668 37.1815 77.7322 37.132 77.8097C37.0852 77.8872 37.0618 77.9758 37.0618 78.0754C37.0618 78.2061 37.1008 78.3113 37.1789 78.391C37.2569 78.4707 37.3544 78.5371 37.4715 78.5903C37.5912 78.6434 37.7199 78.6888 37.8578 78.7265C37.9957 78.7641 38.1231 78.8073 38.2402 78.856C38.3598 78.9025 38.4587 78.9601 38.5367 79.0287C38.6148 79.0974 38.6538 79.1893 38.6538 79.3044C38.6538 79.4484 38.5913 79.5535 38.4665 79.62C38.3442 79.6864 38.1803 79.7196 37.9748 79.7196C37.811 79.7196 37.6796 79.7019 37.5808 79.6665C37.4819 79.6288 37.4065 79.5845 37.3544 79.5336C37.3024 79.4827 37.2673 79.4306 37.2491 79.3775C37.2309 79.3221 37.2205 79.2756 37.2179 79.238H36.9525Z" fill="white"/>
<path d="M40.0702 78.67H41.7051V79.8259H42.0601V77.5008H41.7051V78.5172H40.0702V77.5008H39.7151V79.8259H40.0702V78.67Z" fill="white"/>
<path d="M42.9959 79.8259H43.351V79.0088L43.7919 78.6069L44.8298 79.8259H45.2356L44.0182 78.4009L45.0093 77.5008H44.8142L43.351 78.8095V77.5008H42.9959V79.8259Z" fill="white"/>
<path d="M45.8194 77.5008V79.8259H47.5831V79.6432H46.1745V78.67H47.3841V78.5172H46.1745V77.6835H47.5831V77.5008H45.8194Z" fill="white"/>
<path d="M50.3673 77.5008V79.2779H50.3517L48.1862 77.4609H48.1667V79.8259H48.3461V78.0489H48.3618L50.5273 79.8658H50.5468V77.5008H50.3673Z" fill="white"/>
<path d="M52.4923 79.8259V77.6835H53.538V77.5008H51.0916V77.6835H52.1373V79.8259H52.4923Z" fill="white"/>
<path d="M33.2953 79.8259V77.6835H34.341V77.5008H31.8945V77.6835H32.9402V79.8259H33.2953Z" stroke="white" stroke-width="0.2"/>
<path d="M35.9364 79.1417L36.311 79.8259H36.6895L35.4175 77.5008H35.2224L34.0674 79.8259H34.2469L34.5903 79.1417H35.9364ZM35.8545 78.9922H34.6644L35.2263 77.8728H35.2419L35.8545 78.9922Z" stroke="white" stroke-width="0.2"/>
<path d="M36.9525 79.238C36.9577 79.3332 36.9864 79.4196 37.0384 79.4971C37.093 79.5746 37.1659 79.641 37.2569 79.6964C37.3505 79.7495 37.4598 79.7916 37.5847 79.8226C37.7095 79.8514 37.8461 79.8658 37.9944 79.8658C38.1452 79.8658 38.2805 79.8503 38.4002 79.8193C38.5224 79.7883 38.6265 79.744 38.7123 79.6864C38.7981 79.6288 38.8645 79.5591 38.9113 79.4771C38.9581 79.3952 38.9815 79.3044 38.9815 79.2048C38.9815 79.0675 38.9412 78.9557 38.8606 78.8693C38.7799 78.7807 38.6785 78.7076 38.5562 78.6501C38.4366 78.5903 38.3052 78.5405 38.1621 78.5006C38.0217 78.4607 37.8903 78.4187 37.768 78.3744C37.6484 78.3301 37.5482 78.2792 37.4676 78.2216C37.387 78.164 37.3466 78.0876 37.3466 77.9924C37.3466 77.9392 37.3596 77.8894 37.3857 77.8429C37.4143 77.7964 37.4546 77.7566 37.5066 77.7233C37.5612 77.6879 37.6276 77.6602 37.7056 77.6403C37.7837 77.6182 37.8734 77.6071 37.9748 77.6071C38.1439 77.6071 38.287 77.6381 38.4041 77.7001C38.5237 77.7599 38.5939 77.8551 38.6148 77.9857H38.8801C38.8645 77.9038 38.8294 77.8307 38.7747 77.7665C38.7201 77.7001 38.6512 77.6447 38.5679 77.6004C38.4847 77.5539 38.3897 77.5196 38.2831 77.4975C38.179 77.4731 38.0698 77.4609 37.9553 77.4609C37.8357 77.4609 37.7212 77.4742 37.612 77.5008C37.5053 77.5274 37.4104 77.5661 37.3271 77.6171C37.2465 77.668 37.1815 77.7322 37.132 77.8097C37.0852 77.8872 37.0618 77.9758 37.0618 78.0754C37.0618 78.2061 37.1008 78.3113 37.1789 78.391C37.2569 78.4707 37.3544 78.5371 37.4715 78.5903C37.5912 78.6434 37.7199 78.6888 37.8578 78.7265C37.9957 78.7641 38.1231 78.8073 38.2402 78.856C38.3598 78.9025 38.4587 78.9601 38.5367 79.0287C38.6148 79.0974 38.6538 79.1893 38.6538 79.3044C38.6538 79.4484 38.5913 79.5535 38.4665 79.62C38.3442 79.6864 38.1803 79.7196 37.9748 79.7196C37.811 79.7196 37.6796 79.7019 37.5808 79.6665C37.4819 79.6288 37.4065 79.5845 37.3544 79.5336C37.3024 79.4827 37.2673 79.4306 37.2491 79.3775C37.2309 79.3221 37.2205 79.2756 37.2179 79.238H36.9525Z" stroke="white" stroke-width="0.2"/>
<path d="M40.0702 78.67H41.7051V79.8259H42.0601V77.5008H41.7051V78.5172H40.0702V77.5008H39.7151V79.8259H40.0702V78.67Z" stroke="white" stroke-width="0.2"/>
<path d="M42.9959 79.8259H43.351V79.0088L43.7919 78.6069L44.8298 79.8259H45.2356L44.0182 78.4009L45.0093 77.5008H44.8142L43.351 78.8095V77.5008H42.9959V79.8259Z" stroke="white" stroke-width="0.2"/>
<path d="M45.8194 77.5008V79.8259H47.5831V79.6432H46.1745V78.67H47.3841V78.5172H46.1745V77.6835H47.5831V77.5008H45.8194Z" stroke="white" stroke-width="0.2"/>
<path d="M50.3673 77.5008V79.2779H50.3517L48.1862 77.4609H48.1667V79.8259H48.3461V78.0489H48.3618L50.5273 79.8658H50.5468V77.5008H50.3673Z" stroke="white" stroke-width="0.2"/>
<path d="M52.4923 79.8259V77.6835H53.538V77.5008H51.0916V77.6835H52.1373V79.8259H52.4923Z" stroke="white" stroke-width="0.2"/>
</svg>
