<svg width="192" height="99" viewBox="0 0 192 99" fill="none" xmlns="http://www.w3.org/2000/svg">
<path fill-rule="evenodd" clip-rule="evenodd" d="M0 49.4999V99L12.1808 86.732L24.3616 74.4642L69.1356 74.463L192 74.4617V37.2309V0H56.9549H0V49.4999Z" fill="#D00E46"/>
<path d="M22.22 40.16C22.5667 40.2533 22.94 40.3333 23.34 40.4C23.74 40.4533 24.18 40.48 24.66 40.48C25.4733 40.48 26.1933 40.3667 26.82 40.14C27.4467 39.9133 27.9667 39.6067 28.38 39.22C28.8067 38.82 29.1267 38.3667 29.34 37.86C29.5533 37.34 29.66 36.7867 29.66 36.2C29.66 35.64 29.5667 35.1067 29.38 34.6C29.1933 34.08 28.9067 33.6333 28.52 33.26C28.1467 32.8733 27.6733 32.5667 27.1 32.34C26.5267 32.1133 25.8533 32 25.08 32H20.4V46H22.22V40.16ZM22.22 32.88H24.32C24.88 32.88 25.3733 32.98 25.8 33.18C26.2267 33.38 26.58 33.6467 26.86 33.98C27.14 34.3 27.3467 34.6667 27.48 35.08C27.6267 35.48 27.7 35.88 27.7 36.28C27.7 36.6667 27.6333 37.06 27.5 37.46C27.38 37.8467 27.18 38.2 26.9 38.52C26.62 38.84 26.2667 39.1 25.84 39.3C25.4133 39.5 24.9 39.6 24.3 39.6C23.8867 39.6 23.5067 39.5867 23.16 39.56C22.8133 39.52 22.5 39.4467 22.22 39.34V32.88ZM34.4856 39.04H42.8656V46H44.6856V32H42.8656V38.12H34.4856V32H32.6656V46H34.4856V39.04ZM57.262 41.88L59.182 46H61.122L54.602 32H53.602L47.682 46H48.602L50.362 41.88H57.262ZM56.842 40.98H50.742L53.622 34.24H53.702L56.842 40.98ZM64.1305 32V46H65.9505V39.82H66.8305C67.2038 39.82 67.5105 39.8533 67.7505 39.92C68.0038 39.9867 68.2305 40.1 68.4305 40.26C68.6305 40.42 68.8171 40.6267 68.9905 40.88C69.1638 41.1333 69.3705 41.4467 69.6105 41.82L71.1905 44.16C71.3905 44.4667 71.5838 44.7467 71.7705 45C71.9705 45.2533 72.1838 45.4733 72.4105 45.66C72.6371 45.8333 72.8905 45.9733 73.1705 46.08C73.4638 46.1867 73.8105 46.24 74.2105 46.24C74.5038 46.24 74.7438 46.2267 74.9305 46.2C75.1171 46.1733 75.3038 46.1067 75.4905 46V45.26C75.4238 45.2733 75.3571 45.2867 75.2905 45.3C75.2238 45.3 75.1571 45.3 75.0905 45.3C74.8105 45.3 74.5638 45.26 74.3505 45.18C74.1371 45.1 73.9371 44.9867 73.7505 44.84C73.5638 44.68 73.3838 44.4933 73.2105 44.28C73.0371 44.0533 72.8571 43.8 72.6705 43.52C72.1105 42.7067 71.6771 42.06 71.3705 41.58C71.0638 41.0867 70.8171 40.7067 70.6305 40.44C70.4571 40.1733 70.3105 39.98 70.1905 39.86C70.0838 39.74 69.9505 39.64 69.7905 39.56L69.5905 39.46V39.38C70.2305 39.34 70.7771 39.2 71.2305 38.96C71.6971 38.72 72.0771 38.42 72.3705 38.06C72.6638 37.7 72.8771 37.3133 73.0105 36.9C73.1438 36.4733 73.2105 36.06 73.2105 35.66C73.2105 35.3 73.1371 34.9067 72.9905 34.48C72.8571 34.0533 72.6171 33.66 72.2705 33.3C71.9371 32.9267 71.4771 32.62 70.8905 32.38C70.3038 32.1267 69.5638 32 68.6705 32H64.1305ZM65.9505 32.88H67.9705C68.4771 32.88 68.9305 32.9533 69.3305 33.1C69.7438 33.2467 70.0971 33.4533 70.3905 33.72C70.6838 33.9733 70.9038 34.28 71.0505 34.64C71.2105 35 71.2905 35.3933 71.2905 35.82C71.2905 36.18 71.2171 36.5467 71.0705 36.92C70.9371 37.28 70.7305 37.6133 70.4505 37.92C70.1705 38.2133 69.8238 38.4533 69.4105 38.64C69.0105 38.8267 68.5438 38.92 68.0105 38.92H65.9505V32.88ZM79.8459 32H78.4859V46H79.3659V34.58H79.4459L85.6259 46.24H85.9859L92.3059 34.66H92.3859V46H94.2059V32H92.8259L86.3459 44.02H86.2659L79.8459 32ZM106.793 41.88L108.713 46H110.653L104.133 32H103.133L97.2133 46H98.1333L99.8933 41.88H106.793ZM106.373 40.98H100.273L103.153 34.24H103.233L106.373 40.98ZM122.474 40.16C122.821 40.2533 123.194 40.3333 123.594 40.4C123.994 40.4533 124.434 40.48 124.914 40.48C125.727 40.48 126.447 40.3667 127.074 40.14C127.701 39.9133 128.221 39.6067 128.634 39.22C129.061 38.82 129.381 38.3667 129.594 37.86C129.807 37.34 129.914 36.7867 129.914 36.2C129.914 35.64 129.821 35.1067 129.634 34.6C129.447 34.08 129.161 33.6333 128.774 33.26C128.401 32.8733 127.927 32.5667 127.354 32.34C126.781 32.1133 126.107 32 125.334 32H120.654V46H122.474V40.16ZM122.474 32.88H124.574C125.134 32.88 125.627 32.98 126.054 33.18C126.481 33.38 126.834 33.6467 127.114 33.98C127.394 34.3 127.601 34.6667 127.734 35.08C127.881 35.48 127.954 35.88 127.954 36.28C127.954 36.6667 127.887 37.06 127.754 37.46C127.634 37.8467 127.434 38.2 127.154 38.52C126.874 38.84 126.521 39.1 126.094 39.3C125.667 39.5 125.154 39.6 124.554 39.6C124.141 39.6 123.761 39.5867 123.414 39.56C123.067 39.52 122.754 39.4467 122.474 39.34V32.88ZM140.7 41.88L142.62 46H144.56L138.04 32H137.04L131.12 46H132.04L133.8 41.88H140.7ZM140.28 40.98H134.18L137.06 34.24H137.14L140.28 40.98ZM147.568 32V46H149.388V39.82H150.268C150.641 39.82 150.948 39.8533 151.188 39.92C151.441 39.9867 151.668 40.1 151.868 40.26C152.068 40.42 152.255 40.6267 152.428 40.88C152.601 41.1333 152.808 41.4467 153.048 41.82L154.628 44.16C154.828 44.4667 155.021 44.7467 155.208 45C155.408 45.2533 155.621 45.4733 155.848 45.66C156.075 45.8333 156.328 45.9733 156.608 46.08C156.901 46.1867 157.248 46.24 157.648 46.24C157.941 46.24 158.181 46.2267 158.368 46.2C158.555 46.1733 158.741 46.1067 158.928 46V45.26C158.861 45.2733 158.795 45.2867 158.728 45.3C158.661 45.3 158.595 45.3 158.528 45.3C158.248 45.3 158.001 45.26 157.788 45.18C157.575 45.1 157.375 44.9867 157.188 44.84C157.001 44.68 156.821 44.4933 156.648 44.28C156.475 44.0533 156.295 43.8 156.108 43.52C155.548 42.7067 155.115 42.06 154.808 41.58C154.501 41.0867 154.255 40.7067 154.068 40.44C153.895 40.1733 153.748 39.98 153.628 39.86C153.521 39.74 153.388 39.64 153.228 39.56L153.028 39.46V39.38C153.668 39.34 154.215 39.2 154.668 38.96C155.135 38.72 155.515 38.42 155.808 38.06C156.101 37.7 156.315 37.3133 156.448 36.9C156.581 36.4733 156.648 36.06 156.648 35.66C156.648 35.3 156.575 34.9067 156.428 34.48C156.295 34.0533 156.055 33.66 155.708 33.3C155.375 32.9267 154.915 32.62 154.328 32.38C153.741 32.1267 153.001 32 152.108 32H147.568ZM149.388 32.88H151.408C151.915 32.88 152.368 32.9533 152.768 33.1C153.181 33.2467 153.535 33.4533 153.828 33.72C154.121 33.9733 154.341 34.28 154.488 34.64C154.648 35 154.728 35.3933 154.728 35.82C154.728 36.18 154.655 36.5467 154.508 36.92C154.375 37.28 154.168 37.6133 153.888 37.92C153.608 38.2133 153.261 38.4533 152.848 38.64C152.448 38.8267 151.981 38.92 151.448 38.92H149.388V32.88ZM161.923 46H163.743V41.08L166.003 38.66L171.323 46H173.403L167.163 37.42L172.243 32H171.243L163.743 39.88V32H161.923V46Z" fill="white"/>
</svg>
