<svg width="201" height="186" viewBox="0 0 201 186" fill="none" xmlns="http://www.w3.org/2000/svg">
<path fill-rule="evenodd" clip-rule="evenodd" d="M128.798 182.793H178.74C178.989 182.793 179.194 182.997 179.194 183.247C179.194 183.497 178.989 183.701 178.74 183.701H128.798C128.548 183.701 128.344 183.497 128.344 183.247C128.344 182.997 128.548 182.793 128.798 182.793Z" fill="white"/>
<path fill-rule="evenodd" clip-rule="evenodd" d="M19.0048 182.793H68.9468C69.1964 182.793 69.4006 182.997 69.4006 183.247C69.4006 183.497 69.1964 183.701 68.9468 183.701H19.0048C18.755 183.701 18.5508 183.497 18.5508 183.247C18.5508 182.997 18.755 182.793 19.0048 182.793Z" fill="white"/>
<path fill-rule="evenodd" clip-rule="evenodd" d="M59.4766 122.974C66.1525 120.928 73.0501 119.586 79.8473 118.758C93.4002 117.107 108.304 117.266 121.65 119.268C127.218 120.103 132.814 121.304 138.262 122.974L134.483 124.765C117.857 125.467 77.6878 125.654 63.4401 124.852L59.4766 122.974Z" fill="white"/>
<path fill-rule="evenodd" clip-rule="evenodd" d="M46.4336 129.205C53.2724 127.912 60.1649 126.938 66.9974 126.226C90.0447 123.822 115.39 124.053 138.085 126.968C142.495 127.535 146.915 128.217 151.316 129.029L148.154 145.191H141L142.375 134.24C138.725 133.69 135.058 133.228 131.4 132.844C112.574 130.87 91.5499 130.713 72.4323 132.341C66.7649 132.823 61.0473 133.484 55.3746 134.36L56.7032 145.191H49.5404L46.4336 129.205Z" fill="white"/>
<path fill-rule="evenodd" clip-rule="evenodd" d="M58.0234 136.283C83.6235 132.33 114.159 132.315 139.728 136.171L138.437 145.192H59.2713L58.0234 136.283Z" fill="white"/>
<path d="M79.4664 115.77C68.1423 119.068 52.0202 120.181 42.1723 102.738L2.7779 106.499L7.72284 143.826L48.3973 143.317L48.6174 145.273L6.98521 145.804L0.5625 104.679C14.5518 103.77 28.5415 102.865 42.5312 101.96C46.8545 112.444 64.9328 121.468 77.6131 113.63C79.2148 114.648 79.3269 115.093 79.4664 115.77Z" fill="white"/>
<path fill-rule="evenodd" clip-rule="evenodd" d="M45.0652 111.233L41.6932 141.744H36.2266L41.6461 106.218C42.5461 108.375 43.6323 109.815 45.0652 111.233ZM71.6638 118.826C71.5748 118.837 71.4859 118.845 71.3972 118.855L71.4303 119.22L71.6558 119.182L71.6638 118.827V118.826ZM70.0265 118.981C69.8624 118.993 69.6983 119.005 69.5347 119.014L69.5771 119.551L70.0657 119.46L70.0265 118.981ZM68.137 119.067C67.8827 119.071 67.6294 119.073 67.3763 119.072L67.4341 119.981C67.6866 119.927 67.9383 119.875 68.1889 119.823L68.137 119.067ZM65.9189 119.037C65.5585 119.021 65.1992 119.001 64.8421 118.975L64.9139 120.561C65.2714 120.472 65.6288 120.387 65.986 120.304L65.9189 119.037ZM63.2793 118.825C62.7873 118.768 62.299 118.701 61.8155 118.625L61.8788 121.392C62.3653 121.244 62.8569 121.104 63.3512 120.968L63.2793 118.825ZM61.9532 124.835L61.9807 126.166C62.5046 126.108 63.0163 126.052 63.5142 125.998L63.5122 125.935L63.5024 125.628L61.9532 124.835ZM60.0854 118.313C59.432 118.179 58.7879 118.029 58.1544 117.864C58.1486 119.438 58.1412 121.049 58.1318 122.699C58.7754 122.438 59.4408 122.192 60.1218 121.958C60.1103 120.72 60.0979 119.506 60.0854 118.313ZM58.1308 122.879L58.106 126.615C58.8005 126.531 59.486 126.449 60.1585 126.372L60.139 123.907L58.1308 122.879ZM56.1656 117.29C55.3062 117.016 54.4691 116.717 53.6588 116.394L53.2245 127.265L55.9661 126.886L56.1656 117.29ZM51.2601 115.339C50.123 114.789 49.0514 114.196 48.057 113.574L46.8063 128.362L50.532 127.682L51.2601 115.339ZM46.4028 133.019C46.1536 135.879 45.8931 138.669 45.6205 141.744H48.0627L46.4028 133.019Z" fill="white"/>
<path fill-rule="evenodd" clip-rule="evenodd" d="M4.57812 107.852L40.5668 105.121L34.8474 141.747H9.04699L4.57812 107.852Z" fill="white"/>
<path d="M118.051 114.899C132.836 120.562 149.941 114.525 155.583 102.738L194.977 106.499L190.032 143.826L149.358 143.317L149.138 145.273L191.163 145.804L197.193 104.679L155.224 101.96C150.832 112.613 129.648 118.393 120.142 112.346C119.182 114.251 118.986 114.612 118.051 114.899Z" fill="white"/>
<path fill-rule="evenodd" clip-rule="evenodd" d="M152.688 111.233L156.061 141.744H161.527L156.108 106.218C155.208 108.375 154.121 109.815 152.688 111.233ZM126.09 118.826C126.179 118.837 126.268 118.845 126.357 118.855L126.323 119.22L126.098 119.182L126.09 118.827V118.826ZM127.727 118.981C127.891 118.993 128.055 119.005 128.219 119.014L128.177 119.551L127.688 119.46L127.727 118.981ZM129.617 119.067C129.871 119.071 130.124 119.073 130.377 119.072L130.32 119.981C130.067 119.927 129.815 119.875 129.565 119.823L129.617 119.067ZM131.835 119.037C132.195 119.021 132.555 119.001 132.912 118.975L132.84 120.561C132.482 120.472 132.125 120.387 131.768 120.304L131.835 119.037ZM134.474 118.825C134.966 118.768 135.455 118.701 135.938 118.625L135.875 121.392C135.389 121.244 134.897 121.104 134.403 120.968L134.474 118.825ZM135.801 124.835L135.773 126.166C135.249 126.108 134.737 126.052 134.239 125.998L134.242 125.935L134.251 125.628L135.801 124.835ZM137.668 118.313C138.322 118.179 138.966 118.029 139.599 117.864C139.605 119.438 139.613 121.049 139.622 122.699C138.978 122.438 138.313 122.192 137.632 121.958C137.643 120.72 137.656 119.506 137.668 118.313ZM139.623 122.879L139.648 126.615C138.953 126.531 138.268 126.449 137.595 126.372L137.615 123.907L139.623 122.879ZM141.588 117.29C142.447 117.016 143.285 116.717 144.095 116.394L144.529 127.265L141.788 126.886L141.588 117.29ZM146.494 115.339C147.631 114.789 148.702 114.196 149.697 113.574L150.947 128.362L147.222 127.682L146.494 115.339ZM151.351 133.019C151.6 135.879 151.861 138.669 152.133 141.744H149.691L151.351 133.019Z" fill="white"/>
<path fill-rule="evenodd" clip-rule="evenodd" d="M193.177 107.852L157.625 105.121C160.076 121.008 160.808 125.752 163.275 141.747H188.763C190.522 128.235 191.417 121.37 193.177 107.852Z" fill="white"/>
<path fill-rule="evenodd" clip-rule="evenodd" d="M78.4531 66.4321H81.6537V70.6108H78.4531V66.4321Z" fill="white"/>
<path fill-rule="evenodd" clip-rule="evenodd" d="M82.4766 66.4321H85.6771V70.6108H82.4766V66.4321Z" fill="white"/>
<path fill-rule="evenodd" clip-rule="evenodd" d="M86.5117 66.4321H89.7122V70.6108H86.5117V66.4321Z" fill="white"/>
<path fill-rule="evenodd" clip-rule="evenodd" d="M90.5352 66.4321H93.7358V70.6108H90.5352V66.4321Z" fill="white"/>
<path fill-rule="evenodd" clip-rule="evenodd" d="M94.5586 66.4321H97.7591V70.6108H94.5586V66.4321Z" fill="white"/>
<path fill-rule="evenodd" clip-rule="evenodd" d="M98.582 66.4321H101.783V70.6108H98.582V66.4321Z" fill="white"/>
<path fill-rule="evenodd" clip-rule="evenodd" d="M102.617 66.4321H105.818V70.6108H102.617V66.4321Z" fill="white"/>
<path fill-rule="evenodd" clip-rule="evenodd" d="M106.641 66.4321H109.841V70.6108H106.641V66.4321Z" fill="white"/>
<path fill-rule="evenodd" clip-rule="evenodd" d="M110.664 66.4321H113.865V70.6108H110.664V66.4321Z" fill="white"/>
<path fill-rule="evenodd" clip-rule="evenodd" d="M114.691 66.4321C116.034 66.4623 116.924 66.6063 117.634 66.8359V71.0146C116.679 70.7756 115.879 70.6599 114.691 70.6108V66.4321Z" fill="white"/>
<path fill-rule="evenodd" clip-rule="evenodd" d="M118.043 67.0068C118.784 67.1854 119.211 67.4417 119.514 67.6267V71.8771C119.163 71.6119 118.946 71.3493 118.043 71.1856V67.0068Z" fill="white"/>
<path fill-rule="evenodd" clip-rule="evenodd" d="M78.4531 71.1426H81.6537V75.3212H78.4531V71.1426Z" fill="white"/>
<path fill-rule="evenodd" clip-rule="evenodd" d="M78.4531 75.855H81.6537V80.0336H78.4531V75.855Z" fill="white"/>
<path fill-rule="evenodd" clip-rule="evenodd" d="M78.4531 80.5664H81.6537V84.7451H78.4531V80.5664Z" fill="white"/>
<path fill-rule="evenodd" clip-rule="evenodd" d="M78.4531 85.2744H81.6537V89.4531H78.4531V85.2744Z" fill="white"/>
<path fill-rule="evenodd" clip-rule="evenodd" d="M78.4531 89.9854H81.6537V94.164H78.4531V89.9854Z" fill="white"/>
<path fill-rule="evenodd" clip-rule="evenodd" d="M78.4531 94.6934H81.6537V98.872H78.4531V94.6934Z" fill="white"/>
<path fill-rule="evenodd" clip-rule="evenodd" d="M78.4531 99.4062H81.6537V103.585H78.4531V99.4062Z" fill="white"/>
<path fill-rule="evenodd" clip-rule="evenodd" d="M78.4531 104.114H81.6537V108.293H78.4531V104.114Z" fill="white"/>
<path fill-rule="evenodd" clip-rule="evenodd" d="M78.4531 108.826H81.6537V113.005H78.4531V108.826Z" fill="white"/>
<path fill-rule="evenodd" clip-rule="evenodd" d="M82.4766 71.1426H85.6771V75.3212H82.4766V71.1426Z" fill="white"/>
<path fill-rule="evenodd" clip-rule="evenodd" d="M82.4766 75.855H85.6771V80.0336H82.4766V75.855Z" fill="white"/>
<path fill-rule="evenodd" clip-rule="evenodd" d="M82.4766 80.5664H85.6771V84.7451H82.4766V80.5664Z" fill="white"/>
<path fill-rule="evenodd" clip-rule="evenodd" d="M82.4766 85.2744H85.6771V89.4531H82.4766V85.2744Z" fill="white"/>
<path fill-rule="evenodd" clip-rule="evenodd" d="M82.4766 89.9854H85.6771V94.164H82.4766V89.9854Z" fill="white"/>
<path fill-rule="evenodd" clip-rule="evenodd" d="M82.4766 94.6934H85.6771V98.872H82.4766V94.6934Z" fill="white"/>
<path fill-rule="evenodd" clip-rule="evenodd" d="M82.4766 99.4062H85.6771V103.585H82.4766V99.4062Z" fill="white"/>
<path fill-rule="evenodd" clip-rule="evenodd" d="M82.4766 104.114H85.6771V108.293H82.4766V104.114Z" fill="white"/>
<path fill-rule="evenodd" clip-rule="evenodd" d="M82.4766 108.826H85.6771V113.005H82.4766V108.826Z" fill="white"/>
<path fill-rule="evenodd" clip-rule="evenodd" d="M86.5117 71.1426H89.7122V75.3212H86.5117V71.1426Z" fill="white"/>
<path fill-rule="evenodd" clip-rule="evenodd" d="M86.5117 75.855H89.7122V80.0336H86.5117V75.855Z" fill="white"/>
<path fill-rule="evenodd" clip-rule="evenodd" d="M86.5117 80.5664H89.7122V84.7451H86.5117V80.5664Z" fill="white"/>
<path fill-rule="evenodd" clip-rule="evenodd" d="M86.5117 85.2744H89.7122V89.4531H86.5117V85.2744Z" fill="white"/>
<path fill-rule="evenodd" clip-rule="evenodd" d="M86.5117 89.9854H89.7122V94.164H86.5117V89.9854Z" fill="white"/>
<path fill-rule="evenodd" clip-rule="evenodd" d="M86.5117 94.6934H89.7122V98.872H86.5117V94.6934Z" fill="white"/>
<path fill-rule="evenodd" clip-rule="evenodd" d="M86.5117 99.4062H89.7122V103.585H86.5117V99.4062Z" fill="white"/>
<path fill-rule="evenodd" clip-rule="evenodd" d="M86.5117 104.114H89.7122V108.293H86.5117V104.114Z" fill="white"/>
<path fill-rule="evenodd" clip-rule="evenodd" d="M86.5117 108.826H89.7122V113.005H86.5117V108.826Z" fill="white"/>
<path fill-rule="evenodd" clip-rule="evenodd" d="M90.5352 71.1426H93.7358V75.3212H90.5352V71.1426Z" fill="white"/>
<path fill-rule="evenodd" clip-rule="evenodd" d="M90.5352 75.855H93.7358V80.0336H90.5352V75.855Z" fill="white"/>
<path fill-rule="evenodd" clip-rule="evenodd" d="M90.5352 80.5664H93.7358V84.7451H90.5352V80.5664Z" fill="white"/>
<path fill-rule="evenodd" clip-rule="evenodd" d="M90.5352 85.2744H93.7358V89.4531H90.5352V85.2744Z" fill="white"/>
<path fill-rule="evenodd" clip-rule="evenodd" d="M90.5352 89.9854H93.7358V94.164H90.5352V89.9854Z" fill="white"/>
<path fill-rule="evenodd" clip-rule="evenodd" d="M90.5352 94.6934H93.7358V98.872H90.5352V94.6934Z" fill="white"/>
<path fill-rule="evenodd" clip-rule="evenodd" d="M90.5352 99.4062H93.7358V103.585H90.5352V99.4062Z" fill="white"/>
<path fill-rule="evenodd" clip-rule="evenodd" d="M90.5352 104.114H93.7358V108.293H90.5352V104.114Z" fill="white"/>
<path fill-rule="evenodd" clip-rule="evenodd" d="M90.5352 108.826H93.7358V113.005H90.5352V108.826Z" fill="white"/>
<path fill-rule="evenodd" clip-rule="evenodd" d="M94.5586 71.1426H97.7591V75.3212H94.5586V71.1426Z" fill="white"/>
<path fill-rule="evenodd" clip-rule="evenodd" d="M94.5586 75.855H97.7591V80.0336H94.5586V75.855Z" fill="white"/>
<path fill-rule="evenodd" clip-rule="evenodd" d="M94.5586 80.5664H97.7591V84.7451H94.5586V80.5664Z" fill="white"/>
<path fill-rule="evenodd" clip-rule="evenodd" d="M94.5586 85.2744H97.7591V89.4531H94.5586V85.2744Z" fill="white"/>
<path fill-rule="evenodd" clip-rule="evenodd" d="M94.5586 89.9854H97.7591V94.164H94.5586V89.9854Z" fill="white"/>
<path fill-rule="evenodd" clip-rule="evenodd" d="M94.5586 94.6934H97.7591V98.872H94.5586V94.6934Z" fill="white"/>
<path fill-rule="evenodd" clip-rule="evenodd" d="M94.5586 99.4062H97.7591V103.585H94.5586V99.4062Z" fill="white"/>
<path fill-rule="evenodd" clip-rule="evenodd" d="M94.5586 104.114H97.7591V108.293H94.5586V104.114Z" fill="white"/>
<path fill-rule="evenodd" clip-rule="evenodd" d="M94.5586 108.826H97.7591V113.005H94.5586V108.826Z" fill="white"/>
<path fill-rule="evenodd" clip-rule="evenodd" d="M98.582 71.1426H101.783V75.3212H98.582V71.1426Z" fill="white"/>
<path fill-rule="evenodd" clip-rule="evenodd" d="M98.582 75.855H101.783V80.0336H98.582V75.855Z" fill="white"/>
<path fill-rule="evenodd" clip-rule="evenodd" d="M98.582 80.5664H101.783V84.7451H98.582V80.5664Z" fill="white"/>
<path fill-rule="evenodd" clip-rule="evenodd" d="M98.582 85.2744H101.783V89.4531H98.582V85.2744Z" fill="white"/>
<path fill-rule="evenodd" clip-rule="evenodd" d="M98.582 89.9854H101.783V94.164H98.582V89.9854Z" fill="white"/>
<path fill-rule="evenodd" clip-rule="evenodd" d="M98.582 94.6934H101.783V98.872H98.582V94.6934Z" fill="white"/>
<path fill-rule="evenodd" clip-rule="evenodd" d="M98.582 99.4062H101.783V103.585H98.582V99.4062Z" fill="white"/>
<path fill-rule="evenodd" clip-rule="evenodd" d="M98.582 104.114H101.783V108.293H98.582V104.114Z" fill="white"/>
<path fill-rule="evenodd" clip-rule="evenodd" d="M98.582 108.826H101.783V113.005H98.582V108.826Z" fill="white"/>
<path fill-rule="evenodd" clip-rule="evenodd" d="M102.617 71.1426H105.818V75.3212H102.617V71.1426Z" fill="white"/>
<path fill-rule="evenodd" clip-rule="evenodd" d="M102.617 75.855H105.818V80.0336H102.617V75.855Z" fill="white"/>
<path fill-rule="evenodd" clip-rule="evenodd" d="M102.617 80.5664H105.818V84.7451H102.617V80.5664Z" fill="white"/>
<path fill-rule="evenodd" clip-rule="evenodd" d="M102.617 85.2744H105.818V89.4531H102.617V85.2744Z" fill="white"/>
<path fill-rule="evenodd" clip-rule="evenodd" d="M102.617 89.9854H105.818V94.164H102.617V89.9854Z" fill="white"/>
<path fill-rule="evenodd" clip-rule="evenodd" d="M102.617 94.6934H105.818V98.872H102.617V94.6934Z" fill="white"/>
<path fill-rule="evenodd" clip-rule="evenodd" d="M102.617 99.4062H105.818V103.585H102.617V99.4062Z" fill="white"/>
<path fill-rule="evenodd" clip-rule="evenodd" d="M102.617 104.114H105.818V108.293H102.617V104.114Z" fill="white"/>
<path fill-rule="evenodd" clip-rule="evenodd" d="M102.617 108.826H105.818V113.005H102.617V108.826Z" fill="white"/>
<path fill-rule="evenodd" clip-rule="evenodd" d="M106.641 71.1426H109.841V75.3212H106.641V71.1426Z" fill="white"/>
<path fill-rule="evenodd" clip-rule="evenodd" d="M106.641 75.855H109.841V80.0336H106.641V75.855Z" fill="white"/>
<path fill-rule="evenodd" clip-rule="evenodd" d="M106.641 80.5664H109.841V84.7451H106.641V80.5664Z" fill="white"/>
<path fill-rule="evenodd" clip-rule="evenodd" d="M106.641 85.2744H109.841V89.4531H106.641V85.2744Z" fill="white"/>
<path fill-rule="evenodd" clip-rule="evenodd" d="M106.641 89.9854H109.841V94.164H106.641V89.9854Z" fill="white"/>
<path fill-rule="evenodd" clip-rule="evenodd" d="M106.641 94.6934H109.841V98.872H106.641V94.6934Z" fill="white"/>
<path fill-rule="evenodd" clip-rule="evenodd" d="M106.641 99.4062H109.841V103.585H106.641V99.4062Z" fill="white"/>
<path fill-rule="evenodd" clip-rule="evenodd" d="M106.641 104.114H109.841V108.293H106.641V104.114Z" fill="white"/>
<path fill-rule="evenodd" clip-rule="evenodd" d="M106.641 108.826H109.841V113.005H106.641V108.826Z" fill="white"/>
<path fill-rule="evenodd" clip-rule="evenodd" d="M110.664 71.1426H113.865V75.3212H110.664V71.1426Z" fill="white"/>
<path fill-rule="evenodd" clip-rule="evenodd" d="M110.664 75.855H113.865V80.0336H110.664V75.855Z" fill="white"/>
<path fill-rule="evenodd" clip-rule="evenodd" d="M110.664 80.5664H113.865V84.7451H110.664V80.5664Z" fill="white"/>
<path fill-rule="evenodd" clip-rule="evenodd" d="M110.664 85.2744H113.865V89.4531H110.664V85.2744Z" fill="white"/>
<path fill-rule="evenodd" clip-rule="evenodd" d="M110.664 89.9854H113.865V94.164H110.664V89.9854Z" fill="white"/>
<path fill-rule="evenodd" clip-rule="evenodd" d="M110.664 94.6934H113.865V98.872H110.664V94.6934Z" fill="white"/>
<path fill-rule="evenodd" clip-rule="evenodd" d="M110.664 99.4062H113.865V103.585H110.664V99.4062Z" fill="white"/>
<path fill-rule="evenodd" clip-rule="evenodd" d="M110.664 104.114H113.865V108.293H110.664V104.114Z" fill="white"/>
<path fill-rule="evenodd" clip-rule="evenodd" d="M110.664 108.826H113.865V113.005H110.664V108.826Z" fill="white"/>
<path fill-rule="evenodd" clip-rule="evenodd" d="M114.691 71.1426C116.034 71.1727 116.924 71.3168 117.634 71.5464V75.725C116.679 75.486 115.879 75.3703 114.691 75.3212V71.1426Z" fill="white"/>
<path fill-rule="evenodd" clip-rule="evenodd" d="M114.691 75.855C116.034 75.8851 116.924 76.0292 117.634 76.2588V80.4375C116.679 80.1984 115.879 80.0827 114.691 80.0336V75.855Z" fill="white"/>
<path fill-rule="evenodd" clip-rule="evenodd" d="M114.691 80.5664C116.034 80.5966 116.924 80.7406 117.634 80.9702V85.1489C116.679 84.9099 115.879 84.7942 114.691 84.7451V80.5664Z" fill="white"/>
<path fill-rule="evenodd" clip-rule="evenodd" d="M114.691 85.2744C116.034 85.3046 116.924 85.4486 117.634 85.6782V89.8569C116.679 89.6179 115.879 89.5022 114.691 89.4531V85.2744Z" fill="white"/>
<path fill-rule="evenodd" clip-rule="evenodd" d="M114.691 89.9854C116.034 90.0155 116.924 90.1596 117.634 90.3892V94.5678C116.679 94.3288 115.879 94.2131 114.691 94.164V89.9854Z" fill="white"/>
<path fill-rule="evenodd" clip-rule="evenodd" d="M114.691 94.6934C116.034 94.7235 116.924 94.8676 117.634 95.0972V99.2758C116.679 99.0368 115.879 98.9211 114.691 98.872V94.6934Z" fill="white"/>
<path fill-rule="evenodd" clip-rule="evenodd" d="M114.691 99.4062C116.034 99.4364 116.924 99.5805 117.634 99.8101V103.989C116.679 103.75 115.879 103.634 114.691 103.585V99.4062Z" fill="white"/>
<path fill-rule="evenodd" clip-rule="evenodd" d="M114.691 104.114C116.034 104.144 116.924 104.288 117.634 104.518V108.697C116.679 108.458 115.879 108.342 114.691 108.293V104.114Z" fill="white"/>
<path fill-rule="evenodd" clip-rule="evenodd" d="M114.691 108.826C116.034 108.856 116.924 109 117.634 109.23V112.878C116.964 112.988 115.879 113.054 114.691 113.005V108.826Z" fill="white"/>
<path fill-rule="evenodd" clip-rule="evenodd" d="M118.043 71.7163C118.784 71.8949 119.211 72.1512 119.514 72.3361V76.5866C119.163 76.3212 118.946 76.0587 118.043 75.895V71.7163Z" fill="white"/>
<path fill-rule="evenodd" clip-rule="evenodd" d="M118.043 76.4272C118.784 76.6058 119.211 76.8621 119.514 77.0471V81.2975C119.163 81.0321 118.946 80.7697 118.043 80.6059V76.4272Z" fill="white"/>
<path fill-rule="evenodd" clip-rule="evenodd" d="M118.043 81.1387C118.784 81.3172 119.211 81.5735 119.514 81.7585V86.009C119.163 85.7435 118.946 85.4811 118.043 85.3173V81.1387Z" fill="white"/>
<path fill-rule="evenodd" clip-rule="evenodd" d="M118.043 85.8477C118.784 86.0262 119.211 86.2825 119.514 86.4675V90.7179C119.163 90.4525 118.946 90.1901 118.043 90.0263V85.8477Z" fill="white"/>
<path fill-rule="evenodd" clip-rule="evenodd" d="M118.043 90.5576C118.784 90.7362 119.211 90.9925 119.514 91.1774V95.4279C119.163 95.1625 118.946 94.9 118.043 94.7363V90.5576Z" fill="white"/>
<path fill-rule="evenodd" clip-rule="evenodd" d="M118.043 95.2695C118.784 95.4481 119.211 95.7044 119.514 95.8894V100.14C119.163 99.8744 118.946 99.6119 118.043 99.4482V95.2695Z" fill="white"/>
<path fill-rule="evenodd" clip-rule="evenodd" d="M118.043 99.981C118.784 100.16 119.211 100.416 119.514 100.601V104.851C119.163 104.586 118.946 104.323 118.043 104.16V99.981Z" fill="white"/>
<path fill-rule="evenodd" clip-rule="evenodd" d="M118.043 104.689C118.784 104.868 119.211 105.124 119.514 105.309V109.559C119.163 109.294 118.946 109.031 118.043 108.868V104.689Z" fill="white"/>
<path fill-rule="evenodd" clip-rule="evenodd" d="M118.043 109.4C118.784 109.578 119.211 109.835 119.514 110.02V112.053C119.24 112.411 118.596 112.664 118.043 112.782V109.4Z" fill="white"/>
<path fill-rule="evenodd" clip-rule="evenodd" d="M77.6094 63.7207H114.26C116.893 63.7207 119.268 64.1792 120.145 65.3503V67.7198C119.182 66.6712 116.363 66.0902 114.312 66.0902H77.6094V63.7207Z" fill="white"/>
<path fill-rule="evenodd" clip-rule="evenodd" d="M77.6094 115.932H114.26C116.893 115.932 119.268 115.473 120.145 114.302V112.241C119.182 113.29 116.363 113.562 114.312 113.562H77.6094V115.932Z" fill="white"/>
<path fill-rule="evenodd" clip-rule="evenodd" d="M3.65198 94.1255C5.66897 94.1255 7.3041 95.7606 7.3041 97.7775C7.3041 99.7943 5.66897 101.429 3.65198 101.429C1.63513 101.429 0 99.7943 0 97.7775C0 95.7606 1.63513 94.1255 3.65198 94.1255Z" fill="white"/>
<path fill-rule="evenodd" clip-rule="evenodd" d="M91.7363 40.562C92.9368 40.562 93.91 41.5352 93.91 42.7358C93.91 43.9362 92.9368 44.9095 91.7363 44.9095C90.5358 44.9095 89.5625 43.9362 89.5625 42.7358C89.5625 41.5352 90.5358 40.562 91.7363 40.562Z" fill="white"/>
<path fill-rule="evenodd" clip-rule="evenodd" d="M139.308 91.3428C141.133 91.3428 142.613 92.8224 142.613 94.6472C142.613 96.4722 141.133 97.9518 139.308 97.9518C137.483 97.9518 136.004 96.4722 136.004 94.6472C136.004 92.8224 137.483 91.3428 139.308 91.3428Z" fill="white"/>
<path fill-rule="evenodd" clip-rule="evenodd" d="M143.722 65.5645C144.933 65.5645 145.916 66.5468 145.916 67.7585C145.916 68.9703 144.933 69.9527 143.722 69.9527C142.51 69.9527 141.527 68.9703 141.527 67.7585C141.527 66.5468 142.51 65.5645 143.722 65.5645Z" fill="white"/>
<path fill-rule="evenodd" clip-rule="evenodd" d="M197.978 90.0166C199.096 90.0166 200.002 90.9231 200.002 92.0411C200.002 93.1592 199.096 94.0657 197.978 94.0657C196.86 94.0657 195.953 93.1592 195.953 92.0411C195.953 90.9231 196.86 90.0166 197.978 90.0166Z" fill="white"/>
<path fill-rule="evenodd" clip-rule="evenodd" d="M4.06515 74.7148C5.2769 74.7148 6.25935 75.6972 6.25935 76.9089C6.25935 78.1207 5.2769 79.1031 4.06515 79.1031C2.8534 79.1031 1.87109 78.1207 1.87109 76.9089C1.87109 75.6972 2.8534 74.7148 4.06515 74.7148Z" fill="white"/>
<path fill-rule="evenodd" clip-rule="evenodd" d="M58.0058 85.99C57.8556 85.6361 57.7626 85.2738 57.708 84.9123C50.0026 84.297 42.3169 83.6839 34.6695 83.0725C33.6641 84.6856 32.6583 86.2974 31.6527 87.8988C31.993 88.3116 32.2175 88.8441 32.2127 89.4099C32.2078 90.0416 31.9356 90.6209 31.5122 91.0266C31.089 91.4325 30.514 91.6747 29.8843 91.6612C29.235 91.6477 28.6648 91.381 28.2484 90.9574C27.9266 90.6209 27.6823 90.1823 27.6099 89.6817C24.1431 88.8372 20.6575 87.9845 17.1911 87.124C16.8046 87.6517 16.3813 88.0003 15.4272 87.9809C14.4729 87.9614 13.3003 86.8056 13.3096 85.7964C13.3188 84.7874 13.801 84.2476 14.5101 83.9136C12.6654 77.0528 10.8028 70.2067 8.94161 63.348C7.83675 63.2565 6.93178 62.212 6.94148 61.1906C6.95119 60.169 7.54863 59.5114 8.37074 59.2228C8.37074 59.2228 8.37074 59.2228 8.37104 59.2133C8.39 59.2136 8.39 59.2136 8.39 59.2136C8.8298 59.051 9.30632 59.0576 9.72431 59.1946C14.3568 52.9013 18.9817 46.5724 23.5932 40.2552C28.2123 33.9279 32.8752 27.5743 37.4931 21.2226C37.3989 21.0807 37.2862 20.9103 37.2114 20.7304C36.7637 19.6617 37.268 18.418 38.3367 17.9507C39.2143 17.5862 40.1825 17.8356 40.7669 18.4901C51.1324 13.2608 61.5496 7.99683 71.999 2.71675C71.777 1.72713 72.2774 0.690347 73.268 0.271751C74.3729 -0.194319 75.643 0.300707 76.1116 1.38631C76.1489 1.472 76.1866 1.56725 76.2049 1.66264C88.9748 1.57277 101.859 1.4826 114.8 1.38214C115.01 0.863666 115.43 0.421632 115.982 0.181283C117.124 -0.299268 118.414 0.210543 118.885 1.29749C119.017 1.60502 119.073 1.9127 119.072 2.22053C130.211 6.7494 141.394 11.3013 152.619 15.8666C152.829 15.6735 152.648 15.6728 153.362 15.375C154.076 15.077 155.834 15.4226 156.307 16.5107C156.553 17.0064 156.552 17.5399 156.418 18.0049C160.709 22.1787 165.038 26.3612 169.333 30.5501C173.647 34.7582 177.983 38.9639 182.32 43.1881C183.463 42.7698 184.786 43.4074 185.233 44.388C185.679 45.3688 185.403 46.2157 184.717 46.8235C186.372 51.1771 188.02 55.5465 189.645 59.8937C191.275 64.2588 192.939 68.6428 194.559 73.0119C194.597 73.0123 194.616 73.0126 194.616 73.0126C196.389 73.0418 197.535 75.0302 196.484 76.4595C195.972 77.1568 195.016 77.5596 194.139 77.3582C192.021 82.1716 189.92 86.9904 187.781 91.8043C188.353 92.1282 188.801 92.6111 189.059 93.2083C189.487 94.1989 189.359 95.2637 188.772 96.0655C188.175 96.8795 187.072 97.3799 186.003 97.295C184.876 97.2056 183.817 96.5299 183.332 95.4506C182.997 94.7065 183.027 93.9019 183.295 93.1951C183.104 93.1326 171.428 89.4427 153.997 83.9036C153.671 84.363 153.7 84.5623 152.64 84.983C151.58 85.4036 149.282 84.8702 148.618 83.3563C147.954 81.8432 149.122 79.952 150.229 79.5118C151.337 79.0717 151.584 79.2261 152.194 79.3922C153.235 74.6122 154.236 69.8199 155.237 65.0353C148.922 59.5383 142.648 54.0668 136.359 48.6009C136.282 48.6485 136.187 48.6955 136.091 48.7331C135.672 48.912 135.215 48.8972 134.834 48.7482C134.435 48.5894 134.093 48.2865 133.904 47.8789C133.79 47.5978 133.753 47.3079 133.792 47.0283C126.888 44.3334 120.024 41.6371 113.162 38.9492C112.721 39.5216 112.883 39.6912 111.404 40.2967C109.926 40.9022 106.626 40.1949 105.684 38.0382C105.382 37.3356 105.291 36.5964 105.37 35.8874C105.369 36.0504 105.35 36.2037 105.33 36.3571C100.764 35.8973 96.1974 35.4384 91.6506 34.9712C82.2961 39.8269 72.9751 44.6715 63.6879 49.4857C63.4441 54.6021 63.1615 59.7271 62.9184 64.833C62.6741 69.9572 62.4114 75.0713 62.1482 80.1943C63.7309 80.3 65.062 80.9418 65.8512 82.7913C66.6405 84.6406 65.766 87.4235 63.6013 88.2956C62.647 88.6803 61.6536 88.6952 60.7376 88.4176C59.5397 88.0545 58.4941 87.1385 58.0058 85.99ZM31.008 87.3672C31.9173 85.9148 32.8261 84.4614 33.7159 82.9979C32.3429 82.8956 30.9506 82.7841 29.5777 82.6728C29.3043 83.412 28.7455 84.0514 27.9604 84.3751C27.1562 84.6986 26.126 84.6312 25.3856 84.1929C24.9297 83.9202 24.5514 83.5361 24.2885 83.0604C22.0486 83.8641 19.8277 84.6762 17.5684 85.4775C17.5863 85.6095 17.6041 85.7463 17.6032 85.8824C17.602 86.0187 17.5818 86.1356 17.5615 86.2481C18.0758 86.3618 18.5711 86.466 19.0665 86.57C19.0663 86.6076 19.066 86.6357 19.0657 86.6639C21.9416 87.3617 24.7987 88.0697 27.6561 88.7688C27.7549 88.3655 27.987 87.9934 28.2757 87.7074C28.699 87.3015 29.2737 87.0494 29.9227 87.0625C30.3044 87.0704 30.7043 87.1818 31.008 87.3672ZM15.466 83.6978C15.3899 83.6963 15.3516 83.6955 15.2755 83.6939C13.4491 76.8788 11.605 70.0602 9.76223 63.2476C10.6035 62.9786 11.2251 61.7584 11.2299 61.2518C11.2345 60.7451 11.2312 61.1016 11.232 61.0266C15.6348 58.9759 20.0367 56.9208 24.457 54.8525C24.6063 55.2121 24.8705 55.5074 25.1545 55.7182C23.5894 60.3844 22.024 65.0663 20.4566 69.7255C18.8902 74.3819 17.3024 79.0627 15.7332 83.7122C15.638 83.7012 15.5423 83.6994 15.466 83.6978ZM17.2889 84.7296C17.082 84.4154 16.8169 84.1564 16.4944 83.9809C18.0627 79.3494 19.6418 74.703 21.1972 70.0765C22.7556 65.4418 24.3292 60.79 25.8749 56.1513C25.9046 63.7504 25.9349 71.3686 25.9267 78.9773C25.8691 79.0041 25.7927 79.0309 25.697 79.0575C24.3949 79.5984 23.6961 80.9693 24.0087 82.3019C21.7691 83.1152 19.5289 83.9277 17.2889 84.7296ZM11.0106 60.2539C10.9919 60.216 10.954 60.178 10.9353 60.14C17.1829 54.2986 23.4461 48.4216 29.7051 42.5369C28.5742 45.6629 27.4241 48.7776 26.2735 51.8908C26.0448 51.8972 25.7966 51.9508 25.5672 52.0514C24.726 52.3896 24.2426 53.2026 24.2735 54.0499C19.8342 56.1284 15.4131 58.1932 11.0106 60.2539ZM29.915 87.9672C29.5333 87.9591 29.1694 88.1215 28.9193 88.3613C28.6498 88.6103 28.5134 88.9557 28.5103 89.3328C28.5068 89.719 28.6375 90.08 28.9027 90.3304C28.9026 90.3398 28.9026 90.3398 28.9026 90.3398C29.1486 90.5904 29.5102 90.7484 29.8919 90.7566C30.2736 90.7646 30.6183 90.6212 30.8687 90.3814C31.1378 90.1324 31.2935 89.7771 31.2967 89.3906C31.2998 89.0137 31.1499 88.6618 30.885 88.4017C30.6389 88.1515 30.2777 87.9745 29.915 87.9672ZM193.701 73.1737C192.081 68.8447 190.453 64.5141 188.844 60.1953C187.237 55.8818 185.59 51.5782 183.974 47.2745C183.784 47.341 183.612 47.3878 183.422 47.4051C183.056 52.6223 182.69 57.8386 182.325 63.0538C182.972 63.2289 183.525 63.6859 183.81 64.3245C184.096 64.9632 184.057 65.6457 183.733 66.207C186.858 68.6468 190.002 71.0798 193.129 73.5163C193.281 73.382 193.491 73.2584 193.701 73.1737ZM36.6127 33.6863C37.2721 29.7642 37.9127 25.8414 38.5526 21.9268C38.4388 21.8883 38.3249 21.8499 38.211 21.7929C36.0328 27.7363 33.8339 33.683 31.6527 39.6336C32.9576 38.4197 34.243 37.205 35.5282 35.9895C35.5095 35.9422 35.4719 35.8946 35.4532 35.8472C35.3043 35.4497 35.3075 35.0156 35.4438 34.6488C35.4438 34.6488 35.4438 34.6488 35.4441 34.6394C35.5992 34.2726 35.9063 33.9542 36.3075 33.7876C36.4218 33.7413 36.5365 33.714 36.6127 33.6863ZM39.3508 22.0064C38.7111 25.9124 38.071 29.8269 37.4307 33.7493C37.4686 33.759 37.4876 33.7686 37.5067 33.7783C37.5823 33.8073 37.6583 33.8453 37.7342 33.8837C41.8973 29.6646 46.0778 25.4465 50.2564 21.2202C47.2144 21.0254 44.1915 20.8214 41.1686 20.6176C40.9934 21.1553 40.5524 21.6064 39.9987 21.8492C39.7889 21.9331 39.5793 21.9888 39.3508 22.0064ZM37.177 34.5119C37.1011 34.5019 37.0061 34.4916 36.9109 34.4719C36.8158 34.4711 36.7014 34.4892 36.6059 34.5264C36.4339 34.6097 36.2804 34.769 36.2028 34.9475C36.1253 35.1263 36.1237 35.3337 36.1982 35.5328C36.2918 35.7221 36.4429 35.8649 36.6135 35.9422C36.8034 36.0192 37.0318 36.021 37.2227 35.9377C37.4138 35.8544 37.5674 35.7045 37.6451 35.5257C37.7225 35.3377 37.7242 35.1299 37.6306 34.9405C37.537 34.7413 37.3857 34.5986 37.2151 34.5216C37.2151 34.5216 37.1961 34.5213 37.177 34.5119ZM160.536 33.2464C158.642 28.6511 156.73 24.0598 154.799 19.4626C153.752 19.7292 152.631 19.2104 152.177 18.2104C152.101 18.026 152.045 17.8415 152.026 17.6671C144.972 17.3093 137.955 16.9531 130.939 16.5878C131.318 16.9849 131.659 17.3815 132.001 17.7591C132.324 17.7026 132.666 17.7234 132.97 17.8404C133.35 17.9869 133.691 18.2874 133.861 18.6933C134.031 19.0511 134.049 19.4276 133.953 19.7747C142.289 24.6377 150.63 29.5095 159.031 34.3998C159.336 33.9362 159.794 33.5514 160.384 33.3131C160.441 33.2943 160.479 33.2654 160.536 33.2464ZM155.579 19.1168C157.529 23.773 159.48 28.4333 161.393 33.0879C162.65 33.0195 163.933 33.7822 164.416 34.8791C164.9 35.9761 164.679 37.0096 164.031 37.8302C169.739 39.9129 175.448 42.0006 181.196 44.0841C181.291 43.9193 181.425 43.7646 181.558 43.6392C177.297 39.4743 172.999 35.3083 168.742 31.1588C164.505 27.0285 160.232 22.8848 155.979 18.7599C155.865 18.895 155.732 19.011 155.579 19.1168ZM45.5036 53.5242C43.2147 48.8727 40.9271 44.2263 38.6215 39.5945C35.0263 43.873 31.4106 48.1536 27.7932 52.4181C28.0202 52.6184 28.0402 52.4914 28.339 53.1878C28.6381 53.8844 28.3004 55.5047 27.2106 55.9523C27.0383 56.0251 26.8665 56.0795 26.6758 56.0957C26.706 63.668 26.7368 71.2594 26.7484 78.8413C27.168 78.8398 27.5871 78.9229 27.9863 79.0996C33.6714 72.1481 39.3717 65.1693 45.0678 58.1811C44.746 57.9025 44.482 57.549 44.2945 57.1304C44.1073 56.6742 44.0348 56.2004 44.0767 55.7378C38.8976 55.217 33.719 54.6978 28.5594 54.1797C28.5998 53.9165 28.6212 53.6527 28.6425 53.3892C33.8398 53.9162 39.0371 54.4352 44.273 54.9555C44.5062 54.3625 44.9293 53.8478 45.5036 53.5242ZM38.2282 38.807C37.8908 38.1337 37.5725 37.4606 37.2162 36.7777C36.9112 36.8316 36.5878 36.8006 36.3222 36.6852C36.2462 36.6562 36.1513 36.6176 36.0756 36.5698C34.4066 38.1591 32.718 39.7378 31.0293 41.3059C29.7237 44.8742 28.4177 48.4311 27.111 51.9855C30.8055 47.6002 34.5175 43.2073 38.2282 38.807ZM37.9424 36.4254C38.2423 36.9944 38.5234 37.5633 38.8046 38.1324C43.243 32.8689 47.6976 27.604 52.1313 22.3379C52.0196 22.0056 52.003 21.6647 52.0814 21.3431C51.8152 21.3322 51.5682 21.3121 51.302 21.2918C46.9702 25.6787 42.6172 30.0663 38.3007 34.4549C38.3383 34.5119 38.3567 34.5686 38.3754 34.6255C38.5435 35.0235 38.5211 35.4482 38.3849 35.8246C38.2879 36.0504 38.1529 36.2572 37.9424 36.4254ZM39.1791 38.9198C41.5599 43.6755 43.9037 48.4458 46.2678 53.2212C46.7451 53.1042 47.2404 53.1103 47.6969 53.2295C48.6098 48.3 49.5431 43.3594 50.4727 38.4353C51.4046 33.5003 52.3336 28.5624 53.2635 23.6228C52.9979 23.4982 52.7519 23.3168 52.5633 23.0884C48.0915 28.3731 43.6365 33.6471 39.1791 38.9198ZM131.22 18.142C130.746 17.6095 130.272 17.0674 129.78 16.5255C128.696 16.4731 127.574 16.4209 126.452 16.3588C126.375 16.6956 126.26 17.0226 126.069 17.3206C127.76 17.6357 129.433 17.9416 131.105 18.2571C131.143 18.2187 131.182 18.1803 131.22 18.142ZM129.022 15.6838C125.461 11.693 121.902 7.70811 118.363 3.7301C118.305 3.77817 118.267 3.81654 118.21 3.8549C119.776 6.87689 121.323 9.89171 122.89 12.9085C124.241 12.6236 125.919 13.8231 126.268 14.6238C126.617 15.4244 126.494 15.2414 126.512 15.5495C127.368 15.6008 128.185 15.6423 129.022 15.6838ZM118.859 3.06697C122.645 7.28608 126.412 11.5028 130.201 15.7267C137.463 16.1011 144.764 16.4766 152.066 16.8433C152.085 16.7466 152.123 16.6596 152.162 16.5725C141.031 12.0253 129.943 7.52031 118.879 3.02831C118.879 3.04742 118.878 3.05727 118.859 3.06697ZM130.722 19.0172C128.955 18.6915 127.187 18.3562 125.401 18.0212C125.191 18.1938 124.962 18.3371 124.695 18.4516C124.086 18.6994 123.458 18.7448 122.869 18.617C119.332 23.4212 115.794 28.2077 112.254 32.9866C112.861 33.4233 113.429 34.1724 113.693 34.7555C113.957 35.3388 113.994 35.6321 114.03 36.0842C120.616 36.0234 127.241 35.9623 133.846 35.8914C133.386 30.8984 132.926 25.9066 132.447 20.9256C132.2 20.9436 131.952 20.9039 131.743 20.8161C131.344 20.6597 131.003 20.3592 130.833 19.9533C130.701 19.6538 130.664 19.3257 130.722 19.0172ZM120.878 17.1843C112.327 15.585 103.796 13.982 95.2859 12.3852C95.1131 12.7196 94.8265 12.9963 94.4645 13.1576C94.4455 13.1672 94.4263 13.1766 94.3885 13.1766C94.6245 15.3294 94.861 17.4727 95.0973 19.6166C99.1651 24.0204 103.235 28.4325 107.287 32.8527C107.516 32.7203 107.726 32.5973 107.974 32.5031C109.156 32.013 110.45 32.0703 111.532 32.568C115.034 27.8278 118.535 23.0802 122.052 18.3247C121.559 18.0629 121.142 17.6764 120.878 17.1843ZM95.442 11.5918C103.781 13.1479 112.14 14.7201 120.539 16.288C120.52 16.1151 120.502 15.9512 120.503 15.778C112.599 14.1453 104.734 12.5085 96.8904 10.8779C96.4143 11.0776 95.919 11.2772 95.4237 11.4768C95.4425 11.5152 95.4423 11.5534 95.442 11.5918ZM97.9839 32.1314C100.51 33.1176 103.037 34.1048 105.545 35.0932C105.757 34.4428 106.141 33.8512 106.638 33.3658C102.85 29.2349 99.0456 25.1018 95.2424 20.9853C95.5882 24.1153 95.9149 27.246 96.2417 30.3674C96.4893 30.3501 96.7363 30.3995 96.9643 30.4873C97.3632 30.6337 97.6853 30.9326 97.8546 31.336C97.9673 31.5953 98.0042 31.8634 97.9839 32.1314ZM113.621 38.2422C120.427 40.9095 127.272 43.5853 134.118 46.2693C134.29 46.0587 134.519 45.8876 134.786 45.7744C134.51 42.7501 134.234 39.7264 133.939 36.7028C127.295 36.7722 120.651 36.8416 114.027 36.9008C113.968 37.3709 113.833 37.8213 113.621 38.2422ZM104.173 35.4366C102.026 34.5855 99.8601 33.7352 97.6947 32.8854C97.5223 33.1138 97.293 33.3034 97.007 33.4257C96.5873 33.5948 96.1495 33.5818 95.7507 33.4352C95.5608 33.357 95.371 33.2409 95.2196 33.0962C94.4752 33.4923 93.7119 33.8882 92.9485 34.2836C96.6962 34.6674 100.444 35.0519 104.173 35.4366ZM179.827 86.4716C175.366 82.5757 170.907 78.6873 166.45 74.8163C162.441 77.0992 158.432 79.388 154.421 81.6525C154.535 82.1686 154.495 82.6819 154.361 83.1544C163.018 85.902 171.734 88.6603 180.453 91.4288C180.51 90.5425 180.569 89.6562 180.607 88.7596C180.226 88.5961 179.921 88.2971 179.749 87.9036C179.559 87.4905 179.559 87.0518 179.731 86.655C179.751 86.587 179.789 86.5295 179.827 86.4716ZM165.783 74.2219C162.508 71.3693 159.234 68.5305 155.98 65.6865C155.017 70.3365 154.035 74.9846 153.033 79.6206C152.899 79.5988 152.766 79.5673 152.613 79.5352C153.242 79.7987 153.756 80.254 154.118 80.8616C158.013 78.662 161.889 76.4487 165.783 74.2219ZM136.932 47.9891C143.069 53.3466 149.248 58.7196 155.43 64.1072C156.315 59.9003 157.22 55.6916 158.104 51.4915C158.988 47.2894 159.872 43.0758 160.755 38.8606C160.013 38.6598 159.366 38.1977 158.968 37.5345C151.67 40.7084 144.37 43.8719 137.087 47.025C137.124 47.3152 137.085 47.6044 136.989 47.8641C136.97 47.9124 136.951 47.9507 136.932 47.9891ZM156.172 64.7483C159.636 67.7599 163.1 70.7666 166.547 73.7871C170.955 71.2815 175.362 68.7808 179.768 66.2552C179.711 66.1663 179.872 66.5295 179.635 65.9896C179.397 65.4498 179.541 63.9017 180.438 63.3294C174.519 55.1214 168.606 46.945 162.697 38.7804C162.354 38.9134 161.973 38.9781 161.611 38.9748C160.709 43.2782 159.787 47.5797 158.903 51.8696C158.019 56.1581 157.076 60.4638 156.172 64.7483ZM167.213 74.3722C171.614 78.2033 176.016 82.0325 180.419 85.8785C180.476 85.8406 180.553 85.8128 180.629 85.7852C181.049 85.608 181.526 85.6267 181.926 85.7904C182.003 85.8212 182.079 85.8619 182.155 85.9024C182.766 85.358 183.377 84.794 183.969 84.2392C183.076 78.591 182.165 72.9453 181.254 67.3014C180.93 67.2286 180.606 67.087 180.358 66.8978C175.971 69.3943 171.602 71.8857 167.213 74.3722ZM185.166 91.5061C184.824 89.4296 184.482 87.3435 184.14 85.2572C183.682 85.6779 183.224 86.0889 182.765 86.4998C182.784 86.5587 182.822 86.6081 182.842 86.667C183.051 87.0809 183.032 87.5392 182.86 87.9167C182.707 88.3037 182.401 88.6292 181.981 88.7967C181.79 88.8614 181.638 88.8972 181.466 88.9132C181.427 89.8489 181.369 90.7745 181.292 91.6999C182.113 91.9604 182.914 92.2115 183.734 92.4626C184.059 92.0885 184.68 91.6913 184.957 91.58C185.233 91.4688 185.109 91.5243 185.166 91.5061ZM182.112 67.3246C183.004 72.7344 183.878 78.137 184.752 83.5509C187.404 81.1583 190.038 78.763 192.671 76.3744C192.232 75.7017 192.194 74.8505 192.556 74.1624C189.449 71.7161 186.324 69.283 183.199 66.8531C183.046 66.9872 182.856 67.1012 182.627 67.1859C182.455 67.2514 182.302 67.298 182.112 67.3246ZM184.904 84.5594C185.284 86.8219 185.664 89.0849 186.006 91.3576C186.331 91.3448 186.674 91.3807 186.999 91.4654C189.119 86.6523 191.238 81.8442 193.338 77.0314C193.319 77.0114 193.3 77.0014 193.281 76.9814C190.495 79.5139 187.709 82.0335 184.904 84.5594ZM181.448 62.9829C181.833 57.7688 182.199 52.5536 182.565 47.3376C181.898 47.1646 181.346 46.7197 181.042 46.0826C180.871 45.6808 180.814 45.251 180.891 44.8519C175.104 42.7474 169.319 40.6484 163.554 38.5451C169.406 46.6424 175.282 54.761 181.162 62.9108C181.048 62.9871 180.933 63.0634 180.819 63.1398C181.029 63.0551 181.238 63.0092 181.448 62.9829ZM134.702 35.879C142.621 35.8183 150.558 35.7381 158.515 35.6574C158.533 35.9294 158.533 36.1913 158.532 36.463C150.595 36.5425 142.676 36.6216 134.776 36.7001C135.053 39.6954 135.329 42.6811 135.624 45.6673C135.777 45.6785 135.929 45.7188 136.062 45.7685C136.062 45.7782 136.062 45.7782 136.062 45.7782C136.31 45.8773 136.556 46.0439 136.727 46.2777C144.01 43.1237 151.31 39.9592 158.646 36.7843C158.475 36.2299 158.477 35.6669 158.668 35.1441C150.247 30.2334 141.85 25.3411 133.494 20.477C133.437 20.5443 133.361 20.6019 133.285 20.6497C133.763 25.7187 134.242 30.7983 134.702 35.879ZM122.09 13.1948C120.543 10.1977 118.996 7.21248 117.467 4.2196C116.611 4.45891 115.681 4.15989 115.133 3.49632C109.498 5.77561 103.862 8.05848 98.2429 10.3263C105.688 11.8688 113.153 13.4266 120.62 14.98C120.831 14.2397 121.347 13.5776 122.09 13.1948ZM61.9537 29.7752C59.7798 27.6727 57.6062 25.5627 55.4142 23.4546C55.2806 23.5298 55.1849 23.6003 55.0323 23.6609C54.8799 23.7217 54.689 23.773 54.5176 23.8004C54.2555 31.2287 54.012 38.6755 53.7491 46.1118C56.6163 41.9608 59.482 37.8136 62.3464 33.6423C62.0246 33.3739 61.7606 33.0302 61.6111 32.6303C61.1799 31.6493 61.3583 30.5685 61.9537 29.7752ZM55.989 22.8793C58.162 24.9969 60.3545 27.0975 62.5284 29.2094C62.7198 29.0685 62.5771 29.0912 63.1589 28.8529C63.7408 28.6148 65.0824 28.5905 65.8975 29.0804C70.1736 23.8877 74.4859 18.6846 78.7577 13.4714C76.1515 13.7012 73.5263 13.9306 70.901 14.1502C65.9807 16.367 61.0402 18.5783 56.1181 20.7943C56.1368 20.823 56.1556 20.8514 56.1554 20.88C56.4549 21.5639 56.3735 22.3032 55.989 22.8793ZM48.5702 53.6191C50.0337 51.5351 51.4777 49.4499 52.9022 47.3533C53.163 40.2404 53.3854 33.1271 53.6268 26.0126C52.7754 30.6022 51.9042 35.2086 51.0528 39.7852C50.2001 44.3694 49.3287 48.9614 48.4756 53.5421C48.4942 53.5707 48.5325 53.5995 48.5702 53.6191ZM63.0096 34.0937C59.9144 38.6148 56.7985 43.1197 53.7004 47.6181C53.6521 49.0674 53.6034 50.5165 53.555 51.9567C53.7073 51.9774 53.8596 52.0265 53.9923 52.0755C54.1442 52.1439 54.2962 52.2213 54.4288 52.3176C57.3458 49.2803 60.262 46.229 63.1772 43.1739C63.3305 40.2221 63.4833 37.2696 63.6172 34.3075C63.4082 34.2584 63.1993 34.1903 63.0096 34.0937ZM52.8534 48.8688C51.6404 50.6359 50.4273 52.4017 49.2139 54.1665C49.384 54.3866 49.5348 54.6345 49.6658 54.9203C50.1341 56.0151 49.8584 57.2421 49.0711 58.0459C49.2586 58.4464 49.4653 58.8465 49.653 59.2372C50.3852 58.149 51.1175 57.0603 51.8305 55.9614C51.5082 55.7298 51.2436 55.4043 51.0563 55.0045C50.8125 54.4426 50.8173 53.8175 51.0497 53.2901C51.2632 52.7622 51.6854 52.3224 52.2586 52.0828C52.4116 52.0186 52.5644 51.9729 52.736 51.9467C52.7816 50.9239 52.827 49.9013 52.8534 48.8688ZM45.7507 58.6254C40.0544 65.6046 34.3545 72.5751 28.6693 79.527C29.0295 79.8163 29.3124 80.2033 29.4996 80.6261C29.6868 81.0488 29.7216 81.4598 29.7178 81.8742C31.2244 81.9972 32.731 82.1111 34.2373 82.2345C39.1999 74.8385 44.1587 67.4358 49.1327 60.0157C48.8884 59.5296 48.6444 59.0343 48.4193 58.5387C48.3236 58.5942 48.2279 58.6403 48.1136 58.6767C47.3295 59.0067 46.4725 58.957 45.7507 58.6254ZM59.2994 81.0433C56.046 74.3068 52.7947 67.5803 49.5265 60.8639C44.7452 68.0217 39.9603 75.1731 35.1717 82.3085C42.6663 82.9059 50.1612 83.4952 57.6756 84.0865C57.741 82.9018 58.3214 81.7745 59.2994 81.0433ZM50.0471 60.0857C53.3715 66.9167 56.6791 73.7677 60.0083 80.6198C60.104 80.5741 60.0658 80.5874 60.2761 80.5014C60.4865 80.4156 60.9648 80.2675 61.3273 80.2267C61.5714 75.171 61.8538 70.1247 62.0971 65.0771C62.3406 60.0294 62.6034 54.9807 62.8276 49.9223C60.3614 51.2223 57.8568 52.5111 55.3711 53.7987C55.4442 54.2073 55.3842 54.6235 55.2291 54.9913C55.0159 55.5195 54.5933 55.9688 54.0202 56.208C53.5613 56.4007 53.0658 56.4227 52.5902 56.303C51.7424 57.5705 50.8947 58.8284 50.0471 60.0857ZM62.8721 48.9826C62.9582 47.4643 63.0445 45.9457 63.1121 44.4176C60.4266 47.2462 57.7025 50.0716 54.9964 52.8934C55.034 52.9412 55.0529 52.9794 55.0906 53.0272C57.6911 51.6839 60.2912 50.3388 62.8721 48.9826ZM64.4351 34.3901C64.3036 37.0205 64.1719 39.641 64.0404 42.2707C66.9925 39.2105 69.9249 36.1273 72.8566 33.0395C70.9735 32.8441 69.0527 32.6488 67.1506 32.4537C67.1706 32.321 67.1903 32.1878 67.1914 32.0548C67.0142 32.9662 66.085 33.8998 65.4455 34.1606C64.8061 34.4214 64.778 34.3738 64.4351 34.3901ZM63.975 43.5147C63.8877 45.1949 63.8002 46.8751 63.7321 48.5459C72.5032 43.9911 81.3085 39.4077 90.1477 34.8158C84.726 34.2663 79.3048 33.7084 73.8835 33.152C70.5884 36.6179 67.2726 40.0687 63.975 43.5147ZM67.2318 31.6561C69.3429 31.8713 71.4541 32.0866 73.5654 32.3023C79.0227 26.6151 84.458 20.9232 89.9095 15.2075C89.1342 14.3734 88.3783 13.54 87.6032 12.6971C85.0352 12.9282 82.4673 13.1493 79.9181 13.3702C75.4361 18.7935 70.9707 24.206 66.503 29.5979C66.7107 29.8273 66.8802 30.085 67.0118 30.3809C67.1803 30.7906 67.2726 31.2285 67.2318 31.6561ZM74.5923 32.4053C80.2034 32.9814 85.8147 33.559 91.4648 34.1285C92.5717 33.5541 93.6975 32.9795 94.8041 32.4043C94.6919 32.0496 94.7126 31.6862 94.8476 31.362C94.9633 31.0759 95.1738 30.8192 95.4413 30.6393C95.0594 27.0779 94.678 23.5172 94.2967 19.9571C93.0104 18.5745 91.7435 17.1925 90.4578 15.8016C85.1785 21.3562 79.8775 26.8873 74.5923 32.4053ZM85.8842 7.25115C95.0352 5.58333 104.223 3.89909 113.447 2.20768C100.981 2.29636 88.5904 2.38444 76.2761 2.47222C76.2564 2.56731 76.237 2.66256 76.2173 2.7578C78.4715 3.97925 80.688 5.21131 82.9237 6.42545C82.981 6.38738 82.5714 6.55384 83.1143 6.32095C83.6573 6.08792 85.3384 6.29557 85.8842 7.25115ZM114.661 2.81378C105.284 4.52325 95.9442 6.22571 86.6409 7.92084C90.0394 8.63413 93.4193 9.33906 96.8187 10.0358C102.761 7.64451 108.721 5.23713 114.661 2.81378ZM82.2364 6.98706C80.1143 5.82055 77.9925 4.65522 75.8519 3.49079C75.6412 3.77638 75.5166 3.94775 74.9736 4.17571C74.4307 4.40367 73.4708 4.38367 72.8842 3.98329C69.442 7.3558 65.9984 10.7132 62.5541 14.0656C65.2557 13.837 67.9762 13.5986 70.6778 13.3602C74.3954 11.6961 78.1126 10.0389 81.7912 8.3693C81.756 7.86367 81.9299 7.37789 82.2364 6.98706ZM86.9038 11.9504C86.3177 11.3283 85.7511 10.6967 85.1653 10.0558C85.0507 10.1222 85.2507 10.0562 84.822 10.2364C84.3931 10.4164 83.2812 10.4233 82.6753 9.99263C81.986 10.8303 81.3159 11.6579 80.6268 12.4951C82.7192 12.32 84.8115 12.1355 86.9038 11.9504ZM85.7577 9.49387C86.4758 10.2784 87.2128 11.0727 87.95 11.8578C89.3765 11.7376 90.803 11.6173 92.2295 11.4968C92.2494 11.3632 92.2691 11.2389 92.3266 11.1148C92.4806 10.7328 92.7676 10.4181 93.1676 10.2469C93.2629 10.2089 93.3392 10.1803 93.4341 10.1615C91.0036 9.65867 88.5731 9.15648 86.1238 8.64518C86.0648 8.95061 85.9494 9.23665 85.7577 9.49387ZM88.6304 12.6142C89.2541 13.285 89.878 13.946 90.483 14.6075C91.1521 13.9215 91.8023 13.2356 92.4523 12.5396C92.4146 12.4726 92.3769 12.396 92.3393 12.3192C92.3394 12.3098 92.3394 12.3003 92.3206 12.2906C91.103 12.4018 89.8666 12.5127 88.6304 12.6142ZM91.0312 15.2209C92.0713 16.3429 93.0923 17.4751 94.1323 18.5889C93.9515 16.8189 93.7703 15.0489 93.5703 13.26C93.4374 13.2405 93.3234 13.2115 93.2095 13.1632C93.1527 13.144 93.0957 13.1248 93.0388 13.096C92.3887 13.8108 91.7196 14.516 91.0312 15.2209ZM95.4662 10.5777C95.2572 10.539 95.0483 10.5 94.8204 10.4517C94.934 10.5284 95.0286 10.6244 95.1042 10.7298C95.2375 10.6823 95.3519 10.635 95.4662 10.5777ZM58.4825 14.4221C59.4148 14.3492 60.3472 14.267 61.2795 14.1847C63.7862 11.7524 66.2737 9.32667 68.7608 6.88853C65.3041 9.3719 61.8846 11.842 58.4262 14.327C58.4452 14.3458 58.4449 14.3651 58.4449 14.3745C58.4638 14.3934 58.4828 14.4124 58.4825 14.4221ZM73.1316 13.1487C75.2431 12.9649 77.3738 12.781 79.4855 12.5966C80.366 11.541 81.2467 10.4659 82.1083 9.39997C82.0518 9.33294 82.0142 9.24725 81.9766 9.17066C79.0414 10.4987 76.0865 11.8247 73.1316 13.1487ZM68.4657 14.3703C66.2017 14.5717 63.9377 14.7633 61.6544 14.9547C60.0848 16.4865 58.5335 18.0173 56.9636 19.5468C60.798 17.818 64.6323 16.0959 68.4657 14.3703ZM60.3798 15.0642C59.7708 15.1191 59.1619 15.1737 58.553 15.2285C58.5332 15.3518 58.5135 15.4559 58.4558 15.5698C58.3008 15.939 57.9943 16.2604 57.6127 16.4295C57.1934 16.5985 56.7751 16.597 56.3768 16.4437C56.3008 16.415 56.2439 16.3864 56.1872 16.3483C54.8271 17.7362 53.4289 19.1326 52.0493 20.5283C52.1634 20.5383 52.2776 20.5482 52.3916 20.5488C52.6033 20.2182 52.7952 19.9919 53.3484 19.7575C53.9017 19.5233 54.7953 19.5654 55.3821 19.9471C57.0483 18.3144 58.7331 16.69 60.3798 15.0642ZM57.898 13.6994C62.5219 10.3912 67.1248 7.08544 71.7455 3.75368C62.3444 8.50126 52.9768 13.2284 43.6431 17.9352C47.5681 16.9586 51.4737 15.9702 55.3793 14.9803C55.3808 14.7813 55.4202 14.5823 55.4975 14.4024C55.6522 14.0332 55.9587 13.7119 56.3592 13.5426C56.7596 13.3731 57.1968 13.3745 57.5762 13.5274C57.6898 13.5752 57.8037 13.6325 57.898 13.6994ZM55.5829 15.7488C50.801 16.9619 46.0186 18.163 41.2355 19.3709C41.2725 19.522 41.2902 19.6735 41.2891 19.8244C44.54 20.0382 47.7718 20.2521 51.0036 20.457C52.5364 18.9012 54.069 17.3539 55.6017 15.7867C55.6017 15.7771 55.6019 15.7677 55.5829 15.7488ZM30.3286 40.8559C32.432 35.1902 34.5148 29.5001 36.5969 23.8232C32.2673 29.7576 27.9113 35.6959 23.6007 41.6103C19.2967 47.5156 14.9423 53.4344 10.619 59.3197C17.1929 53.1899 23.7627 47.0326 30.3286 40.8559ZM51.8096 53.6025C51.6546 53.9321 51.6518 54.33 51.8205 54.692C51.9703 55.0539 52.2733 55.3227 52.5965 55.4598C52.9382 55.5968 53.3384 55.6115 53.7015 55.455C54.0647 55.3081 54.3332 55.0273 54.4692 54.6878C54.624 54.339 54.6267 53.9504 54.4579 53.588C54.308 53.2262 54.0241 52.957 53.6824 52.8203C53.3402 52.6835 52.9403 52.6786 52.5772 52.8258C52.2141 52.9822 51.9451 53.2633 51.8096 53.6025ZM56.2557 14.7084C56.1786 14.8883 56.1772 15.0967 56.2519 15.296C56.3455 15.4766 56.4967 15.6195 56.6863 15.6959C56.8757 15.7725 57.085 15.7733 57.2757 15.6886C57.4856 15.604 57.6387 15.4527 57.6971 15.2729C57.7744 15.0928 57.795 14.8843 57.7011 14.6848C57.6075 14.4949 57.4563 14.3522 57.2667 14.2756C57.0771 14.1992 56.8868 14.1983 56.6773 14.2829C56.4674 14.3676 56.3334 14.5191 56.256 14.699C56.2557 14.7084 56.2557 14.7084 56.2557 14.7084ZM95.6264 31.6644C95.5493 31.8551 95.5482 32.0655 95.6234 32.2575C95.7176 32.4589 95.869 32.6039 96.059 32.6816C96.2489 32.75 96.4775 32.7518 96.668 32.6766C96.8779 32.5922 97.0309 32.4305 97.0886 32.2492C97.1657 32.0679 97.186 31.8576 97.0918 31.6558C96.9974 31.4541 96.8461 31.3094 96.6562 31.241C96.4661 31.1633 96.2568 31.1616 96.0469 31.2463C95.8375 31.3311 95.7033 31.483 95.6264 31.6644ZM93.0854 11.4132C93.0087 11.5946 93.0073 11.805 93.0826 11.9963C93.1763 12.1974 93.3278 12.3413 93.5177 12.4088C93.7075 12.486 93.9165 12.4864 94.1261 12.4011C94.3357 12.3252 94.4694 12.1631 94.5465 11.9814C94.6235 11.8 94.6245 11.5897 94.5494 11.398C94.4555 11.1968 94.304 11.053 94.1143 10.9857C93.9247 10.9086 93.7154 10.908 93.5058 10.9936C93.2963 11.079 93.1624 11.2318 93.0854 11.4132ZM131.597 19.0308C131.52 19.2137 131.52 19.4355 131.614 19.629C131.709 19.832 131.86 19.9774 132.05 20.0458C132.24 20.1239 132.449 20.1249 132.678 20.0487C132.887 19.9627 133.021 19.7993 133.098 19.6165C133.175 19.4334 133.175 19.2115 133.1 19.018C133.005 18.8151 132.853 18.6697 132.663 18.6013C132.455 18.5233 132.226 18.5224 132.036 18.6083C131.826 18.694 131.674 18.8479 131.597 19.0308ZM134.687 46.9608C134.611 47.1432 134.61 47.3557 134.705 47.5594C134.78 47.7629 134.951 47.9097 135.141 47.9794C135.332 48.0588 135.541 48.061 135.77 47.9764C135.961 47.8915 136.113 47.7387 136.19 47.5563C136.267 47.3736 136.268 47.1515 136.173 46.9574C136.097 46.7536 135.926 46.6072 135.755 46.5374C135.755 46.5374 135.755 46.5374 135.755 46.528C135.546 46.4583 135.317 46.4559 135.127 46.5406C134.917 46.6155 134.764 46.7781 134.687 46.9608ZM180.533 86.9731C180.456 87.1766 180.456 87.3911 180.532 87.5875C180.627 87.7944 180.799 87.9437 180.99 88.0258C181.18 88.0978 181.428 88.1026 181.619 88.0284C181.829 87.9451 181.982 87.7818 182.059 87.598C182.135 87.4142 182.135 87.19 182.059 86.9835C181.964 86.7766 181.792 86.6273 181.601 86.5551C181.411 86.4733 181.182 86.4691 180.972 86.5524C180.743 86.636 180.609 86.7893 180.533 86.9731Z" fill="white"/>
<path d="M15.3259 162.761C15.7221 162.865 16.1487 162.954 16.6058 163.029C17.0629 163.088 17.5657 163.118 18.1142 163.118C19.0437 163.118 19.8665 162.991 20.5826 162.738C21.2987 162.485 21.893 162.143 22.3653 161.712C22.8529 161.265 23.2186 160.759 23.4623 160.193C23.7061 159.613 23.828 158.995 23.828 158.34C23.828 157.715 23.7214 157.12 23.5081 156.555C23.2947 155.974 22.9672 155.476 22.5253 155.059C22.0987 154.627 21.5578 154.285 20.9026 154.032C20.2474 153.779 19.4779 153.652 18.5942 153.652H13.2461V169.28H15.3259V162.761ZM15.3259 154.635H17.7257C18.3656 154.635 18.9294 154.746 19.417 154.969C19.9046 155.193 20.3083 155.49 20.6283 155.862C20.9483 156.22 21.1844 156.629 21.3368 157.09C21.5044 157.537 21.5882 157.983 21.5882 158.43C21.5882 158.861 21.512 159.3 21.3597 159.747C21.2225 160.179 20.994 160.573 20.674 160.93C20.354 161.287 19.9503 161.578 19.4627 161.801C18.9751 162.024 18.3885 162.136 17.7028 162.136C17.2305 162.136 16.7963 162.121 16.4001 162.091C16.0039 162.046 15.6459 161.965 15.3259 161.845V154.635Z" fill="white"/>
<path d="M29.3425 161.511H38.9189V169.28H40.9987V153.652H38.9189V160.484H29.3425V153.652H27.2627V169.28H29.3425V161.511Z" fill="white"/>
<path d="M55.3705 164.681L57.5646 169.28H59.7815L52.3307 153.652H51.188L44.4228 169.28H45.4742L47.4854 164.681H55.3705ZM54.8905 163.676H47.9197L51.2108 156.153H51.3022L54.8905 163.676Z" fill="white"/>
<path d="M63.2194 153.652V169.28H65.2992V162.381H66.3049C66.7315 162.381 67.0819 162.418 67.3562 162.493C67.6457 162.567 67.9047 162.694 68.1333 162.872C68.3618 163.051 68.5751 163.282 68.7732 163.564C68.9713 163.847 69.2075 164.197 69.4817 164.614L71.2873 167.226C71.5158 167.568 71.7368 167.881 71.9501 168.163C72.1786 168.446 72.4224 168.692 72.6815 168.9C72.9405 169.093 73.23 169.25 73.5499 169.369C73.8852 169.488 74.2813 169.547 74.7384 169.547C75.0736 169.547 75.3479 169.533 75.5612 169.503C75.7745 169.473 75.9878 169.399 76.2011 169.28V168.454C76.125 168.468 76.0488 168.483 75.9726 168.498C75.8964 168.498 75.8202 168.498 75.744 168.498C75.4241 168.498 75.1422 168.454 74.8984 168.364C74.6546 168.275 74.4261 168.148 74.2127 167.985C73.9994 167.806 73.7937 167.598 73.5957 167.36C73.3976 167.107 73.1919 166.824 72.9786 166.511C72.3386 165.603 71.8434 164.882 71.493 164.346C71.1425 163.795 70.8607 163.371 70.6473 163.073C70.4493 162.776 70.2817 162.56 70.1445 162.426C70.0226 162.292 69.8703 162.18 69.6874 162.091L69.4589 161.979V161.89C70.1902 161.845 70.8149 161.689 71.333 161.421C71.8663 161.153 72.3005 160.819 72.6357 160.417C72.971 160.015 73.2147 159.583 73.3671 159.122C73.5195 158.646 73.5957 158.184 73.5957 157.738C73.5957 157.336 73.5119 156.897 73.3442 156.421C73.1919 155.944 72.9176 155.505 72.5215 155.103C72.1405 154.687 71.6149 154.344 70.9445 154.077C70.274 153.794 69.4284 153.652 68.4075 153.652H63.2194ZM65.2992 154.635H67.6076C68.1866 154.635 68.7047 154.716 69.1618 154.88C69.6341 155.044 70.0379 155.275 70.3731 155.572C70.7083 155.855 70.9597 156.197 71.1273 156.599C71.3101 157.001 71.4016 157.44 71.4016 157.916C71.4016 158.318 71.3178 158.727 71.1502 159.144C70.9978 159.546 70.7616 159.918 70.4416 160.26C70.1217 160.588 69.7255 160.856 69.2532 161.064C68.7961 161.272 68.2628 161.377 67.6533 161.377H65.2992V154.635Z" fill="white"/>
<path d="M81.1784 153.652H79.6242V169.28H80.6299V156.532H80.7213L87.7835 169.547H88.1949L95.4172 156.622H95.5086V169.28H97.5884V153.652H96.0114L88.6063 167.069H88.5149L81.1784 153.652Z" fill="white"/>
<path d="M111.973 164.681L114.167 169.28H116.384L108.933 153.652H107.79L101.025 169.28H102.076L104.088 164.681H111.973ZM111.493 163.676H104.522L107.813 156.153H107.904L111.493 163.676Z" fill="white"/>
<path d="M129.892 162.761C130.288 162.865 130.715 162.954 131.172 163.029C131.629 163.088 132.132 163.118 132.68 163.118C133.61 163.118 134.432 162.991 135.149 162.738C135.865 162.485 136.459 162.143 136.931 161.712C137.419 161.265 137.784 160.759 138.028 160.193C138.272 159.613 138.394 158.995 138.394 158.34C138.394 157.715 138.287 157.12 138.074 156.555C137.861 155.974 137.533 155.476 137.091 155.059C136.665 154.627 136.124 154.285 135.468 154.032C134.813 153.779 134.044 153.652 133.16 153.652H127.812V169.28H129.892V162.761ZM129.892 154.635H132.292C132.932 154.635 133.495 154.746 133.983 154.969C134.47 155.193 134.874 155.49 135.194 155.862C135.514 156.22 135.75 156.629 135.903 157.09C136.07 157.537 136.154 157.983 136.154 158.43C136.154 158.861 136.078 159.3 135.926 159.747C135.788 160.179 135.56 160.573 135.24 160.93C134.92 161.287 134.516 161.578 134.029 161.801C133.541 162.024 132.954 162.136 132.269 162.136C131.796 162.136 131.362 162.121 130.966 162.091C130.57 162.046 130.212 161.965 129.892 161.845V154.635Z" fill="white"/>
<path d="M150.719 164.681L152.913 169.28H155.13L147.68 153.652H146.537L139.772 169.28H140.823L142.834 164.681H150.719ZM150.239 163.676H143.269L146.56 156.153H146.651L150.239 163.676Z" fill="white"/>
<path d="M158.568 153.652V169.28H160.648V162.381H161.654C162.08 162.381 162.431 162.418 162.705 162.493C162.995 162.567 163.254 162.694 163.482 162.872C163.711 163.051 163.924 163.282 164.122 163.564C164.32 163.847 164.556 164.197 164.831 164.614L166.636 167.226C166.865 167.568 167.086 167.881 167.299 168.163C167.527 168.446 167.771 168.692 168.03 168.9C168.289 169.093 168.579 169.25 168.899 169.369C169.234 169.488 169.63 169.547 170.087 169.547C170.422 169.547 170.697 169.533 170.91 169.503C171.123 169.473 171.337 169.399 171.55 169.28V168.454C171.474 168.468 171.398 168.483 171.321 168.498C171.245 168.498 171.169 168.498 171.093 168.498C170.773 168.498 170.491 168.454 170.247 168.364C170.003 168.275 169.775 168.148 169.562 167.985C169.348 167.806 169.143 167.598 168.944 167.36C168.746 167.107 168.541 166.824 168.327 166.511C167.687 165.603 167.192 164.882 166.842 164.346C166.491 163.795 166.21 163.371 165.996 163.073C165.798 162.776 165.63 162.56 165.493 162.426C165.371 162.292 165.219 162.18 165.036 162.091L164.808 161.979V161.89C165.539 161.845 166.164 161.689 166.682 161.421C167.215 161.153 167.649 160.819 167.985 160.417C168.32 160.015 168.564 159.583 168.716 159.122C168.868 158.646 168.944 158.184 168.944 157.738C168.944 157.336 168.861 156.897 168.693 156.421C168.541 155.944 168.266 155.505 167.87 155.103C167.489 154.687 166.964 154.344 166.293 154.077C165.623 153.794 164.777 153.652 163.756 153.652H158.568ZM160.648 154.635H162.956C163.535 154.635 164.053 154.716 164.511 154.88C164.983 155.044 165.387 155.275 165.722 155.572C166.057 155.855 166.309 156.197 166.476 156.599C166.659 157.001 166.75 157.44 166.75 157.916C166.75 158.318 166.667 158.727 166.499 159.144C166.347 159.546 166.11 159.918 165.79 160.26C165.471 160.588 165.074 160.856 164.602 161.064C164.145 161.272 163.612 161.377 163.002 161.377H160.648V154.635Z" fill="white"/>
<path d="M174.973 169.28H177.053V163.788L179.636 161.086L185.715 169.28H188.092L180.961 159.702L186.766 153.652H185.624L177.053 162.448V153.652H174.973V169.28Z" fill="white"/>
<path d="M15.3259 162.761C15.7221 162.865 16.1487 162.954 16.6058 163.029C17.0629 163.088 17.5657 163.118 18.1142 163.118C19.0437 163.118 19.8665 162.991 20.5826 162.738C21.2987 162.485 21.893 162.143 22.3653 161.712C22.8529 161.265 23.2186 160.759 23.4623 160.193C23.7061 159.613 23.828 158.995 23.828 158.34C23.828 157.715 23.7214 157.12 23.5081 156.555C23.2947 155.974 22.9672 155.476 22.5253 155.059C22.0987 154.627 21.5578 154.285 20.9026 154.032C20.2474 153.779 19.4779 153.652 18.5942 153.652H13.2461V169.28H15.3259V162.761ZM15.3259 154.635H17.7257C18.3656 154.635 18.9294 154.746 19.417 154.969C19.9046 155.193 20.3083 155.49 20.6283 155.862C20.9483 156.22 21.1844 156.629 21.3368 157.09C21.5044 157.537 21.5882 157.983 21.5882 158.43C21.5882 158.861 21.512 159.3 21.3597 159.747C21.2225 160.179 20.994 160.573 20.674 160.93C20.354 161.287 19.9503 161.578 19.4627 161.801C18.9751 162.024 18.3885 162.136 17.7028 162.136C17.2305 162.136 16.7963 162.121 16.4001 162.091C16.0039 162.046 15.6459 161.965 15.3259 161.845V154.635Z" stroke="white" stroke-width="0.5"/>
<path d="M29.3425 161.511H38.9189V169.28H40.9987V153.652H38.9189V160.484H29.3425V153.652H27.2627V169.28H29.3425V161.511Z" stroke="white" stroke-width="0.5"/>
<path d="M55.3705 164.681L57.5646 169.28H59.7815L52.3307 153.652H51.188L44.4228 169.28H45.4742L47.4854 164.681H55.3705ZM54.8905 163.676H47.9197L51.2108 156.153H51.3022L54.8905 163.676Z" stroke="white" stroke-width="0.5"/>
<path d="M63.2194 153.652V169.28H65.2992V162.381H66.3049C66.7315 162.381 67.0819 162.418 67.3562 162.493C67.6457 162.567 67.9047 162.694 68.1333 162.872C68.3618 163.051 68.5751 163.282 68.7732 163.564C68.9713 163.847 69.2075 164.197 69.4817 164.614L71.2873 167.226C71.5158 167.568 71.7368 167.881 71.9501 168.163C72.1786 168.446 72.4224 168.692 72.6815 168.9C72.9405 169.093 73.23 169.25 73.5499 169.369C73.8852 169.488 74.2813 169.547 74.7384 169.547C75.0736 169.547 75.3479 169.533 75.5612 169.503C75.7745 169.473 75.9878 169.399 76.2011 169.28V168.454C76.125 168.468 76.0488 168.483 75.9726 168.498C75.8964 168.498 75.8202 168.498 75.744 168.498C75.4241 168.498 75.1422 168.454 74.8984 168.364C74.6546 168.275 74.4261 168.148 74.2127 167.985C73.9994 167.806 73.7937 167.598 73.5957 167.36C73.3976 167.107 73.1919 166.824 72.9786 166.511C72.3386 165.603 71.8434 164.882 71.493 164.346C71.1425 163.795 70.8607 163.371 70.6473 163.073C70.4493 162.776 70.2817 162.56 70.1445 162.426C70.0226 162.292 69.8703 162.18 69.6874 162.091L69.4589 161.979V161.89C70.1902 161.845 70.8149 161.689 71.333 161.421C71.8663 161.153 72.3005 160.819 72.6357 160.417C72.971 160.015 73.2147 159.583 73.3671 159.122C73.5195 158.646 73.5957 158.184 73.5957 157.738C73.5957 157.336 73.5119 156.897 73.3442 156.421C73.1919 155.944 72.9176 155.505 72.5215 155.103C72.1405 154.687 71.6149 154.344 70.9445 154.077C70.274 153.794 69.4284 153.652 68.4075 153.652H63.2194ZM65.2992 154.635H67.6076C68.1866 154.635 68.7047 154.716 69.1618 154.88C69.6341 155.044 70.0379 155.275 70.3731 155.572C70.7083 155.855 70.9597 156.197 71.1273 156.599C71.3101 157.001 71.4016 157.44 71.4016 157.916C71.4016 158.318 71.3178 158.727 71.1502 159.144C70.9978 159.546 70.7616 159.918 70.4416 160.26C70.1217 160.588 69.7255 160.856 69.2532 161.064C68.7961 161.272 68.2628 161.377 67.6533 161.377H65.2992V154.635Z" stroke="white" stroke-width="0.5"/>
<path d="M81.1784 153.652H79.6242V169.28H80.6299V156.532H80.7213L87.7835 169.547H88.1949L95.4172 156.622H95.5086V169.28H97.5884V153.652H96.0114L88.6063 167.069H88.5149L81.1784 153.652Z" stroke="white" stroke-width="0.5"/>
<path d="M111.973 164.681L114.167 169.28H116.384L108.933 153.652H107.79L101.025 169.28H102.076L104.088 164.681H111.973ZM111.493 163.676H104.522L107.813 156.153H107.904L111.493 163.676Z" stroke="white" stroke-width="0.5"/>
<path d="M129.892 162.761C130.288 162.865 130.715 162.954 131.172 163.029C131.629 163.088 132.132 163.118 132.68 163.118C133.61 163.118 134.432 162.991 135.149 162.738C135.865 162.485 136.459 162.143 136.931 161.712C137.419 161.265 137.784 160.759 138.028 160.193C138.272 159.613 138.394 158.995 138.394 158.34C138.394 157.715 138.287 157.12 138.074 156.555C137.861 155.974 137.533 155.476 137.091 155.059C136.665 154.627 136.124 154.285 135.468 154.032C134.813 153.779 134.044 153.652 133.16 153.652H127.812V169.28H129.892V162.761ZM129.892 154.635H132.292C132.932 154.635 133.495 154.746 133.983 154.969C134.47 155.193 134.874 155.49 135.194 155.862C135.514 156.22 135.75 156.629 135.903 157.09C136.07 157.537 136.154 157.983 136.154 158.43C136.154 158.861 136.078 159.3 135.926 159.747C135.788 160.179 135.56 160.573 135.24 160.93C134.92 161.287 134.516 161.578 134.029 161.801C133.541 162.024 132.954 162.136 132.269 162.136C131.796 162.136 131.362 162.121 130.966 162.091C130.57 162.046 130.212 161.965 129.892 161.845V154.635Z" stroke="white" stroke-width="0.5"/>
<path d="M150.719 164.681L152.913 169.28H155.13L147.68 153.652H146.537L139.772 169.28H140.823L142.834 164.681H150.719ZM150.239 163.676H143.269L146.56 156.153H146.651L150.239 163.676Z" stroke="white" stroke-width="0.5"/>
<path d="M158.568 153.652V169.28H160.648V162.381H161.654C162.08 162.381 162.431 162.418 162.705 162.493C162.995 162.567 163.254 162.694 163.482 162.872C163.711 163.051 163.924 163.282 164.122 163.564C164.32 163.847 164.556 164.197 164.831 164.614L166.636 167.226C166.865 167.568 167.086 167.881 167.299 168.163C167.527 168.446 167.771 168.692 168.03 168.9C168.289 169.093 168.579 169.25 168.899 169.369C169.234 169.488 169.63 169.547 170.087 169.547C170.422 169.547 170.697 169.533 170.91 169.503C171.123 169.473 171.337 169.399 171.55 169.28V168.454C171.474 168.468 171.398 168.483 171.321 168.498C171.245 168.498 171.169 168.498 171.093 168.498C170.773 168.498 170.491 168.454 170.247 168.364C170.003 168.275 169.775 168.148 169.562 167.985C169.348 167.806 169.143 167.598 168.944 167.36C168.746 167.107 168.541 166.824 168.327 166.511C167.687 165.603 167.192 164.882 166.842 164.346C166.491 163.795 166.21 163.371 165.996 163.073C165.798 162.776 165.63 162.56 165.493 162.426C165.371 162.292 165.219 162.18 165.036 162.091L164.808 161.979V161.89C165.539 161.845 166.164 161.689 166.682 161.421C167.215 161.153 167.649 160.819 167.985 160.417C168.32 160.015 168.564 159.583 168.716 159.122C168.868 158.646 168.944 158.184 168.944 157.738C168.944 157.336 168.861 156.897 168.693 156.421C168.541 155.944 168.266 155.505 167.87 155.103C167.489 154.687 166.964 154.344 166.293 154.077C165.623 153.794 164.777 153.652 163.756 153.652H158.568ZM160.648 154.635H162.956C163.535 154.635 164.053 154.716 164.511 154.88C164.983 155.044 165.387 155.275 165.722 155.572C166.057 155.855 166.309 156.197 166.476 156.599C166.659 157.001 166.75 157.44 166.75 157.916C166.75 158.318 166.667 158.727 166.499 159.144C166.347 159.546 166.11 159.918 165.79 160.26C165.471 160.588 165.074 160.856 164.602 161.064C164.145 161.272 163.612 161.377 163.002 161.377H160.648V154.635Z" stroke="white" stroke-width="0.5"/>
<path d="M174.973 169.28H177.053V163.788L179.636 161.086L185.715 169.28H188.092L180.961 159.702L186.766 153.652H185.624L177.053 162.448V153.652H174.973V169.28Z" stroke="white" stroke-width="0.5"/>
<path d="M77.4335 185.644V180.662H79.8654V180.237H74.1758V180.662H76.6077V185.644H77.4335Z" fill="white"/>
<path d="M83.5756 184.053L84.4467 185.644H85.327L82.3687 180.237H81.915L79.229 185.644H79.6464L80.445 184.053H83.5756ZM83.3851 183.705H80.6174L81.9241 181.102H81.9604L83.3851 183.705Z" fill="white"/>
<path d="M85.9388 184.277C85.9509 184.498 86.0174 184.699 86.1384 184.879C86.2654 185.06 86.4348 185.214 86.6466 185.343C86.8643 185.466 87.1184 185.564 87.4088 185.636C87.6992 185.703 88.0168 185.737 88.3616 185.737C88.7125 185.737 89.027 185.701 89.3053 185.629C89.5897 185.557 89.8316 185.454 90.0313 185.32C90.2309 185.186 90.3852 185.024 90.4941 184.833C90.6029 184.642 90.6574 184.431 90.6574 184.2C90.6574 183.88 90.5636 183.62 90.3761 183.419C90.1886 183.213 89.9526 183.043 89.6683 182.91C89.39 182.77 89.0845 182.655 88.7518 182.562C88.4251 182.469 88.1196 182.371 87.8353 182.268C87.557 182.165 87.3241 182.047 87.1366 181.913C86.949 181.779 86.8553 181.601 86.8553 181.38C86.8553 181.256 86.8855 181.141 86.946 181.032C87.0126 180.924 87.1063 180.832 87.2273 180.754C87.3544 180.672 87.5086 180.608 87.6901 180.561C87.8716 180.51 88.0803 180.484 88.3162 180.484C88.7094 180.484 89.0422 180.556 89.3144 180.7C89.5927 180.839 89.756 181.061 89.8044 181.365H90.4215C90.3852 181.174 90.3035 181.004 90.1765 180.855C90.0494 180.7 89.8891 180.571 89.6955 180.468C89.5019 180.36 89.2811 180.281 89.0331 180.229C88.7911 180.172 88.537 180.144 88.2709 180.144C87.9926 180.144 87.7264 180.175 87.4723 180.237C87.2243 180.299 87.0035 180.389 86.8099 180.507C86.6224 180.626 86.4711 180.775 86.3562 180.955C86.2473 181.135 86.1928 181.341 86.1928 181.573C86.1928 181.877 86.2836 182.122 86.4651 182.307C86.6466 182.492 86.8734 182.647 87.1456 182.77C87.4239 182.894 87.7234 183 88.044 183.087C88.3646 183.175 88.661 183.275 88.9333 183.388C89.2116 183.497 89.4414 183.63 89.6229 183.79C89.8044 183.95 89.8952 184.163 89.8952 184.431C89.8952 184.766 89.75 185.011 89.4596 185.165C89.1753 185.32 88.7941 185.397 88.3162 185.397C87.9351 185.397 87.6296 185.356 87.3997 185.273C87.1698 185.186 86.9944 185.083 86.8734 184.964C86.7524 184.846 86.6708 184.725 86.6284 184.601C86.5861 184.472 86.5619 184.364 86.5558 184.277H85.9388Z" fill="white"/>
<path d="M93.1891 182.956H96.9913V185.644H97.817V180.237H96.9913V182.601H93.1891V180.237H92.3634V185.644H93.1891V182.956Z" fill="white"/>
<path d="M99.9932 185.644H100.819V183.744L101.844 182.809L104.258 185.644H105.202L102.371 182.33L104.676 180.237H104.222L100.819 183.28V180.237H99.9932V185.644Z" fill="white"/>
<path d="M106.56 180.237V185.644H110.661V185.219H107.385V182.956H110.198V182.601H107.385V180.662H110.661V180.237H106.56Z" fill="white"/>
<path d="M117.136 180.237V184.369H117.1L112.064 180.144H112.018V185.644H112.436V181.511H112.472L117.508 185.737H117.554V180.237H117.136Z" fill="white"/>
<path d="M122.078 185.644V180.662H124.51V180.237H118.821V180.662H121.253V185.644H122.078Z" fill="white"/>
<path d="M77.4335 185.644V180.662H79.8654V180.237H74.1758V180.662H76.6077V185.644H77.4335Z" stroke="white" stroke-width="0.2"/>
<path d="M83.5756 184.053L84.4467 185.644H85.327L82.3687 180.237H81.915L79.229 185.644H79.6464L80.445 184.053H83.5756ZM83.3851 183.705H80.6174L81.9241 181.102H81.9604L83.3851 183.705Z" stroke="white" stroke-width="0.2"/>
<path d="M85.9388 184.277C85.9509 184.498 86.0174 184.699 86.1384 184.879C86.2654 185.06 86.4348 185.214 86.6466 185.343C86.8643 185.466 87.1184 185.564 87.4088 185.636C87.6992 185.703 88.0168 185.737 88.3616 185.737C88.7125 185.737 89.027 185.701 89.3053 185.629C89.5897 185.557 89.8316 185.454 90.0313 185.32C90.2309 185.186 90.3852 185.024 90.4941 184.833C90.6029 184.642 90.6574 184.431 90.6574 184.2C90.6574 183.88 90.5636 183.62 90.3761 183.419C90.1886 183.213 89.9526 183.043 89.6683 182.91C89.39 182.77 89.0845 182.655 88.7518 182.562C88.4251 182.469 88.1196 182.371 87.8353 182.268C87.557 182.165 87.3241 182.047 87.1366 181.913C86.949 181.779 86.8553 181.601 86.8553 181.38C86.8553 181.256 86.8855 181.141 86.946 181.032C87.0126 180.924 87.1063 180.832 87.2273 180.754C87.3544 180.672 87.5086 180.608 87.6901 180.561C87.8716 180.51 88.0803 180.484 88.3162 180.484C88.7094 180.484 89.0422 180.556 89.3144 180.7C89.5927 180.839 89.756 181.061 89.8044 181.365H90.4215C90.3852 181.174 90.3035 181.004 90.1765 180.855C90.0494 180.7 89.8891 180.571 89.6955 180.468C89.5019 180.36 89.2811 180.281 89.0331 180.229C88.7911 180.172 88.537 180.144 88.2709 180.144C87.9926 180.144 87.7264 180.175 87.4723 180.237C87.2243 180.299 87.0035 180.389 86.8099 180.507C86.6224 180.626 86.4711 180.775 86.3562 180.955C86.2473 181.135 86.1928 181.341 86.1928 181.573C86.1928 181.877 86.2836 182.122 86.4651 182.307C86.6466 182.492 86.8734 182.647 87.1456 182.77C87.4239 182.894 87.7234 183 88.044 183.087C88.3646 183.175 88.661 183.275 88.9333 183.388C89.2116 183.497 89.4414 183.63 89.6229 183.79C89.8044 183.95 89.8952 184.163 89.8952 184.431C89.8952 184.766 89.75 185.011 89.4596 185.165C89.1753 185.32 88.7941 185.397 88.3162 185.397C87.9351 185.397 87.6296 185.356 87.3997 185.273C87.1698 185.186 86.9944 185.083 86.8734 184.964C86.7524 184.846 86.6708 184.725 86.6284 184.601C86.5861 184.472 86.5619 184.364 86.5558 184.277H85.9388Z" stroke="white" stroke-width="0.2"/>
<path d="M93.1891 182.956H96.9913V185.644H97.817V180.237H96.9913V182.601H93.1891V180.237H92.3634V185.644H93.1891V182.956Z" stroke="white" stroke-width="0.2"/>
<path d="M99.9932 185.644H100.819V183.744L101.844 182.809L104.258 185.644H105.202L102.371 182.33L104.676 180.237H104.222L100.819 183.28V180.237H99.9932V185.644Z" stroke="white" stroke-width="0.2"/>
<path d="M106.56 180.237V185.644H110.661V185.219H107.385V182.956H110.198V182.601H107.385V180.662H110.661V180.237H106.56Z" stroke="white" stroke-width="0.2"/>
<path d="M117.136 180.237V184.369H117.1L112.064 180.144H112.018V185.644H112.436V181.511H112.472L117.508 185.737H117.554V180.237H117.136Z" stroke="white" stroke-width="0.2"/>
<path d="M122.078 185.644V180.662H124.51V180.237H118.821V180.662H121.253V185.644H122.078Z" stroke="white" stroke-width="0.2"/>
</svg>
