<svg width="1920" height="969" viewBox="0 0 1920 969" fill="none" xmlns="http://www.w3.org/2000/svg">
<path opacity="0.5" d="M719.485 566.716L727.639 561.61L872.867 479.398C885.504 471.227 899.874 472.589 905.479 474.291L972.233 489.61C984.055 492.061 984.633 498.461 983.444 501.355L982.424 567.737C978.756 569.78 974.441 573.695 972.743 575.397C978.042 583.975 997.032 591.907 1005.86 594.801V588.673L1010.96 584.077L1018.6 586.12V591.737L1029.81 594.801L1030.32 601.95L1047.14 606.035C1055.7 608.077 1060.9 611.311 1062.43 612.673L1086.38 629.524C1097.38 636.06 1096.74 643.141 1095.04 645.864L1094.02 668.843L1093 669.353V671.906C1097.49 679.668 1089.77 686.374 1085.36 688.757L941.659 734.714C924.537 742.476 901.912 737.948 892.74 734.714L688.912 666.289C670.567 661.387 669.378 649.949 671.077 644.843L667 606.545L715.409 575.397L719.485 576.929C715.409 572.435 717.787 568.248 719.485 566.716Z" fill="#CA182E"/>
</svg>
